<?xml version="1.0" encoding="utf-8"?>
<!-- Generator: Adobe Illustrator 23.0.1, SVG Export Plug-In . SVG Version: 6.00 Build 0)  -->
<svg version="1.1" id="Layer_1" xmlns="http://www.w3.org/2000/svg" xmlns:xlink="http://www.w3.org/1999/xlink" x="0px" y="0px"
	 viewBox="0 0 293.27 382.09" style="enable-background:new 0 0 293.27 382.09;" xml:space="preserve">
<style type="text/css">
	.st0{fill:#FFFFFF;}
	.st1{fill:#601415;}
	.st2{fill:#2A3492;}
	.st3{fill:#551417;}
	.st4{fill:#B57B56;}
	.st5{fill:#F36D38;}
	.st6{fill:#CC6666;}
	.st7{fill:#E09226;}
	.st8{opacity:0.95;fill:#9B4522;}
	.st9{fill:#EC2E24;}
</style>
<rect class="st0" width="293.27" height="382.09"/>
<path class="st1" d="M141.67,35.64c-2.26-1-4.6-1.74-6.98-2.27c-0.93-0.55-1.86-1.04-2.75-1.45c-12.84-6.01-24.44-3.42-37.44,0.32
	c-6.05,1.74-12.32,1.26-18.36,2.87c-5.64,1.5-10.77,4.9-14.46,9.4c-3.79,4.62-6.31,10.06-7.22,15.98c-0.39,2.55-0.57,5.03-0.32,7.6
	c0.37,3.78,1.63,5.49-0.68,8.58c-8.17,10.94-19.83,18.82-22.29,33.23c-1.06,6.19-0.48,12.59,2.72,18.11
	c2.72,4.69,7.75,6.79,4.05,11.87c-3.87,5.33-8.62,9.26-10.95,15.65c-2.3,6.3-2.04,13.48,0.42,19.67c2.16,5.45,6.04,9.58,10.01,13.76
	c4.29,4.52,5.42,7.5,4.68,13.8c-0.73,6.25-1.83,12.35,0.39,18.47c2.14,5.9,6.53,10.5,12.02,13.46c10.05,5.43,22.4,5.36,31.8,12.08
	c4.13,2.95,6,7.63,9.82,10.84c3.56,3,8.05,3.75,11.92,2.45c6.58,3.26,13.08-2.81,15.37-8.87c4.9-12.99-2.55-26.81-3.49-40.3
	c0.29-2.54,0.48-5.08,0.57-7.63c1.11-3.08,2.23-6.15,2.82-9.36c1.54-8.27-2.4-14.03-4.53-21.6c-3.34-11.86,6.77-23.38,13.49-32.05
	c8.75-11.3,15.19-22.25,16.16-36.8c0.38-5.65-0.12-11.48,0.98-17.07c1.33-6.78,6.57-11.36,8.94-17.71
	C163.43,55.14,153.96,41.08,141.67,35.64z"/>
<path class="st2" d="M162,47.38c-2.16-3.94-6.25-3.18-9.88-2.25c-7.02,1.79-14.15,2.79-21.39,2.95c-9.15,0.2-21.68,1.23-27.43,9.72
	c-0.71,1.05-1.18,2.21-1.45,3.43c-0.47,0.23-0.92,0.48-1.37,0.76c-3.29,2.04-5.57,5.07-7.9,8.07c-2.45,3.14-5.6,5.46-8.15,8.47
	c-3.77,4.45-6.45,12.6-2.18,16.73c-1.44,3.28-1.63,7.25-2.21,10.69c-0.47,2.8-1.53,6.22-0.33,8.98c4.82,11.18,22.38-6.7,21.04-16.59
	c2.72-0.9,5.04-2.55,6.97-4.79c2.2-2.55,3.21-6.85,5.9-8.7c1.64-1.13,3.49-1.27,5.05-2.69c1.27-1.15,2.21-2.73,2.86-4.34
	c3.11-1.19,6.19-2.86,8.92-3.94c5.48-2.17,11.05-4.3,16.09-7.39c2.39-1.46,4.93-3.3,6.11-5.81C159.2,58.18,165.63,54.01,162,47.38z"
	/>
<g>
	<path class="st3" d="M263.64,125.22c-0.57-3.89,0.28-7.95-0.25-11.91c-0.68-5.05-2.68-9.43-5.86-13.4
		c-4.38-5.48-10.18-8.55-16.13-11.81c-1.22-1.45-2.49-2.85-3.81-4.21c-0.06-0.39-0.12-0.82-0.21-1.34c-0.38-2.14-0.72-6.73-1.6-9.74
		c-2.68-9.15-9.85-14.74-19.22-15.8c-7.8-0.88-15.73,0.66-23.51-0.67c-8.86-1.52-16.51-6.58-25.67-7.09
		c-4.5-0.25-9.03,0.66-13.07,2.64c-3.05,1.49-5.55,4.14-8.85,5.06c-4.18,1.17-8.73-0.47-13.02-0.13c-4.81,0.38-9.31,2.06-13.16,4.96
		c-6.45,4.87-10.03,12.38-7.84,19.64c-0.21-0.01-0.43-0.01-0.63,0c-5.42,0.21-10.18,3.74-12.62,8.48c-1.24,2.42-1.94,5.24-1.99,7.96
		c-0.03,1.43,0.05,3.51,0.53,4.87c0.19,0.55,0.28,0.87,0.33,1.03c-2.48,4.21-6.21,7.54-8.24,12.11c-1.17,2.64-2,5.41-1.98,8.34
		c0.02,3,1.68,5.75,1.83,8.55c0.07,1.31-1.48,3.55-2.24,5.46c-1.18,3-1.76,6.08-1.37,9.3c0.41,3.33,1.79,6.31,4.18,8.7
		c0.3,0.3,0.54,0.52,0.75,0.68c-0.03,0.99-0.08,2.25-0.08,2.37c0.21,6.24,3.04,11.1,8.26,13.83c12.28,31.45,42.84,53.74,78.64,53.74
		c40.6,0,74.5-28.67,82.57-66.88c3.56-2.79,4.58-7.02,3.73-11.2c0.33-0.24,1.26-2.78,1.29-2.85c1.05-2.44,1.86-4.85,1.99-7.54
		C266.65,133.42,264.32,129.86,263.64,125.22z"/>
	<path class="st4" d="M181.53,124.17c-1.07-0.04-2.1-0.04-3.13-0.04c-1.04,0.01-2.06,0-3.13,0.04
		c-53.33,2.1-61.21,41.12-61.21,41.12s15.46,45.62,28.37,56.09c7.43,6.02,26.31,15.89,35.97,16.64
		c9.66-0.76,28.54-10.62,35.97-16.64c12.9-10.47,28.37-56.09,28.37-56.09S234.86,126.27,181.53,124.17"/>
	<path class="st0" d="M163.21,194.27c0,0-6.06,8.47-13.54,8.47c-7.48,0-13.54-8.47-13.54-8.47s6.06-7.77,13.54-7.77
		C157.15,186.49,163.21,194.27,163.21,194.27"/>
	<path class="st0" d="M193.59,194.27c0,0,6.06,8.47,13.54,8.47c7.48,0,13.54-8.47,13.54-8.47s-6.06-7.77-13.54-7.77
		C199.65,186.49,193.59,194.27,193.59,194.27"/>
	<path d="M198.83,190.98c0-0.64,0.08-1.27,0.22-1.87c1.94-2.18,4.78-3.56,7.96-3.56c3.36,0,6.35,1.54,8.28,3.94
		c0.09,0.48,0.14,0.98,0.14,1.49c0,4.59-3.72,8.3-8.3,8.3C202.55,199.28,198.83,195.57,198.83,190.98"/>
	<path d="M220.97,194.91c0,0-4.11-6.4-12.53-8c-8.42-1.6-14.85,7.36-14.85,7.36s5.24-9.16,11.2-10.7c1.91-0.49,4.28-0.26,4.28-0.26
		s3.47-1.43,3.99-1.11c0.53,0.32-0.66,1.93-0.66,1.93s3.92-1.58,4.17-1.03c0.25,0.55-1.13,2.48-1.13,2.48s4.87-2.96,5.24-2.18
		c0.37,0.78-2.15,3.41-2.15,3.41s7.97-3.76,8.33-2.3c0.36,1.45-5.54,5.79-5.54,5.79s10.17-4.01,10.42-2.5
		c0.25,1.51-10.86,7.78-10.86,7.78L220.97,194.91z"/>
	<path class="st0" d="M204.61,191.02c0,1.19-0.97,2.16-2.16,2.16c-1.19,0-2.16-0.97-2.16-2.16c0-1.19,0.96-2.15,2.16-2.15
		C203.64,188.87,204.61,189.83,204.61,191.02"/>
	<path d="M135.83,194.91c0,0,4.11-6.4,12.53-8c8.42-1.6,14.85,7.36,14.85,7.36s-5.24-9.16-11.2-10.7c-1.91-0.49-4.28-0.26-4.28-0.26
		s-3.47-1.43-3.99-1.11c-0.53,0.32,0.66,1.93,0.66,1.93s-3.92-1.58-4.17-1.03c-0.25,0.55,1.13,2.48,1.13,2.48s-4.87-2.96-5.24-2.18
		c-0.37,0.78,2.15,3.41,2.15,3.41s-7.97-3.76-8.33-2.3c-0.36,1.45,5.54,5.79,5.54,5.79s-10.17-4.01-10.42-2.5
		c-0.25,1.51,10.86,7.78,10.86,7.78L135.83,194.91z"/>
	<path d="M157.97,190.98c0-0.64-0.08-1.27-0.22-1.87c-1.94-2.18-4.78-3.56-7.96-3.56c-3.36,0-6.35,1.54-8.28,3.94
		c-0.09,0.48-0.14,0.98-0.14,1.49c0,4.59,3.72,8.3,8.3,8.3C154.25,199.28,157.97,195.57,157.97,190.98"/>
	<path class="st0" d="M147.1,191.03c0,1.19-0.97,2.16-2.16,2.16c-1.19,0-2.16-0.96-2.16-2.16c0-1.19,0.97-2.15,2.16-2.15
		C146.13,188.87,147.1,189.84,147.1,191.03"/>
	<path d="M175.12,206.1c0.92-0.55,2-0.87,3.16-0.87c1.16,0,2.25,0.32,3.17,0.87c0.69,0.1,1.34,0.24,1.93,0.4
		c-1.07-1.62-2.95-2.71-5.1-2.71c-2.16,0-4.03,1.09-5.1,2.71C173.78,206.34,174.43,206.21,175.12,206.1"/>
	<path d="M137.38,207.22c-0.18-0.02-4.39-1.31-7.91-5.01c-4.73-4.97-4.46-8.66-4.72-9.74l1.03,2.01c0.01,0.05,1.25,3.87,4.56,6.75
		c3.5,3.05,7.18,4.55,7.21,4.55L137.38,207.22z"/>
	<path d="M219.39,207.22c0.18-0.02,4.39-1.31,7.91-5.01c4.73-4.97,4.46-8.66,4.71-9.74l-1.03,2.01c-0.01,0.05-1.25,3.87-4.55,6.75
		c-3.5,3.05-7.18,4.55-7.22,4.55L219.39,207.22z"/>
	<path d="M173.07,206.4c0,4.74-7.04,12.05-16.4,12.05s-16.4-7.31-16.41-11.94c0.32-0.71,4.98-1.76,16.5-1.76
		c8.94,0,14.95,0.77,16.31,1.39V206.4z M174.47,205.31c-0.82-2.37-17.32-2.44-19.2-2.44c-12.43,0-18.9,0.99-19.25,3.04
		c0,6.48,8.84,14.4,19.15,14.4c10.18,0,18.91-7.71,19.14-14.14C174.59,205.82,174.52,205.46,174.47,205.31"/>
	<path d="M183.69,206.13c1.36-0.61,7.37-1.39,16.31-1.39c11.52,0,16.18,1.05,16.5,1.76c-0.01,4.63-7.05,11.94-16.41,11.94
		c-9.36,0-16.4-7.31-16.4-12.05V206.13z M182.46,206.18c0.23,6.43,8.97,14.14,19.14,14.14c10.31,0,19.15-7.92,19.15-14.4
		c-0.34-2.05-6.82-3.04-19.25-3.04c-1.88,0-18.38,0.07-19.2,2.44C182.24,205.47,182.18,205.82,182.46,206.18"/>
	<path class="st3" d="M267.22,155.82c-1.57-2.05-4.14-2.93-6.68-2.82c-1.33,0.06-2.64-0.38-3.68-1.21
		c-9.85-7.85-23.82-23.69-30.11-53.03c-0.46-2.15-2.1-3.87-4.24-4.37c-31.07-7.23-73.1,8.4-97.82,20.24
		c-18.46,8.85-18.71,32.38-24.33,48.08c-0.63,1.77-2.58,3.03-3.76,4.5c-2.58,3.2-6.45,4.78-9.5,8.31c-1.06,1.22-0.04,2.61,1.55,2.91
		c2.12,0.4,4.75,1.14,11.36-1c2.6-0.84,3.74-1.6,6.25-2.61c0.68-0.27,1.3-0.61,1.9-0.99c0.32-0.2,0.65-0.38,1-0.51
		c2.78-1.1,5.26-2.44,7.48-3.92c0.44-0.29,0.92-0.52,1.42-0.68c0.51-0.16,1.02-0.34,1.52-0.54c2.72-1.11,7.37-4.36,10.71-8.17
		c1.78-2.04,4.74-2.45,7.12-1.16c0.04,0.02,0.08,0.05,0.13,0.07c3.02,1.61,6.69,1.88,9.6,3.44c-0.79-0.43,1.44,1.6,1.68,1.87
		c0.97,1.11,1.84,2.28,2.95,3.27c3.4,3.03,7.48,4.56,12,4.85c2.42,0.16,4.75-0.35,7.12-0.58c0.85-0.08,1.71,0.03,2.51,0.33
		c1.96,0.72,3.97,1.41,6.03,2.09c0.18,0.06,0.36,0.13,0.53,0.21c6.88,3.16,14.06,5.25,21.63,5.91c2.9,0.26,7.8,0.38,10.94-1.06
		c0.54-0.25,1.13-0.36,1.72-0.41c0.58-0.05,1.17-0.1,1.74-0.16c0.94-0.1,1.89,0.04,2.76,0.42l0.01,0.01
		c7.24,3.2,14.78,4.44,22.07,0.45c2.75-1.5,5.49-3.75,7.53-6.44c0.75-0.99,1.78-1.75,2.98-2.08c0.72-0.2,1.43-0.44,2.11-0.74
		c2.99-1.32,4.66-4.22,7.49-5.63c2.48-1.24,5.06-0.96,6.63-3.63C268.6,159.26,268.44,157.4,267.22,155.82z"/>
</g>
<g>
	<g>
		<path class="st5" d="M104.77,41.61c-1.48,4.83-3.2,7.09-6.11,9.65c3.03-3.31,5.12-8.07,4.77-14.61
			c-0.35-6.54-3.63-12.98-4.42-16.2c0.51,5.71-3.62,11.7-3.62,11.7c2.2-5.56,3.76-10.53,1.56-16.55
			c-3.17-8.68-10.26-7.12-10.26-7.12l0,0.02l0-0.02c0,0-7.09,1.56-6.35,10.77c0.52,6.39,4.01,10.25,8.32,14.37
			c0,0-6.25-3.7-8.17-9.1c0.63,3.26,0.34,10.48,2.75,16.57c2.41,6.09,6.3,9.53,10.43,11.27c-3.71-1.1-6.22-2.44-9.58-6.21
			c1.81,5.54,5.87,9.78,11.19,10.43c0,0-3.32,0.45-6.2-1.55c1.43,2.65,4.63,6.08,8.98,5.4l0-0.01l0,0.01
			c4.23-1.21,5.7-5.66,5.9-8.67c-1.79,3.02-4.99,4.01-4.99,4.01C103.52,52.95,105.43,47.39,104.77,41.61z"/>
	</g>
	<g>
		<path class="st6" d="M96.94,15.6c-3.17-8.68-10.26-7.12-10.26-7.12l0,0.02l0-0.02c0,0-7.09,1.56-6.35,10.77
			c0.52,6.39,4.01,10.25,8.32,14.37c4.47,3.02,4.76,2.92,4.76,2.92s1.1-2.96,1.97-4.41C97.58,26.58,99.14,21.62,96.94,15.6z"/>
	</g>
	<g>
		<path class="st7" d="M87.42,12.34c0,0,0.26,0.86,0.72,2.37c0.22,0.76,0.49,1.67,0.8,2.73c0.31,1.05,0.65,2.25,1.02,3.54
			c0.37,1.3,0.77,2.71,1.17,4.2c0.41,1.49,0.85,3.07,1.27,4.7c0.42,1.63,0.86,3.32,1.31,5.04c0.45,1.72,0.86,3.47,1.3,5.22
			c0.42,1.75,0.86,3.5,1.25,5.23c0.2,0.87,0.39,1.72,0.58,2.57c0.19,0.85,0.37,1.69,0.55,2.51c0.36,1.65,0.7,3.25,1,4.77
			c0.3,1.52,0.54,2.97,0.74,4.31c0.18,1.35,0.34,2.58,0.44,3.68c0.09,1.1,0.15,2.06,0.18,2.86c0.02,0.8,0.02,1.42,0.01,1.85
			c-0.01,0.43-0.02,0.65-0.02,0.65c0,0.08-0.07,0.14-0.15,0.14c-0.06,0-0.11-0.04-0.13-0.1l0-0.01c0,0-0.07-0.22-0.18-0.63
			c-0.11-0.41-0.27-1.01-0.45-1.78c-0.19-0.76-0.44-1.69-0.68-2.76c-0.25-1.06-0.55-2.26-0.83-3.58c-0.3-1.31-0.61-2.74-0.92-4.25
			c-0.32-1.51-0.62-3.11-0.98-4.75c-0.17-0.82-0.35-1.66-0.53-2.51c-0.18-0.85-0.37-1.7-0.56-2.57c-0.37-1.73-0.75-3.49-1.13-5.24
			c-0.77-3.51-1.55-7.03-2.27-10.32c-0.36-1.65-0.71-3.24-1.04-4.75c-0.16-0.75-0.33-1.49-0.48-2.2c-0.15-0.71-0.3-1.4-0.44-2.06
			c-0.28-1.32-0.54-2.53-0.76-3.61c-0.22-1.08-0.42-2.01-0.58-2.78c-0.31-1.55-0.48-2.43-0.48-2.43c-0.02-0.08,0.03-0.15,0.11-0.17
			C87.33,12.23,87.4,12.27,87.42,12.34z"/>
	</g>
</g>
<g>
	<g>
		<path class="st8" d="M97.57,87.64c-0.07-1.23-0.23-4.02-2.26-6.34c-2.56-2.93-7.39-4.31-9.83-2.52c-0.07,0.05-1.57,1.18-1.47,2.6
			c0.09,1.36,1.55,1.63,2.54,3.51c0.78-0.21,1.78-0.28,2.68,0.31c1.37,0.89,1.91,2.86,1.22,4.18c-0.55,1.04-1.7,1.35-2.57,1.59
			c-1,0.27-3.39,0.66-4.54-0.28c-1.74,0.84-2.31,1.53-2.54,2.16c-0.51,1.36,0.66,3.01,1.84,3.97c2.42,1.96,5.99,2.24,8.84,1.13
			c2.9-1.13,4.32-3.41,4.71-4.06C97.74,91.31,97.64,88.8,97.57,87.64z"/>
	</g>
	<path class="st9" d="M111.66,48.55c0,0-6.64-4.7-14.15,4.63c-5.17,6.42-7.65,4.84-12.23,9.32c-3.42,3.36-10.38,13.12,0.28,16.74
		s6.45,0.34,10.58,5.27c3.21,3.84,4.34,4.95,8.14,5.53c3.8,0.58,7.64-4.58,9.07-10c1.43-5.41,0.94-9.38,1.94-15.34
		c0.77-4.55,2.57-5.23,2.15-9.46C117.02,51,111.66,48.55,111.66,48.55z"/>
	<path class="st7" d="M87.88,90.98c0.87-0.24,2.02-0.55,2.57-1.59c0.69-1.32,0.15-3.29-1.22-4.18c-0.91-0.59-1.9-0.52-2.68-0.31
		c0.05,0.09,0.09,0.17,0.14,0.27c0.2,0.42,1.08,2.34,0.29,3.65c-0.41,0.68-0.94,0.67-3.15,1.66c-0.17,0.08-0.33,0.15-0.49,0.23
		C84.49,91.64,86.88,91.25,87.88,90.98z"/>
</g>
<g>
	<g id="layer5_2_" transform="translate(-2.97702,-8.3648884)">
		<g id="g2858_2_" transform="translate(6.5355338,10.485281)">
			<path id="path2841-2_2_" d="M131.56,263.99c-14.56,0.76-12.56,45.45-12.56,45.45s-0.62,4.93-2.7,7.77
				c-2.08,2.84-5.57,4.87-6.45,3.98l5.42-23.88h-8c0,0-4.26,23.9-8.93,24.79c-4.67,0.88-3.34-4-3.34-9c0-7.36,1-15.44-4.33-16.1
				c-5.33-0.67-11.01,8.43-11.01,8.43s0.67-5.34-4.66-8c-5.33-2.67-18.66,4-18.66,4c1.24-5.63-1.01-12.73-7.34-12.66
				c-5.59,0.34-9.53,4.23-13.32,7.32l5.34,5.34c0,0,5.31-5.99,7.98-2.66C51.65,302.12,38.72,364,38.72,364h8l7.6-31.89
				c0,0,17.33,1.34,20.66-2.66c3.33-4,6-14.66,6-14.66s7.34-8.01,6.67-5.35c-0.67,2.67-1.34,20.66,1.99,21.33c3.33,0.67,10,0,10,0
				l-8.08,25.92l-9.24,0.74l-1.34,6.68h15.34l10.77-33.51c0,0,4.83-0.69,7.57-2.19c2.74-1.49,4.87-4.14,6.85-6.1
				c0.43,3.34,0.57,5.97,4.66,8.08c5.3,2.74,12.66,0.77,15.82-1.65c7.67,5,14-0.99,14-0.99s7.32,6.67,11.32,0
				c11,7.33,16.99-0.31,16.99-0.31s0.52,3.6,9.77,4.23c9.26,0.63,13.67-8.35,13.67-8.35c1.81,2.3,2.73,7.19,7.2,7.67
				c4.46,0.48,8.93-2.38,12.31-5.92c2.52,4.75,5.09,5.12,8.31,6.27c3.22,1.15,9.44-2.28,12.06-4.08c3.35,6.03,13.21,5.58,16.11,1.09
				c0.04,0.32,0.78,0.99,4.68,2.29c1.55-1.13,1.98-2.99,3.84-5.51c-1.67-0.67-5.03-2.33-5.03-2.33c-0.99-5.55-3.98-10.7-7.16-15.82
				l3.34-7.32l-6.66-2c-4.11,8.91-7.57,16.81-10.33,22.07c-2.77,5.25-12.99,5.46-14.99,0.91c13.39-10.02,14.88-25.45,3.32-23.98
				c-10.7,1.36-9.73,20.15-9.73,20.15s-3.93,3.82-9.26,4.49c-5.33,0.67,1.69-23.76,1.69-23.76h-7.32c0,0-4.41,17.4-9.69,23.1
				c-4.76,5.14-6.82,2.07-8.13,1.46c-1.35-0.63,15.02-58.08,15.02-58.08l-9.35,0.08l-9.77,33.91c-5.33-0.11-11.33-0.88-16.66,3.88
				c-7.17,6.73-4.4,21.82-12.68,19.1c-2.67,0.67,4.52-20.3,4.52-20.3c-0.49-3.41-11.04-4.97-16.29-1.73
				c-10.42,6.42-9.47,19.15-11.43,23.8c-4.62,2.14-5.9,0.72-7.72-3.96c7.67-8.97,19.65-54.15,4.32-54.81
				C132.02,263.98,131.79,263.98,131.56,263.99z M132.12,274.77c0.07-0.01,0.13-0.01,0.21,0c3.19,0.26-6.34,31-6.34,31
				C125,305.45,127.66,275.4,132.12,274.77z M232.99,304.43c1.52-1.28,2.63-1.01,2.87-0.13c0.24,0.88-5.74,8.75-5.74,8.75
				C230.15,310.08,231.47,305.7,232.99,304.43z M183.33,306.19c1.91-0.05,2.66-0.33,3.6,0.39L183.9,320
				c-0.67,2.03-9.7,3.67-10.7-0.97c-0.94-4.35,1.62-7.75,3.47-10.08C178.17,307.07,180.88,306.26,183.33,306.19z M153.61,306.57
				c0.52-0.01,1.06,0.08,1.61,0.27l-3.4,12.22c-1.67,2.33-6.12,3.34-6.55-0.06C144.72,314.56,148.6,306.67,153.61,306.57z
				 M70.23,306.58c0.88,0.02,1.67,0.23,2.29,0.76c3.3,2.83,0.39,12.65-2.97,14.89c-4.04,2.7-12.33,0.8-12.33,0.8l3.3-12.73
				C60.9,310.31,66.4,306.5,70.23,306.58z M257.31,312.91c0,0,4.02,8.57,3.3,9.9c-1.8,3.32-8.13-0.05-7.77-1.18L257.31,312.91z"/>
		</g>
	</g>
	<g id="layer1_2_" transform="translate(-264.10653,-135.75333)">
		<g id="g2858-3_2_" transform="translate(263.60653,135.26612)">
			<path id="path2841-2-0_2_" class="st9" d="M132.94,264.88c-14.56,0.76-12.56,45.45-12.56,45.45s-0.62,4.93-2.7,7.77
				c-2.08,2.84-5.57,4.87-6.46,3.98l5.42-23.88h-8c0,0-4.26,23.9-8.93,24.79c-4.67,0.88-3.34-3.99-3.34-8.99
				c0-7.36,1-15.44-4.33-16.1c-5.33-0.67-11.01,8.43-11.01,8.43s0.67-5.33-4.66-8c-5.33-2.67-18.66,4-18.66,4
				c1.24-5.63-1.01-12.73-7.34-12.66c-5.59,0.34-9.53,4.23-13.32,7.32l5.34,5.34c0,0,5.31-5.99,7.98-2.66
				c2.67,3.33-10.26,65.22-10.26,65.22h8l7.6-31.89c0,0,17.33,1.34,20.66-2.66c3.33-4,6-14.66,6-14.66s7.34-8.01,6.67-5.35
				c-0.67,2.67-1.34,20.66,1.99,21.33c3.33,0.67,10,0,10,0l-8.08,25.92l-9.24,0.74L82.37,365h15.34l10.76-33.51
				c0,0,4.83-0.69,7.57-2.19c2.74-1.49,4.87-4.14,6.85-6.1c0.43,3.34,0.57,5.97,4.66,8.08c5.3,2.75,12.66,0.77,15.82-1.65
				c7.67,5,14-0.99,14-0.99s7.32,6.67,11.32,0c11,7.33,16.99-0.31,16.99-0.31s0.52,3.6,9.77,4.23c9.26,0.63,13.67-8.35,13.67-8.35
				c1.81,2.3,2.73,7.19,7.2,7.67c4.47,0.48,8.93-2.38,12.31-5.92c2.52,4.75,5.09,5.12,8.31,6.27c3.22,1.15,9.44-2.28,12.06-4.08
				c3.35,6.03,13.21,5.58,16.11,1.09c0.04,0.32,0.78,0.99,4.68,2.29c1.55-1.13,1.99-2.99,3.84-5.51c-1.67-0.67-5.03-2.33-5.03-2.33
				c-0.99-5.55-3.98-10.7-7.16-15.82l3.34-7.32l-6.66-2c-4.11,8.91-7.57,16.81-10.33,22.07c-2.76,5.25-12.99,5.46-14.99,0.91
				c13.39-10.02,14.88-25.45,3.32-23.98c-10.7,1.36-9.73,20.15-9.73,20.15s-3.93,3.82-9.26,4.49c-5.33,0.67,1.69-23.76,1.69-23.76
				h-7.32c0,0-4.41,17.4-9.69,23.1c-4.76,5.14-6.82,2.07-8.12,1.46c-1.35-0.63,15.02-58.08,15.02-58.08l-9.35,0.08l-9.77,33.91
				c-5.33-0.11-11.33-0.87-16.66,3.88c-7.17,6.73-4.4,21.82-12.68,19.1c-2.67,0.67,4.52-20.3,4.52-20.3
				c-0.49-3.41-11.04-4.97-16.29-1.73c-10.42,6.42-9.47,19.15-11.43,23.8c-4.62,2.13-5.9,0.72-7.72-3.96
				c7.67-8.97,19.65-54.15,4.32-54.81C133.4,264.87,133.17,264.87,132.94,264.88z M133.5,275.66c0.07-0.01,0.13-0.01,0.21,0
				c3.19,0.26-6.34,31-6.34,31C126.38,306.33,129.04,276.29,133.5,275.66z M234.37,305.31c1.52-1.28,2.63-1.01,2.87-0.13
				c0.24,0.88-5.74,8.75-5.74,8.75C231.53,310.97,232.85,306.59,234.37,305.31z M184.71,307.08c1.91-0.05,2.66-0.33,3.6,0.39
				l-3.03,13.42c-0.67,2.03-9.7,3.67-10.7-0.97c-0.94-4.35,1.62-7.75,3.48-10.08C179.55,307.96,182.26,307.15,184.71,307.08z
				 M154.99,307.46c0.52-0.01,1.06,0.08,1.61,0.27l-3.4,12.22c-1.67,2.33-6.12,3.34-6.55-0.07
				C146.1,315.45,149.98,307.56,154.99,307.46z M71.61,307.47c0.88,0.02,1.67,0.23,2.29,0.76c3.3,2.83,0.39,12.65-2.97,14.89
				c-4.04,2.7-12.33,0.8-12.33,0.8l3.3-12.72C62.28,311.2,67.78,307.38,71.61,307.47z M258.69,313.8c0,0,4.02,8.57,3.3,9.9
				c-1.8,3.32-8.13-0.05-7.77-1.18L258.69,313.8z"/>
		</g>
	</g>
</g>
<path d="M229.82,270.49c-0.15-1.56-2.13-2.47-2.13-2.47s-2.45-1.73-5.23,1.71c-1.91,2.37-2.83,1.79-4.51,3.44
	c-1.25,1.22-3.76,4.74-0.05,6.12c-0.17,0.16-0.44,0.48-0.42,0.85c0.03,0.5,0.57,0.6,0.94,1.3c0.02,0.03,0.03,0.06,0.05,0.1
	c0.07,0.16,0.4,0.86,0.11,1.35c-0.15,0.25-0.35,0.25-1.16,0.61c-0.06,0.03-0.12,0.06-0.18,0.08c-0.64,0.31-0.85,0.57-0.94,0.8
	c-0.19,0.5,0.24,1.11,0.68,1.46c0.89,0.73,2.21,0.83,3.27,0.42c1.07-0.42,1.59-1.26,1.74-1.5c0.57-0.95,0.53-1.88,0.51-2.31
	c-0.01-0.15-0.02-0.36-0.06-0.61c0.86,0.98,1.34,1.31,2.54,1.49c1.4,0.21,2.82-1.69,3.35-3.69c0.53-2,0.35-3.46,0.72-5.67
	C229.31,272.3,229.98,272.05,229.82,270.49z"/>
<path class="st9" d="M227.43,267.17c-0.15-1.56-2.13-2.47-2.13-2.47s-2.45-1.73-5.23,1.71c-1.91,2.37-2.83,1.79-4.51,3.44
	c-1.25,1.22-3.76,4.74-0.05,6.12c-0.17,0.16-0.44,0.48-0.42,0.85c0.03,0.5,0.57,0.6,0.94,1.3c0.02,0.03,0.03,0.06,0.05,0.1
	c0.07,0.16,0.4,0.86,0.11,1.35c-0.15,0.25-0.35,0.25-1.16,0.61c-0.06,0.03-0.12,0.06-0.18,0.08c-0.64,0.31-0.85,0.57-0.94,0.8
	c-0.19,0.5,0.24,1.11,0.68,1.46c0.89,0.73,2.21,0.83,3.27,0.42c1.07-0.42,1.59-1.26,1.74-1.5c0.57-0.95,0.53-1.88,0.51-2.31
	c-0.01-0.15-0.02-0.36-0.06-0.61c0.86,0.98,1.34,1.31,2.54,1.49c1.4,0.21,2.82-1.69,3.35-3.69c0.53-2,0.35-3.46,0.72-5.67
	C226.92,268.98,227.59,268.73,227.43,267.17z"/>
<g>
	<path d="M124.4,351.59l0.57-1.01c0.1-0.16,0.33-0.13,0.41-0.07c0.05,0.02,0.92,0.67,1.72,0.67c0.49,0,0.84-0.3,0.84-0.73
		c0-0.51-0.43-0.9-1.25-1.23c-1.04-0.41-2.36-1.23-2.36-2.68c0-1.2,0.94-2.42,2.81-2.42c1.26,0,2.23,0.64,2.6,0.91
		c0.15,0.09,0.12,0.3,0.07,0.39l-0.62,0.94c-0.09,0.13-0.3,0.24-0.41,0.16c-0.11-0.06-1-0.73-1.74-0.73c-0.44,0-0.76,0.29-0.76,0.62
		c0,0.45,0.36,0.79,1.32,1.18c0.95,0.38,2.45,1.12,2.45,2.77c0,1.25-1.08,2.51-2.87,2.51c-1.58,0-2.45-0.66-2.73-0.94
		C124.34,351.81,124.3,351.76,124.4,351.59z"/>
	<path d="M132.76,344.47c0-0.12,0.1-0.23,0.23-0.23h5.03c0.13,0,0.23,0.11,0.23,0.23v1.32c0,0.12-0.1,0.23-0.23,0.23h-3.36v1.51
		h2.77c0.12,0,0.23,0.11,0.23,0.23v1.32c0,0.13-0.11,0.23-0.23,0.23h-2.77v1.64h3.36c0.13,0,0.23,0.11,0.23,0.23v1.32
		c0,0.12-0.1,0.23-0.23,0.23h-5.03c-0.13,0-0.23-0.11-0.23-0.23V344.47z"/>
	<path d="M141.09,344.47c0-0.12,0.1-0.23,0.23-0.23h3.63c1.46,0,2.65,1.18,2.65,2.62c0,1.12-0.74,2.02-1.8,2.44l1.66,3.09
		c0.09,0.16,0,0.35-0.21,0.35h-1.62c-0.1,0-0.17-0.06-0.19-0.11l-1.62-3.22H143v3.1c0,0.12-0.11,0.23-0.23,0.23h-1.44
		c-0.13,0-0.23-0.11-0.23-0.23V344.47z M144.8,347.87c0.5,0,0.92-0.46,0.92-0.97c0-0.51-0.43-0.92-0.92-0.92H143v1.89H144.8z"/>
	<path d="M154.21,344.13c1.02,0,2.14,0.42,2.96,1.14c0.11,0.09,0.12,0.23,0.02,0.33l-0.96,1.02c-0.1,0.09-0.23,0.09-0.33,0.01
		c-0.46-0.43-1-0.58-1.59-0.58c-1.32,0-2.39,1.12-2.39,2.45c0,1.32,1.08,2.42,2.41,2.42c0.35,0,0.72-0.05,1.08-0.19v-0.7h-0.77
		c-0.13,0-0.23-0.1-0.23-0.22v-1.2c0-0.13,0.1-0.23,0.23-0.23h2.44c0.12,0,0.22,0.11,0.22,0.23l0.01,3.27c0,0.06-0.05,0.16-0.1,0.19
		c0,0-1.25,0.79-3.01,0.79c-2.42,0-4.36-1.92-4.36-4.35C149.85,346.07,151.79,344.13,154.21,344.13z"/>
	<path d="M160.2,344.47c0-0.12,0.11-0.23,0.23-0.23h1.46c0.12,0,0.23,0.11,0.23,0.23v8.04c0,0.12-0.11,0.23-0.23,0.23h-1.46
		c-0.12,0-0.23-0.11-0.23-0.23V344.47z"/>
	<path d="M165.43,344.47c0-0.12,0.1-0.23,0.23-0.23h2.93c1.49,0,2.72,1.21,2.72,2.68c0,1.51-1.23,2.73-2.71,2.73h-1.27v2.85
		c0,0.12-0.11,0.23-0.23,0.23h-1.43c-0.13,0-0.23-0.11-0.23-0.23V344.47z M168.47,347.88c0.52,0,0.96-0.41,0.96-0.96
		c0-0.51-0.44-0.9-0.96-0.9h-1.15v1.86H168.47z"/>
	<path d="M173.76,344.47c0-0.12,0.1-0.23,0.23-0.23h5.03c0.13,0,0.23,0.11,0.23,0.23v1.32c0,0.12-0.1,0.23-0.23,0.23h-3.36v1.51
		h2.77c0.12,0,0.23,0.11,0.23,0.23v1.32c0,0.13-0.11,0.23-0.23,0.23h-2.77v1.64h3.36c0.13,0,0.23,0.11,0.23,0.23v1.32
		c0,0.12-0.1,0.23-0.23,0.23h-5.03c-0.13,0-0.23-0.11-0.23-0.23V344.47z"/>
</g>
</svg>
