<?xml version="1.0" encoding="UTF-8" standalone="no"?>
<!-- Creator: CorelDRAW 2018 (64 Bit Versão de avaliação) -->

<svg
   xmlns:dc="http://purl.org/dc/elements/1.1/"
   xmlns:cc="http://creativecommons.org/ns#"
   xmlns:rdf="http://www.w3.org/1999/02/22-rdf-syntax-ns#"
   xmlns:svg="http://www.w3.org/2000/svg"
   xmlns="http://www.w3.org/2000/svg"
   xmlns:xlink="http://www.w3.org/1999/xlink"
   xmlns:sodipodi="http://sodipodi.sourceforge.net/DTD/sodipodi-0.dtd"
   xmlns:inkscape="http://www.inkscape.org/namespaces/inkscape"
   xml:space="preserve"
   width="75.073799mm"
   height="90.540207mm"
   version="1.1"
   style="clip-rule:evenodd;fill-rule:evenodd;image-rendering:optimizeQuality;shape-rendering:geometricPrecision;text-rendering:geometricPrecision"
   viewBox="0 0 7507.3711 9054.01"
   id="svg120"
   sodipodi:docname="logo-pyladies-slz-1.svg"
   inkscape:version="0.92.5 (2060ec1f9f, 2020-04-08)"><metadata
   id="metadata124"><rdf:RDF><cc:Work
       rdf:about=""><dc:format>image/svg+xml</dc:format><dc:type
         rdf:resource="http://purl.org/dc/dcmitype/StillImage" /><dc:title></dc:title></cc:Work></rdf:RDF></metadata><sodipodi:namedview
   pagecolor="#ffffff"
   bordercolor="#666666"
   borderopacity="1"
   objecttolerance="10"
   gridtolerance="10"
   guidetolerance="10"
   inkscape:pageopacity="0"
   inkscape:pageshadow="2"
   inkscape:window-width="1920"
   inkscape:window-height="948"
   id="namedview122"
   showgrid="false"
   fit-margin-top="0"
   fit-margin-left="0"
   fit-margin-right="0"
   fit-margin-bottom="0"
   inkscape:zoom="1.415999"
   inkscape:cx="149.44678"
   inkscape:cy="240.14764"
   inkscape:window-x="0"
   inkscape:window-y="27"
   inkscape:window-maximized="1"
   inkscape:current-layer="svg120" />
 <defs
   id="defs7">
  <style
   type="text/css"
   id="style2">
   <![CDATA[
    .fil0 {fill:#FEFEFE}
    .fil5 {fill:#FEFEFE;fill-rule:nonzero}
    .fil2 {fill:#4B4B4D;fill-rule:nonzero}
    .fil7 {fill:#EE3D64;fill-rule:nonzero}
    .fil4 {fill:#EE3F46;fill-rule:nonzero}
    .fil6 {fill:#EE396A;fill-rule:nonzero}
    .fil3 {fill:#EE3A60;fill-rule:nonzero}
    .fil8 {fill:#F7F5F5;fill-rule:nonzero}
    .fil9 {fill:#F6F3F5;fill-rule:nonzero}
    .fil11 {fill:#2C2A2C;fill-rule:nonzero}
    .fil1 {fill:#F9023C;fill-rule:nonzero}
    .fil10 {fill:#F9023C;fill-rule:nonzero}
   ]]>
  </style>
    <clipPath
   id="id0">
     <path
   d="m 5502.82,4746.02 h 6974.72 L 11974.88,3515.58 H 5000.16 Z"
   id="path4"
   inkscape:connector-curvature="0" />
    </clipPath>
 </defs>
 <g
   id="Camada_x0020_1"
   transform="translate(-5000.1602,-3515.5801)">
  <metadata
   id="CorelCorpID_0Corel-Layer" />
  <g
   id="_2253610404160">
   <g
   clip-path="url(#id0)"
   id="g12">
    <image
   sodipodi:absref="/home/cecivieira/Downloads/logo-pyladies-slz-1_Images\logo-pyladies-slz-1_ImgID1.png"
   xlink:href="logo-pyladies-slz-1_Images\logo-pyladies-slz-1_ImgID1.png"
   id="image10"
   height="1230.4399"
   width="7477.3799"
   y="3515.5801"
   x="5000.1602" />
   </g>
  </g>
  <g
   id="_2253610403424">
   <path
   class="fil0"
   d="m 7282.5,10239.79 c 49.17,27.02 65.16,72.18 64.95,128.4 l -0.15,41.39 -39.39,-12.72 c -74.75,-24.16 -118.75,-71.98 -162.5,-133.48 -183.59,-146.12 -392.25,-260.44 -556.65,-430.28 -23.45,-24.22 -56.66,-39.84 -88.97,-48.11 -281.1,-71.97 -457.94,-260.85 -623.79,-483.55 -45.39,-60.93 -99.76,-112.91 -143.25,-176.46 -55.85,-81.6 -85.01,-166.53 -83.24,-266.18 1.31,-73.51 24.93,-142.1 38.22,-213.56 23.6,-126.87 -9.49,-228.12 -88.72,-328.71 -178.36,-226.44 -161.11,-476.54 8.32,-702.77 94.49,-126.17 133.11,-259.55 100.69,-415.18 -63.62,-305.33 87.71,-531.6 300.15,-732.56 111.01,-105.01 186.42,-235.62 198.69,-390.34 26.84,-338.39 278.82,-536.79 596.82,-601.59 59.81,-12.19 127.74,-20.3 179.4,-55.12 56.58,-42.86 80.9,-122.42 126.33,-177.74 169.61,-258.05 434.53,-357.13 736.53,-310.39 209.54,32.43 405.02,-20.96 591.14,-114.58 247.31,-124.38 491.97,-133.81 746.68,-24.3 196.53,84.49 406.76,115.54 617.84,74.03 358.61,-70.53 656.06,27.03 849.37,349.19 16,26.66 41.84,35.75 72.17,32.58 157.82,-16.47 307.25,32.11 428.73,133.11 96.41,80.16 178.77,198.74 206.25,322.28 33.17,149.17 121.06,243.17 256.61,309.18 272.15,132.54 433.34,348.21 413.63,657.7 -5.55,87.09 23.91,135.34 93.29,186.63 290.74,214.95 380.17,473.76 184.49,792.77 -58.3,95.04 -47.25,173.15 26.55,255.37 86.07,95.91 136.32,209.8 144.91,338.56 1.69,25.31 7.39,50.59 13.04,75.27 22.87,100.07 34.27,178.11 -44.95,260.02 -85.51,88.42 -184.42,160.74 -301.33,201.35 -105.72,36.72 -148.48,102.99 -179.29,205.61 -35.44,118.06 -70.93,235.64 -123.54,347.5 -73.18,155.61 -207.37,252.07 -345.98,346.42 -55.81,36.39 -85.2,111.17 -137.55,157.81 -103.46,133.73 -257.91,202.33 -393.02,296.87 -59.58,41.68 -116.4,87.29 -175.09,130.22 -67.28,49.2 -135.8,93.77 -210.32,131.38 l -102.25,51.6 63.45,-95.35 c 41.56,-62.46 91.18,-117.19 139.78,-173.98 41.2,-48.15 83.6,-100.04 109.3,-158.44 1.53,-3.48 3,-6.98 4.4,-10.49 -110.96,91.47 -226.48,170.77 -371.21,207.72 -356.57,91.02 -702.2,110.06 -996.54,-147.38 -107.02,-93.61 -193.68,-204.34 -256.42,-331.93 -28.69,-58.35 -73.97,-99.26 -137.06,-117.66 -163.17,-36.83 -261.66,-5.68 -345.93,141.9 -163.61,286.49 -384.23,478.87 -726.39,501.15 -288.23,18.76 -560.27,-36.35 -795.82,-196.61 44.57,54.21 87.76,109.39 117.62,173.45 z M 6994.57,8471.32 c -1.98,3.96 -4.17,7.85 -6.57,11.66 -25.15,39.92 -69.26,62.24 -91.71,98.09 -63.86,101.96 -55.89,224.16 -74.99,338.55 0.79,10.88 1.85,21.74 3.24,32.57 3.27,19.65 5.34,39.01 4.98,58.21 122.81,-23.43 248.11,-21.95 373.14,-21.06 348.53,2.48 698.52,15.07 1037.96,101.55 123.4,31.44 245.01,69.18 361.75,120.44 218.9,96.13 443.45,86.45 665.62,6.69 57.93,-20.8 113.97,-44.25 170.9,-64.86 -189.17,-38.17 -359.85,-123.59 -534.53,-211.8 -67.49,-34.08 -127.49,-58.41 -204.79,-51.42 -224.21,20.27 -429.51,-41.93 -620.14,-156.99 -24.42,-14.74 -50.84,-24.52 -66.57,-50.37 -71.54,-117.59 -196.04,-136.67 -322.58,-149 -148.18,-14.44 -262.83,-96.06 -361.48,-202.06 -35.02,-37.63 -70.73,-74.73 -109.06,-109.04 -6.5,-5.81 -37.27,-32.94 -46.51,-32.51 -8.34,2.88 -26.41,37.47 -30.24,44.92 -44.64,86.8 -51.94,169.27 -139.5,231.29 l -1.56,1.1 -1.68,0.9 c -1.91,1.02 -3.8,2.07 -5.68,3.14 z"
   id="path15"
   inkscape:connector-curvature="0"
   style="fill:#fefefe" />
  </g>
  <g
   id="_2253610380800">
   <path
   class="fil1"
   d="m 11335.83,9816.56 c -99.63,130.32 -255.26,199.86 -388.19,292.87 -117.44,82.18 -223.61,179.6 -381.69,259.38 106.78,-160.47 264.2,-265.13 278.59,-441.86 -34.6,-17.34 0.45,-28.17 6.8,-36.98 74.14,-102.66 171.05,-188.23 260.05,-279.27 69.44,-71.06 95.89,-150.22 97.76,-240.26 1.11,-53.53 0.04,-107.7 13.69,-159.4 15.97,-60.5 -7.73,-95.66 -67.63,-116.19 -14.78,-84.19 72.17,-128.68 95.93,-201.28 -62.4,1.36 -110.68,27.82 -161.31,51.94 -121.26,57.76 -246.26,105.05 -387.69,100.97 -47.06,-1.35 -95.64,-1.26 -139.14,21.56 -241.75,25.66 -484.96,35.8 -727.08,58.3 -84.23,1.39 -167.07,21.32 -251.7,15.57 -246.89,-14.5 -457.05,-121.91 -666.23,-227.54 -71.55,-36.13 -136.62,-62.19 -221.14,-54.55 -220.76,19.96 -419.14,-42.52 -601.79,-152.76 -20.03,-12.09 -45.31,-22.04 -56.37,-40.2 -76.24,-125.34 -203.3,-149.54 -345.48,-163.38 -142.52,-13.9 -251.06,-94.55 -342.27,-192.56 -35.6,-38.25 -71.88,-75.93 -111.03,-110.97 -65.8,-58.92 -85.17,-54.06 -123.81,21.11 -38.89,75.59 -51.21,164.57 -130.09,220.44 -61.99,33.09 -101.94,89.93 -161.42,126.05 -17.04,10.36 -27.17,29.11 -26.76,48.28 2.46,113.63 -17.91,227.07 -3.21,340.79 6,35.77 8.23,71.39 -5.25,106.35 -158.55,22.52 -130.55,125.99 -135.1,231.27 -8.6,198.48 118.7,322.59 252.35,448.37 50.25,50.13 75.32,117.48 133.08,162.52 32.48,39.75 38.54,89.97 62.77,133.03 58.13,71.18 120.23,140.05 156.88,223.84 13.32,21.02 -0.97,27.77 -19.07,24.42 -29.77,-5.53 -49.09,-28.32 -72.67,-44.01 -183,-146.28 -394.09,-261.91 -557.12,-430.34 -25.64,-26.48 -62.21,-45.89 -103.2,-56.38 -280.97,-71.93 -454.27,-267.16 -607.04,-472.31 -82.42,-110.65 -224.2,-215.93 -220.5,-424.04 1.26,-70.31 24.78,-139.08 37.71,-208.57 24.22,-130.25 -6.29,-240.73 -94.69,-352.95 -152.84,-194.04 -169.89,-427.4 8.76,-665.93 102.79,-137.27 139.66,-278.39 106.09,-439.48 -60.25,-289.18 78.33,-502.93 291.33,-704.42 112.92,-106.82 194.87,-243.6 208.06,-409.92 23.98,-302.36 240.66,-506.69 572.71,-574.35 65.19,-13.29 134.28,-21.65 190.89,-60.11 99.66,-28.03 111.52,-109.14 133.15,-184.37 158.26,-241.84 404.31,-345.45 707.55,-298.52 219.77,34.02 422.14,-23.28 609.36,-117.44 239.83,-120.63 474.24,-129.69 721.15,-23.54 201.49,86.63 417.72,118.77 635.62,75.92 335.66,-66.02 626.23,16.15 817.6,335.08 18.66,31.1 52.07,52.23 101.24,47.1 325.87,-34.02 556.73,226.82 602.32,431.88 34.7,155.94 126.54,258.52 272.89,329.8 275.32,134.08 414.94,341.94 396.69,628.59 -5.96,93.42 24.05,152.66 105.49,212.87 291.35,215.4 357.09,458.55 176.69,752.64 -64.51,105.17 -54.17,197.8 29.82,291.38 82.47,91.9 129.19,199.63 137.25,320.37 6.99,104.81 76.71,208.66 -23.48,312.26 -82.66,85.47 -177.53,154.91 -289.51,193.8 -121.63,42.25 -167.35,122.3 -198.33,225.48 -34.8,115.93 -69.45,231.73 -121.94,343.33 -70.08,149.03 -200.32,242.18 -335.14,333.96 -64.25,41.9 -87.37,114.21 -143.2,162.36 z"
   id="path18"
   inkscape:connector-curvature="0"
   style="fill:#f9023c;fill-rule:nonzero" />
   <path
   class="fil2"
   d="m 9841.58,9108.39 c 237.49,-36.54 478.31,-38.41 717.47,-57.64 176.42,-18.31 352.27,-5.5 528.08,8.37 27.55,2.16 53.58,9.41 72.66,29.84 68.8,0.04 108.04,16.08 90.96,94 -15.12,68.85 -9.85,141.34 -15.05,212.13 -5.94,81.16 -25.93,154.53 -92.18,218.04 -104.68,100.33 -200,208.84 -299.13,313.85 -126.53,109.45 -256.98,216.73 -428.83,260.59 -345.12,88.11 -682.45,109.92 -969.15,-140.84 -105.41,-92.2 -188.79,-199.68 -249.19,-322.51 -30.74,-62.51 -81.25,-111.93 -156.7,-133.63 -44.16,-52.52 -93.56,-56.91 -162.27,-33.09 -69.44,24.07 -138.11,34.95 -188.68,96.81 -25.13,30.73 -88.76,54.52 -130.21,-4.01 -4.02,-15.51 -3.51,-31.04 -1.1,-46.64 26.62,-172.81 -22.57,-247.31 -203.03,-303.23 -391.53,-121.36 -792.16,-161.03 -1202.11,-106.36 -110.74,14.77 -220.05,36.74 -241.94,163.83 17.14,96.85 -31.07,200.19 51.12,291.66 41.49,46.16 9.47,86.89 -67.38,106.05 -86.9,-64.86 -146.32,-152.68 -224.42,-224.77 -28.66,-26.44 -18.19,-59.75 -22.74,-88.4 -14.59,-91.73 -20.16,-184.68 -28.29,-277.23 -5.1,-57.9 14.04,-98.96 88.29,-94.43 25.55,1.55 47.24,-4.4 67.71,-17.08 139.75,-37.32 285,-35.13 426.97,-34.12 346.52,2.47 693.52,14.72 1030.71,100.61 122.08,31.12 241.6,68.13 357.06,118.83 226.06,99.27 458.44,89.88 688,7.46 114.76,-41.2 224.48,-94.62 348.19,-112.28 73.79,6.01 141.19,-32.93 215.18,-25.81 z"
   id="path20"
   inkscape:connector-curvature="0"
   style="fill:#4b4b4d;fill-rule:nonzero" />
   <path
   class="fil2"
   d="m 8572.64,9652.75 c 34.01,28 73.53,11.13 91.64,-8.72 55.44,-60.78 124.78,-82.64 205.24,-106.94 96.82,-29.25 120.49,-37.25 170.99,53.5 -186.13,-42.21 -292.48,3.49 -379.68,156.21 -150.06,262.75 -357.89,463.57 -702.09,485.97 -315.9,20.57 -606.89,-49.34 -850.74,-246.3 -35.83,-10.35 -51.18,-45.64 -85.01,-58.42 -62.5,-45.15 -84.63,-115.45 -128.08,-172.45 66.93,-33.58 90.95,-71.82 21.57,-126.44 -35.14,-27.68 -50.54,-59.96 -26.91,-106.08 28.4,-55.38 -33.74,-112.46 -6.16,-170.71 81.48,70.26 198.88,33.2 287.65,81.91 -22.65,-18.36 -44.22,-36.94 -63.36,-57.64 -22.76,-24.59 -45.79,-52.06 -20.61,-83.85 23.2,-29.28 59.51,-26.6 94.18,-17.89 26.48,6.67 51.37,17.45 77.08,26.17 27.16,9.19 60.37,31.88 59.76,-23.07 -0.25,-20.75 14.77,-41.1 38.14,-34.16 102.24,30.42 194.16,-42.97 280.51,-33.84 154.72,16.35 326.4,-2.28 458.67,105.25 35.87,29.17 73.84,56.77 106.38,88.59 38.66,37.78 92.9,80.32 2.86,124.26 -18.83,9.18 -17.52,32.77 -23.65,50.54 -61.71,178.86 -175.65,262.41 -353.48,259.52 -159.93,-2.58 -274.62,-95.72 -326.56,-265.22 -1.89,-6.14 -4.98,-11.58 -15.51,-22.08 -50.23,10.81 -79.83,51.57 -110.89,85.11 -49.9,53.86 -97.94,53.6 -161.62,20.36 -81.47,-42.51 -156.43,-97.26 -259.97,-130.6 98.82,321.75 326.63,505.97 656.91,586.25 249.82,60.73 489.08,35.58 701.27,-114.97 89.59,-63.55 150.03,-143.94 187.58,-241.54 14.77,-38.44 14.46,-89.73 73.89,-102.72 z"
   id="path22"
   inkscape:connector-curvature="0"
   style="fill:#4b4b4d;fill-rule:nonzero" />
   <path
   class="fil3"
   d="m 7133.75,5259.25 c 8.7,124.47 -25.43,171.76 -133.11,184.35 65.15,-48.87 84.18,-125.64 133.11,-184.35 z"
   id="path24"
   inkscape:connector-curvature="0"
   style="fill:#ee3a60;fill-rule:nonzero" />
   <path
   class="fil4"
   d="m 7167.61,10242.41 c 34.72,-9.7 51.2,52.1 91.75,19.59 45.82,20.85 58.03,57.45 57.85,106.08 -72.43,-23.4 -112.47,-73.04 -149.6,-125.67 z"
   id="path26"
   inkscape:connector-curvature="0"
   style="fill:#ee3f46;fill-rule:nonzero" />
   <path
   class="fil5"
   d="m 7023,9928.06 c 41.92,19.42 59.87,37.51 85,58.39 -1.82,17.26 -3.65,34.51 -5.5,51.74 -26.52,-36.73 -53.01,-73.44 -79.5,-110.13 z"
   id="path28"
   inkscape:connector-curvature="0"
   style="fill:#fefefe;fill-rule:nonzero" />
   <path
   class="fil5"
   d="m 11159.79,9088.95 c -200.24,-12.74 -400.49,-25.47 -600.73,-38.2 48.75,-37.09 109.83,-29.23 164.57,-29.86 136.88,-1.6 255.22,-47.86 370.19,-108.35 29.55,-15.56 60.05,-31.74 92.43,-40.09 30.34,-7.8 71.61,-26.85 93.5,1.08 19.68,25.13 -13.27,48.5 -30.67,71.99 -33.64,45.4 -59.95,95.36 -89.29,143.43 z"
   id="path30"
   inkscape:connector-curvature="0"
   style="fill:#fefefe;fill-rule:nonzero" />
   <path
   class="fil6"
   d="m 6976.85,8425.6 c -6.43,64.55 -74.94,89.53 -106.19,139.42 -71.73,114.53 -58.41,242.76 -81.94,364.99 -1.61,8.37 -6.35,16.23 -9.64,24.38 -59.26,-58.78 9.08,-121.58 -7.23,-182.69 -45.64,-170.88 62.84,-267.3 205,-346.1 z"
   id="path32"
   inkscape:connector-curvature="0"
   style="fill:#ee396a;fill-rule:nonzero" />
   <path
   class="fil7"
   d="m 9641.72,9148.36 c -17.44,-26.8 -57.77,1.27 -74.96,-26.19 91.74,-1.59 182.26,-24.49 274.8,-13.78 -66.61,13.33 -133.22,26.65 -199.84,39.97 z"
   id="path34"
   inkscape:connector-curvature="0"
   style="fill:#ee3d64;fill-rule:nonzero" />
   <path
   class="fil5"
   d="m 8572.64,9652.75 c -64.59,182.41 -161.75,345.87 -358.51,432.62 -344.06,151.68 -739.3,82.26 -1026.99,-151.61 -145.91,-118.6 -231.3,-268.41 -273.6,-451.1 118.64,34.79 208.77,102.28 307.66,154.41 46.32,24.42 79.14,47.5 129.41,-11.73 41.97,-49.43 83.15,-120.34 173.1,-121.79 0.11,185.51 124.36,310.15 322.72,313.09 172.09,2.58 304.03,-114.38 316.92,-278.07 6.4,-81.39 33.39,-49.5 78.48,-37.65 -104.53,-133.69 -214.49,-250.83 -415.3,-246.96 -47.7,0.93 -96.12,-13.04 -143.53,-22.85 -29.69,-6.14 -66.45,-53.5 -65.32,26.14 0.5,35.9 -40.47,-1.72 -62.94,-4.66 -37.31,-4.88 -99.35,-32.03 -48.14,56.23 -64.04,-21.28 -117.8,-39.14 -171.54,-57 -13.67,39.94 16.39,66.06 37.62,112.02 -75.25,-26.34 -137.99,-47.33 -199.79,-70.42 -30.5,-11.39 -65.71,-13.15 -80.78,9.71 -14.16,21.49 10.82,43.05 33.56,60.51 42.56,32.64 80.79,69.99 140.12,122.44 -125.89,-34.48 -223.67,-81.51 -337.49,-61.77 -41.78,7.24 -29.42,-47.23 -44.89,-71.94 13.03,-103.7 81.18,-151.44 189.93,-169.23 464.13,-75.99 915.7,-39.49 1353.77,121.25 154.91,56.83 197.78,141.82 157.01,293.75 -4.83,17.97 -7.7,36.4 -11.48,54.61 z"
   id="path36"
   inkscape:connector-curvature="0"
   style="fill:#fefefe;fill-rule:nonzero" />
   <path
   class="fil5"
   d="m 10560.68,9268.18 c -55.91,-1.55 -109.63,12.48 -161.38,43.86 3.5,-47.64 0.29,-91.89 -64.92,-58.61 -39.02,19.92 -60.2,34.81 -63.13,-22.1 -0.3,-6 -34.81,-19.59 -44.9,-14.75 -139.46,66.91 -325.29,6.55 -441.71,134.55 -53.44,58.75 -130.17,99.91 -163.44,175.17 20.32,8.45 28.95,-2.01 37.87,-11.39 15.57,-16.33 31.56,-42.76 55.52,-32.07 12.03,5.39 11.29,38.2 13.1,58.84 11.2,127.91 81.08,218.6 212.53,260.84 131.3,42.18 290.46,-2.38 368.02,-105.91 31.92,-42.61 51.93,-96.97 51.59,-154.37 -0.2,-35.68 22.67,-55.06 59.39,-25.5 41.98,33.83 84.72,67.97 119.96,107.33 37.04,41.37 69.02,45.12 120.7,19.46 102.32,-50.79 193.81,-116.33 306.01,-183.7 -29.14,196.63 -119.51,347.55 -264.38,470.37 -291.65,247.24 -705.37,311.44 -1029.81,168.91 -213.71,-93.87 -315.38,-262.17 -373.42,-458.64 -61.54,-208.3 -2.23,-290.15 226.44,-359.29 427.36,-129.23 859.91,-162.1 1300.96,-73.92 123.42,24.69 161.05,68.78 159.96,168.99 -0.22,19.59 3.2,45.94 -23.2,40.56 -113.71,-23.16 -206.51,40.78 -321.54,61.88 51.37,-48.54 95.67,-88.31 136.81,-130.63 11.81,-12.15 32.37,-30.47 19.41,-47.31 -14.77,-19.19 -42.12,-18.09 -66.15,-10.44 -61.84,19.67 -123.5,39.84 -184.1,59.45 -27.24,-38.41 23.59,-52.93 13.81,-81.58 z"
   id="path38"
   inkscape:connector-curvature="0"
   style="fill:#fefefe;fill-rule:nonzero" />
   <path
   class="fil8"
   d="m 9854.74,9452.15 c 59.7,-7.46 85.24,31.61 93.69,67.44 8.11,34.34 -8.62,75.66 -60.01,80.64 -50.75,4.94 -94.66,-4.81 -101.33,-62.9 -5.64,-49.13 24.12,-72.61 67.65,-85.18 z"
   id="path40"
   inkscape:connector-curvature="0"
   style="fill:#f7f5f5;fill-rule:nonzero" />
   <path
   class="fil9"
   d="m 7677.73,9594.58 c -70.94,18.14 -85.01,-23.84 -95.89,-59.71 -14.74,-48.67 29.94,-85.02 64.55,-88.13 32.8,-2.93 90.88,13.12 95.68,64.82 4.43,47.46 -7.43,87.67 -64.34,83.02 z"
   id="path42"
   inkscape:connector-curvature="0"
   style="fill:#f6f3f5;fill-rule:nonzero" />
  </g>
  <path
   class="fil10"
   d="m 10765.86,11443.02 c 12.49,-7.14 18.98,-17.45 27.35,-25.74 37.38,-37.16 73.97,-74.93 104.84,-118.01 6.03,-8.44 4,-11.61 -2.07,-16.73 -11.45,-9.58 -24.1,-6.8 -36.13,-2.75 -30.51,10.24 -49.15,32.57 -63.59,60.65 -16.34,31.85 -26.8,64.84 -30.4,102.58 z m -3994.05,187.64 c 49.92,5.23 99.75,5 149.41,-2.3 31.65,-4.65 62.47,-12.3 88.4,-32.84 19.44,-15.39 33.39,-34.83 46.02,-55.98 16.7,-28.04 30.67,-56.72 34.37,-89.57 0.32,-2.79 1.92,-5.12 2.91,-7.64 6.84,-16.91 -0.34,-67.82 -16.54,-81.27 -3.59,-9.35 -11.64,-14.05 -19.67,-18.71 -26.5,-15.44 -55.34,-13.64 -83.9,-9.74 -66.84,9.17 -127.71,37.16 -189.58,61.79 -5.04,1.95 -7.07,4.85 -8.6,9.78 -9.05,28.8 -17.72,57.79 -28.37,85.97 -4.62,12.26 -7.22,25.05 -12.15,36.97 -11.87,28.68 -20.82,58.27 -30.89,87.54 -2.06,5.99 -1.08,8.2 5.45,9.15 20.97,3.07 41.94,5.78 63.14,6.85 z m 2972.06,-277.01 c 7.1,-27.69 5.33,-30.06 -23.57,-31.51 -2.33,-0.11 -4.74,-0.3 -7.07,-0.18 -26.88,1.22 -53.85,1.4 -80.58,3.93 -41.63,3.94 -82.38,13.52 -115.19,40.64 -26.31,21.68 -50.02,46.4 -68.59,76.15 -22.65,36.27 -30.67,73.44 -18.22,114.53 0.92,3.06 2.33,6.19 4.32,8.63 16.85,20.74 39.18,31.02 65.3,33.95 55.07,10.62 108.54,3.82 160.56,-15.77 9.44,-3.51 18.98,-9.51 21.43,-20.05 7.99,-34.41 22.22,-66.98 28.79,-101.77 0.85,-4.63 1.65,-9.37 3.4,-13.68 12.38,-30.86 19.25,-63.39 29.42,-94.87 z m -1266.35,-512.22 c 2.75,-18.21 5.33,-36.55 3.62,-54.96 -1.95,-20.62 -15.43,-27.31 -33.26,-16.61 -6.23,3.7 -12.38,7.87 -16.77,14.55 -9.4,14.29 -18.38,28.57 -26.35,43.84 -19.25,36.97 -30.21,76.62 -40.72,116.34 -5.76,22 -9.81,44.75 -15.28,66.87 -12.45,50.41 -18.48,101.89 -26.8,152.91 -6.68,40.87 -7.75,82.65 -7.52,124.24 0.03,7.6 0.6,15.17 0.95,22.77 5.42,-5.16 8.86,-10.05 10.96,-15.47 13.29,-34.6 25.81,-69.55 39.64,-103.92 4.7,-11.65 8.06,-23.79 12.87,-35.25 12.19,-29.11 23.15,-58.51 29.91,-89.37 3.28,-3.14 7.36,-5.89 8.25,-10.66 3.7,-19.82 13.66,-37.7 17.23,-57.59 3.01,-16.96 9.77,-33.08 15.2,-49.3 11.8,-35.6 20.2,-71.88 28.07,-108.39 z m 514.96,525.05 c 4.7,-6.49 7,-13.9 9.4,-21.45 2.63,-8.22 1.33,-11.05 -7.95,-12.54 -55.94,-9.05 -102.01,11.69 -143.06,46.91 -27.69,23.83 -47.32,53.58 -62.52,86.95 -12.41,27.27 -21.7,54.32 -17.15,84.67 1.65,11.2 7.87,19.29 16.23,26.24 14.64,12.11 31.89,12.38 49.5,11.53 21.96,-0.6 42.21,-7.02 61.53,-17.33 11.5,-6.15 24.78,-12.22 29.13,-24.07 6,-16.45 13.83,-32.34 17.77,-49.72 3.35,-14.85 9.85,-28.95 15.15,-43.15 11,-29.22 23.5,-57.9 31.97,-88.04 z m 2373.64,267.88 c 8.93,6.45 19.85,5.65 29.87,7.25 23.94,3.9 47.89,4.09 70.37,-7.63 17.95,-9.29 21.85,-16.54 17.77,-35.9 -6.69,-31.54 -23.75,-58.63 -37.85,-87.01 -10.69,-18.78 -21.16,-37.69 -32.27,-56.25 -2.6,-4.35 -3.44,-16.46 -13.14,-3.44 -15.7,21.09 -29.25,43.59 -44.18,65.12 -17.35,24.94 -33.77,50.53 -51.45,75.24 -5.04,6.95 -5.24,10.39 1.49,15.73 17.61,13.98 37.58,22.34 59.39,26.89 z m -5034.7,-403.69 c -8.05,4.93 -14.05,7.8 -24.02,-0.3 -34.25,-27.92 -70,-53.89 -105.33,-80.43 -2.44,-1.84 -5.77,-2.44 -8.71,-3.59 v -2.87 c 34.87,-21.11 69.36,-43.08 104.76,-63.28 62.1,-35.52 127.71,-61.02 200.04,-65.19 45.22,-2.63 87.66,6.38 124.86,34.03 2.17,1.6 4.85,2.56 7.33,3.82 1.03,0.87 2.1,1.75 3.13,2.63 l -0.34,-0.38 c 1.48,2.29 2.66,4.92 4.58,6.8 21.15,21.08 35.97,46.14 42.65,74.89 6.73,28.65 6.42,58.02 1.72,87.19 -2.29,14.25 -1.82,14.63 12.15,9.75 18.52,-6.54 37.12,-12.88 55.72,-19.33 34.87,-9.7 69.55,-20.29 104.69,-28.91 65.15,-16 130.65,-30.02 198.39,-28.15 44.35,1.22 85.06,12.6 119.81,41.25 2.48,2.06 7,0.15 8.15,4.47 29.9,27.53 48.38,60.34 47.27,102.24 0,0.26 0.65,0.57 2.25,1.9 13.63,-14.43 27.38,-28.95 41.22,-43.5 25.88,-22.27 51.67,-44.76 81,-62.64 38.8,-23.67 79.29,-42.73 126.37,-40.7 29.99,1.25 57.56,8.2 76.96,33.72 0.68,0.88 2.63,0.73 4.01,1.07 9.44,18.53 20.36,36.48 23.76,57.4 5.5,34.1 5.76,68.52 5.26,102.92 -0.91,65.09 -1.87,130.12 -3.36,195.13 -0.95,44.48 30.67,61.48 68.17,56.4 25.6,0.7 43.81,-12.6 59.66,-30.82 25.54,-29.4 43.42,-63.2 60.19,-98.22 13.64,-28.38 23.49,-57.97 34.75,-87.04 13.94,-35.72 26.01,-72.03 36.51,-109 7.38,-25.82 15.85,-51.33 22.05,-77.49 2.51,-10.69 7.51,-20.85 8.62,-32 0.58,-5.54 4.05,-6.57 8.94,-6.57 57.13,0.07 114.26,0.15 171.4,-0.08 6.72,0 8.21,2.33 6.65,8.33 -1.95,7.63 -2.87,15.58 -7.57,22.26 -10.2,43.01 -24.43,84.86 -37.3,127.1 -11.54,37.73 -22.42,75.62 -34.34,113.24 -10.23,32.43 -18.15,65.53 -28.68,97.8 -4.51,13.8 -7.8,27.77 -11.88,41.56 -4.59,15.35 -2.56,19.18 13.36,17.26 21.17,-2.55 41.17,-9.13 59.2,-20.85 22.69,-8.4 40.76,-23.9 58.78,-39.1 28.07,-23.57 46.75,-53.4 59.92,-87.74 11.61,-30.28 20.4,-60.03 19.4,-93.19 -2.37,-76.07 -2.87,-152.3 3.48,-228.14 3.09,-37.39 4.88,-75.21 11.57,-112.14 5.23,-29.14 6.95,-58.89 13.63,-87.61 9.82,-42.5 20.62,-84.94 34.15,-126.37 10.8,-33.07 25.09,-65.27 43.34,-95.1 30.82,-50.41 67.42,-95.48 125.62,-116.18 56.71,-20.24 112.47,-18.87 166.36,10.62 7.07,3.85 11.34,11.38 19.55,13.25 0.8,0.77 1.57,1.57 2.37,2.33 l -0.3,-0.38 c 1.48,2.33 2.52,5.2 4.58,6.91 18.44,15.77 28.94,36.97 38.87,58.24 12.87,27.69 18.03,58.24 20.67,87.92 3.82,43.81 3.7,87.84 -3.1,132.14 -6.9,45.26 -14.13,90.29 -24.22,134.98 -8.08,35.62 -19.05,70.34 -29.13,105.32 -3.44,11.92 -6.22,24.4 -11.07,35.87 -15.28,36.24 -25.7,74.32 -43.47,109.6 -9.93,19.86 -16.84,41.25 -27.15,60.92 -19.82,37.92 -39.84,75.84 -63.09,111.98 -19.6,30.47 -40.18,60.03 -66.72,84.78 -5.81,5.42 -5.28,9.24 -2.3,14.29 6.3,10.65 12.53,21.45 19.75,31.54 18.02,25.28 38.54,47.17 73.06,46.98 28.91,2.33 55.91,-6.61 82.45,-15.7 8.72,-2.98 11.42,-15.28 13.87,-24.1 10.12,-37.32 17.87,-75.31 28.68,-112.39 10.96,-37.44 22.69,-74.56 41.17,-109.54 14.52,-27.5 31.24,-53.17 51.06,-76.61 33,-39.03 74.28,-67.68 119.24,-91.73 61.22,-32.77 127.67,-40.07 195.27,-40.45 51.97,-0.27 103.54,5.04 153.14,22.3 16.27,5.61 32.16,12.18 44.31,25.25 9.47,7.3 9.73,16.57 4.51,26.05 -15.78,28.72 -27.12,59.42 -39.92,89.44 -10,23.37 -18.78,47.4 -27.88,71.19 -16.6,43.27 -32.8,86.46 -43.34,131.68 -1.88,8.06 -2.68,16.19 -5.93,24.25 -5.18,12.69 1.61,30.33 10.9,32.24 17.45,3.59 35.02,7.55 53.07,5.27 31.17,0.18 54.02,-15.09 71.92,-39.04 16.12,-21.53 27.35,-45.55 36.2,-71.03 10.02,-28.72 20.75,-57.21 33,-85.06 19.34,-44.1 40.64,-86.99 75.97,-121.64 38.8,-38 85.59,-61.02 136.38,-76.49 62.52,-18.98 127.06,-21.96 191.91,-21.46 27.38,0.23 54.85,0.03 82.19,1.53 11.35,0.65 15.88,-4.7 19.1,-13.33 9.5,-25.67 18.1,-51.68 28.3,-76.99 17.25,-42.9 32.04,-86.62 48.73,-129.71 11.26,-29.22 22.42,-58.47 33.76,-87.65 15.43,-39.56 30.21,-79.32 45.75,-118.81 12.49,-31.82 23.6,-64.12 35.94,-95.97 9.43,-24.37 19.51,-48.59 28.95,-72.99 2.06,-5.3 4.85,-6.98 10.38,-7.03 67.64,-0.37 135.21,-0.99 202.81,-1.57 8.09,-0.07 10.3,1.15 4.69,9.29 -4.05,5.84 -4.59,14.09 -6.72,21.28 -10.97,28.48 -22.34,56.82 -32.69,85.5 -10.93,30.02 -22.65,59.74 -33.42,89.71 -14.9,41.4 -30.17,82.62 -45.72,123.74 -12.75,33.8 -23.53,68.33 -36.51,102.09 -11.72,30.67 -23.22,61.49 -34.06,92.47 -14.98,42.8 -30.18,85.54 -45.8,128.12 -13.1,35.71 -24.78,71.88 -36.81,107.97 -9.59,28.64 -17.91,57.79 -28.41,86.08 -5.01,13.63 -7.95,27.65 -12.5,41.28 -11.91,36.14 -24.59,72 -32.42,109.27 -1.07,5.01 -2.29,9.67 -4.35,14.52 -4.25,10 -4.13,19.97 8.63,25.24 17.72,7.3 34.26,17.65 53.89,19.63 35.25,6.34 65.22,-7.68 94.06,-24.97 39.38,-23.57 69.4,-56.8 96.55,-93.46 21.12,-28.46 38.19,-59.16 55.84,-89.63 23.56,-40.72 42,-83.8 60.84,-126.8 16.5,-37.58 32.38,-75.28 45.1,-114.31 2.06,-6.37 5.23,-11.54 13.25,-11.54 53.82,0.09 107.59,0.05 161.94,0.05 -2.53,10.65 -4.85,20.54 -7.18,30.47 -8.52,9.17 -7.76,21.77 -12.12,32.47 -17.33,42.65 -28.25,87.3 -40.59,131.45 -8.4,30.02 -15.78,60.53 -20.51,91.31 -5.19,33.57 -7.29,67.76 -1.19,101.64 4.25,23.55 21.2,36.27 45.11,34.48 6.49,-0.46 12.98,-2.1 19.48,-3.21 53.77,-6.49 103.77,-24.52 151.62,-49.07 12.79,-6.57 24.71,-14.9 37.34,-21.82 6.54,-3.55 8.68,-7.9 8.41,-15.45 -0.91,-26.93 0.23,-53.9 3.74,-80.55 6.35,-48.39 17.6,-95.29 40.64,-139.13 22.88,-43.55 52.02,-81.24 96.89,-102.59 70.2,-33.38 142.49,-39.1 215.21,-6.8 9.16,4.05 17.11,10.97 25.58,16.54 l 3.25,2.25 -0.23,-0.22 c 0.53,1.75 0.5,3.97 1.57,5.15 20.43,21.8 24.44,48.5 23.33,76.84 -1.45,37.4 -16.07,70.12 -34.67,101.82 -21.24,36.28 -47.47,68.59 -77.95,97.2 -42.17,39.64 -88.57,74.01 -139.13,102.39 -8.75,4.89 -6.42,9.77 -1.88,14.32 18.91,18.87 41.29,31.74 67.72,36.97 46.55,14.78 93.95,13.71 141.42,6.57 43.04,-6.49 83.83,-18.87 117.94,-48.27 16.72,-14.44 27.54,-32.97 39.67,-50.64 18.42,-26.78 36.37,-53.97 53.74,-81.43 14.02,-22.19 26.73,-45.14 40.37,-67.56 17.38,-28.53 35.21,-56.75 52.6,-85.29 13.13,-21.53 25.35,-43.65 38.83,-64.95 11.49,-18.27 20.29,-38 33.19,-55.46 3.78,-5.11 6.38,-6.61 12.3,-5.23 45.82,10.57 91.69,20.97 137.56,31.24 15.2,3.36 1.72,11.45 3.1,17.07 -25.47,35.1 -44.27,74.36 -68.17,110.45 -2.52,3.78 -1.57,7.22 1.03,10.35 21.42,25.4 41.28,52.02 61.56,78.29 22.58,29.22 42.81,59.97 61,91.85 17.75,31.09 31.08,64.21 39.33,99.19 0.92,3.77 2.29,6.42 6.76,7.87 19.13,6.25 37.35,15.3 57.25,19.32 14.48,7.68 30.51,11.03 45.79,16.38 6.11,2.14 10.51,4.55 5.46,11.65 -4.35,4.77 -8.97,9.35 -13.14,14.36 -15.5,18.86 -30.17,38.5 -46.59,56.53 -7.79,8.51 -16.88,21 -29.98,17.52 -33.83,-9.01 -68.86,-15.27 -99.34,-34.22 -5.26,-3.32 -7.79,-1.64 -11.88,2.03 -17.87,16.15 -38.57,27.99 -61.25,35.7 -68.1,23.19 -136.96,22.65 -206.23,5.35 -22.47,-6.03 -42.59,-17.33 -63.07,-27.8 -11.48,-10.01 -24.28,-18.87 -34.02,-30.36 -7.03,-8.29 -11.83,-7.52 -20.01,-3.52 -47.28,23.18 -95.9,43.08 -146.96,56.68 -48.89,13.06 -97.77,20.82 -147.65,4.85 -15.63,-4.96 -31.66,-8.83 -47.51,-13.18 -30.47,-10.62 -59.24,-24.4 -83.91,-45.55 -12.52,-12.34 -24.4,-25.37 -34.6,-39.69 -4.32,-6.07 -7.3,-7.9 -13.02,-2.29 -3.02,2.86 -6.8,4.93 -10.2,7.37 -38.42,27.69 -78.98,51.48 -123.44,68.41 -54.18,20.62 -109.87,29.59 -167.77,22.45 -44.91,-9.74 -78.02,-36.17 -103.57,-73.25 -1.69,-2.41 -3.25,-4.55 -6.46,-4.67 -8.4,-18.9 -21.96,-34.02 -35.36,-49.42 -5.65,-6.48 -8.79,-4.65 -12.95,1.08 -5.65,7.94 -11,16.39 -17.79,23.26 -50.61,51.06 -109.57,87.83 -179.85,105.7 -64.88,16.55 -130.05,12.15 -195.35,3.95 -20.54,-2.6 -40.37,-9.67 -61.29,-9.82 -13.52,-7.45 -28.07,-12.18 -42.74,-16.77 -10.88,-7.91 -23.15,-13.56 -33.61,-22.53 -5.92,-5.08 -5.54,-17.83 -15.01,-15.81 -7.56,1.64 -13.86,8.93 -20.89,13.4 -68.89,43.46 -144.06,51.98 -223,40.75 -26.7,-3.82 -51.79,-14.59 -78.79,-16.42 -3.48,-2.94 -7.25,-5.2 -11.91,-5.73 -19.41,-8.97 -38.77,-18.1 -58.24,-26.96 -5.92,-2.68 -9.94,1.79 -13.1,5.42 -28.65,32.73 -65.66,44.54 -107.86,44.61 -21.85,0.04 -42.47,-8.25 -64.24,-8.4 -8.28,-5.16 -16.68,-10.04 -26.53,-11.69 -16.01,-8.59 -32.24,-16.73 -47.9,-25.97 -8.25,-4.88 -14.62,-4.81 -23.03,0.23 -29.56,17.79 -61.76,29.6 -95.18,37.47 -73.74,17.37 -145.01,8.44 -213.83,-22.23 -5.35,-2.37 -9.51,-4.24 -15.7,-1.18 -69.2,34.45 -143.25,47.16 -219.74,49.45 -42.79,1.3 -84.49,-5.69 -125.96,-14.89 -24.87,-11.04 -50.68,-20.43 -72.79,-36.82 -15.51,-11.46 -29.91,-24.13 -36.55,-43.2 -0.96,-2.7 -3.4,-2.86 -5.35,-3.96 -3.7,-22 -12.49,-42.82 -14.7,-68.06 -20.97,16.38 -39.77,31.42 -58.9,45.94 -36.2,27.46 -73.51,53.2 -117.06,67.9 -49.75,16.85 -101.5,24.75 -153.29,32.39 -5.62,0.8 -9.25,1.91 -11.73,7.75 -9.39,22.05 -19.89,43.65 -29.29,65.65 -9.32,21.74 -16.77,44.31 -26.97,65.59 -17.06,35.51 -29.86,72.75 -45.93,108.61 -8.9,19.86 -17.24,39.98 -25.44,60.15 -12.68,31.16 -27.38,61.53 -40.68,92.47 -9.39,21.72 -17.64,43.87 -26.84,65.72 -15.35,36.66 -31.4,73.05 -46.48,109.84 -5.5,13.28 -11.19,21.3 -28.61,21.12 -90.25,-1 -180.49,-0.19 -270.74,0 -20.32,-0.19 -40.59,-0.57 -60.87,-0.47 -7.07,0.05 -10.43,-0.83 -7.87,-9.27 10.31,-33.84 20.05,-67.83 26.27,-102.77 1.45,-7.99 8.13,-6.69 13.33,-7.03 49.96,-3.17 99.84,-6.12 149.79,-9.14 16,-0.95 32.04,-2.05 48.04,-2.75 7.38,-0.3 11.42,-3.01 14.33,-10.5 17.1,-44.33 34.17,-88.72 52.7,-132.52 15.43,-36.39 30.32,-73.06 45.52,-109.53 15.09,-36.01 30.37,-71.95 45.03,-108.15 8.83,-21.78 18.64,-43.17 25.13,-65.81 9.66,-9.09 8.33,-23.18 16.62,-34.76 -68.59,4.36 -135.81,6.11 -203.07,3.71 -5.11,-0.69 -10.23,-1.8 -15.31,-1.91 -35.1,-0.95 -44.57,-18.41 -55.54,-46.86 -16.8,-43.7 -16.38,-90.05 -17.75,-135.89 -0.62,-19.66 -6.3,-39.48 -3.37,-58.62 3.48,-22.46 2.37,-44.88 4.17,-67.18 0.3,-3.78 0.07,-7.52 0.07,-11.3 2.07,-17.8 4.17,-35.6 6.15,-53.36 0.61,-5.31 4.9,-11.99 -1.14,-15.43 -4.89,-2.78 -10.58,1.11 -15.7,3.78 -40.33,21.01 -74.47,50.87 -111.29,76.99 -20.62,14.64 -32.5,34 -39.65,58.17 -6.03,20.25 -15,39.99 -24.05,59.09 -18.48,39.1 -39.45,76.99 -61.91,114.22 -28.61,47.47 -68.66,72.45 -121.56,82.92 -66.61,13.17 -134.01,16.27 -201.42,18.4 -63.78,2.03 -127.6,0.77 -191.31,-2.51 -8.2,-0.42 -12.63,0.46 -16.45,10.11 -10.66,27.2 -17.12,55.65 -27.23,83.04 -11.27,30.52 -18.45,62.52 -28.84,93.34 -4.55,13.28 -7.18,27.11 -12.18,39.98 -15.67,40.22 -26.2,82.04 -39.92,122.86 -8.32,25.05 -16.42,50.37 -23.7,75.74 -12,42.05 -27.97,82.87 -38.47,125.3 -2.94,12.07 -8.48,15.82 -20.4,15.66 -34.48,-0.3 -68.92,0.38 -103.46,0.65 -19.78,-0.27 -39.6,-0.87 -59.38,-0.69 -7.79,0.08 -12.26,-1.53 -8.97,-10.05 11.95,-30.62 15.73,-63.54 27.45,-94.32 5.39,-14.21 7.64,-29.72 11.38,-44.54 5.09,-20.31 11.16,-40.43 15.97,-60.87 11.34,-48.35 25.55,-96.02 37.04,-144.44 6.42,-27.05 13.72,-53.93 20.59,-80.93 9.7,-37.89 17.91,-76.19 27.31,-114.16 7.79,-31.58 15.12,-63.24 22.37,-94.97 7.6,-33.07 15.55,-66.07 23.11,-99.15 7.79,-34.06 15.05,-68.13 22.27,-102.31 8.59,-41.1 16.27,-82.31 23.6,-123.63 4.7,-26.35 5.99,-53.16 11.46,-79.1 5.46,-26.12 6.03,-52.09 6,-78.37 0,-6.03 -1.34,-12.1 -2.07,-18.17 -6.6,-18.68 -24.87,-30.82 -49.49,-30.94 -52.1,-0.23 -93.19,26.16 -132.57,56.29 z"
   id="path45"
   inkscape:connector-curvature="0"
   style="fill:#f9023c;fill-rule:nonzero" />
  <path
   class="fil11"
   d="m 6335.36,12351.01 c 34.49,-0.26 68.97,-0.95 103.47,-0.65 11.92,0.17 17.45,-3.58 20.39,-15.65 10.5,-42.43 26.47,-83.22 38.46,-125.31 7.26,-25.36 15.35,-50.68 23.71,-75.73 13.68,-40.82 24.25,-82.64 39.92,-122.86 5,-12.87 7.63,-26.7 12.14,-39.99 10.42,-30.82 17.61,-62.83 28.87,-93.33 10.12,-27.39 16.57,-55.84 27.24,-83.04 3.81,-9.65 8.25,-10.54 16.45,-10.12 63.7,3.32 127.52,4.55 191.31,2.52 67.4,-2.13 134.81,-5.23 201.41,-18.4 52.9,-10.47 92.96,-35.45 121.57,-82.92 22.42,-37.24 43.39,-75.12 61.91,-114.23 9.05,-19.1 17.98,-38.83 24.05,-59.08 7.15,-24.17 19.03,-43.54 39.65,-58.17 36.82,-26.08 70.96,-55.99 111.29,-76.99 5.12,-2.67 10.8,-6.57 15.7,-3.78 6.03,3.43 1.75,10.12 1.14,15.43 -2.02,17.8 -4.09,35.55 -6.14,53.35 -29.49,19.67 -57.52,41.44 -84.57,64.21 -7.9,6.63 -8.17,21 -12.52,31.7 -16.85,41.24 -32.15,83.21 -53.55,122.28 -18.29,33.46 -37.77,66.3 -64.07,94.6 -16.02,17.26 -35.22,28.41 -57.26,35.1 -59.61,18.1 -121.22,22.18 -182.94,25.51 -81.72,4.43 -163.45,3.17 -245.18,-0.58 -10.81,-0.49 -13.79,2.72 -16.77,12.8 -11.38,38.96 -24.06,77.53 -36.51,116.14 -7.45,23.26 -11.87,47.36 -21.27,70.12 -12.3,29.67 -18.6,61.49 -30.6,91.39 -4.92,12.34 -7.14,25.7 -11.64,38.46 -10.85,30.98 -18.64,63.02 -28.91,94.22 -11.92,36.36 -24.67,72.41 -34.07,109.53 -1.07,4.24 -4.74,6.22 -5.92,10.62 -6.18,22.8 -6.57,22.69 -29.87,22.69 -49.15,0 -98.34,-0.39 -147.45,0.3 -12.26,0.15 -17.46,-1.87 -12.57,-14.94 1.8,-4.76 2.14,-10.11 3.13,-15.2 z"
   id="path47"
   inkscape:connector-curvature="0"
   style="fill:#2c2a2c;fill-rule:nonzero" />
  <path
   class="fil11"
   d="m 9939.72,11630.32 c -19.64,-2.02 -36.17,-12.33 -53.89,-19.67 -12.76,-5.23 -12.88,-15.23 -8.63,-25.25 2.05,-4.85 3.28,-9.46 4.35,-14.47 7.83,-37.31 20.5,-73.17 32.42,-109.27 4.51,-13.63 7.45,-27.68 12.5,-41.32 10.5,-28.3 18.82,-57.4 28.37,-86.04 12.07,-36.08 23.75,-72.3 36.82,-107.97 15.65,-42.58 30.85,-85.32 45.83,-128.12 10.84,-31.02 22.34,-61.84 34.07,-92.47 12.98,-33.76 23.75,-68.29 36.5,-102.09 15.5,-41.12 30.82,-82.37 45.67,-123.74 10.82,-30.02 22.54,-59.72 33.42,-89.71 10.4,-28.72 21.78,-57.02 32.74,-85.5 h 73.51 c -11.03,30.77 -21.31,60.07 -33.76,88.64 -4.92,11.33 -8.47,23.45 -12.41,35.13 -10.04,29.79 -21.81,58.89 -31.73,88.69 -14.06,42.19 -30.75,83.47 -45.72,125.41 -10.77,30.25 -22.42,60.2 -33.45,90.4 -16.55,45.3 -34.15,90.17 -48.77,136.23 -10.13,31.85 -22.58,63.05 -33.69,94.64 -11.58,33 -23.33,65.84 -34.33,99.07 -10.97,33.11 -22.92,65.92 -33.88,99.1 -9.59,29.03 -17.49,58.47 -25.94,87.81 -7.63,26.65 -17.98,52.47 -20,80.5 z"
   id="path49"
   inkscape:connector-curvature="0"
   style="fill:#2c2a2c;fill-rule:nonzero" />
  <path
   class="fil11"
   d="m 7330.65,12352.82 c 90.25,-0.18 180.54,-0.98 270.74,0 17.42,0.15 23.11,-7.83 28.61,-21.15 15.08,-36.78 31.12,-73.18 46.51,-109.84 9.17,-21.81 17.46,-44 26.81,-65.69 13.3,-30.93 28,-61.3 40.68,-92.47 8.2,-20.2 16.53,-40.28 25.43,-60.15 16.08,-35.85 28.87,-73.13 45.94,-108.61 10.2,-21.28 17.65,-43.85 26.97,-65.58 9.43,-22.03 19.9,-43.61 29.29,-65.64 2.48,-5.88 6.11,-6.95 11.76,-7.76 51.75,-7.64 103.54,-15.54 153.26,-32.39 43.55,-14.7 80.89,-40.44 117.1,-67.9 19.14,-14.55 37.89,-29.56 58.86,-45.94 2.21,25.24 11,46.05 14.74,68.05 -62.49,53.74 -134.51,86.54 -216.05,98.54 -17.68,2.63 -35.25,7.29 -52.94,7.98 -18.1,0.65 -27.18,9.74 -32,25.13 -11.19,35.66 -28.57,68.78 -42.4,103.35 -15.54,38.83 -34.82,76.22 -50.29,115.1 -8.67,21.74 -18.03,43.19 -27.08,64.74 -14.32,34.1 -27.77,68.59 -43.42,102.19 -9.43,20.29 -17.53,41.4 -26.35,62.07 -13.79,32.3 -26.05,65.27 -42.24,96.51 -0.23,0.41 -0.35,0.91 -0.38,1.33 -2.45,29.15 -22.12,28.95 -44.69,28.8 -104.84,-0.8 -209.71,-0.38 -314.58,-0.38 -8.98,0 -19.33,1.68 -8.4,-12.57 3.32,-4.39 2.86,-11.72 4.12,-17.72 z"
   id="path51"
   inkscape:connector-curvature="0"
   style="fill:#2c2a2c;fill-rule:nonzero" />
  <path
   class="fil11"
   d="m 8460.02,11634.22 c -34.52,0.19 -55.04,-21.7 -73.06,-46.97 -7.22,-10.13 -13.45,-20.9 -19.75,-31.59 -2.98,-5.01 -3.51,-8.83 2.3,-14.25 26.54,-24.78 47.12,-54.35 66.72,-84.78 23.25,-36.13 43.27,-74.06 63.09,-112.02 10.31,-19.62 17.18,-41.06 27.15,-60.87 17.77,-35.29 28.19,-73.41 43.47,-109.61 4.85,-11.5 7.63,-23.95 11.07,-35.9 10.08,-34.95 21.05,-69.7 29.13,-105.29 10.09,-44.72 17.32,-89.72 24.22,-135.01 6.8,-44.27 6.92,-88.34 3.1,-132.11 -2.64,-29.68 -7.8,-60.23 -20.7,-87.95 -9.9,-21.24 -20.4,-42.47 -38.84,-58.2 -2.06,-1.72 -3.1,-4.59 -4.58,-6.92 27.22,2.9 48.65,17.6 67.17,35.9 30.13,29.75 44,67.17 52.75,108.58 12.98,61.45 9.81,122.7 3.28,183.74 -3.01,28.6 -6.65,57.75 -13.21,85.97 -10.02,43.19 -21.12,86.27 -34.34,128.59 -6.15,19.63 -11.42,39.75 -19.6,58.74 -14.47,33.53 -25,68.55 -41.08,101.58 -10.17,20.97 -18.87,42.89 -28.92,64.01 -12.49,26.2 -26.5,51.56 -41.28,76.65 -15.16,25.7 -31.86,50.04 -49.38,73.94 -8.4,11.42 -17.03,22.88 -26.81,33.12 -13.17,13.82 -14.52,23.45 -3.02,38.95 7.6,10.2 15.73,20.01 21.12,31.7 z"
   id="path53"
   inkscape:connector-curvature="0"
   style="fill:#2c2a2c;fill-rule:nonzero" />
  <path
   class="fil10"
   d="m 10432.32,11067.35 c -24.98,-5.76 -48.2,-14.97 -66.07,-34.25 -9.16,-9.85 -18.37,-19.79 -20.7,-33.84 -2.63,-15.47 -8.67,-28.98 -3.7,-46.9 8.78,-31.77 29.9,-48.05 57.78,-56.6 42.43,-12.99 85.2,-13.71 126.8,5.77 10.3,4.85 17.95,13.03 27.45,18.68 0.85,0.68 1.69,1.4 2.49,2.1 l -0.24,-0.32 c 9.14,14.4 18.45,29.37 19.52,46.49 2.48,38.23 -16,65.5 -48.62,84.02 -29.67,16.88 -62.09,16.69 -94.71,14.85 z"
   id="path55"
   inkscape:connector-curvature="0"
   style="fill:#f9023c;fill-rule:nonzero" />
  <path
   class="fil11"
   d="m 10871.75,11626.11 c -26.43,-5.24 -48.81,-18.1 -67.71,-36.97 -4.58,-4.55 -6.88,-9.44 1.83,-14.32 50.61,-28.35 96.96,-62.75 139.16,-102.39 30.49,-28.61 56.69,-60.92 77.96,-97.2 18.56,-31.7 33.18,-64.44 34.63,-101.82 1.12,-28.34 -2.86,-55.04 -23.3,-76.84 -1.06,-1.19 -1.06,-3.4 -1.55,-5.15 28.1,3.51 49.84,18.13 68.05,38.95 11.65,13.29 14.55,29.4 17.45,46.2 5.74,33.09 -1.86,63.37 -14.24,93.66 -24.37,59.57 -66.72,104.6 -113.2,147.42 -36.74,33.83 -77.83,60.87 -120.04,86.65 -7.71,4.69 -13.78,8.36 -2.48,15.74 1.72,1.14 2.33,4 3.44,6.07 z"
   id="path57"
   inkscape:connector-curvature="0"
   style="fill:#2c2a2c;fill-rule:nonzero" />
  <path
   class="fil11"
   d="m 8015.49,11572.48 c -18.07,11.76 -38.04,18.28 -59.24,20.85 -15.93,1.9 -17.95,-1.92 -13.33,-17.27 4.09,-13.78 7.38,-27.76 11.85,-41.5 10.57,-32.28 18.48,-65.44 28.72,-97.82 11.91,-37.65 22.8,-75.54 34.33,-113.27 12.83,-42.24 27.12,-84.1 37.31,-127.11 21.69,0 43.43,0.31 65.12,-0.11 7.56,-0.11 10.38,3.71 6.88,9.09 -9.4,14.28 -10.7,31.32 -15.29,46.79 -9.62,32.84 -20.16,65.45 -29.48,98.42 -12.03,42.58 -25.35,84.82 -37.58,127.36 -9.12,31.66 -18.14,63.48 -29.29,94.57 z"
   id="path59"
   inkscape:connector-curvature="0"
   style="fill:#2c2a2c;fill-rule:nonzero" />
  <path
   class="fil11"
   d="m 10450.3,11588.27 c -6.5,1.11 -12.99,2.71 -19.52,3.21 -23.9,1.75 -40.82,-10.96 -45.07,-34.49 -6.15,-33.91 -4,-68.06 1.19,-101.63 4.73,-30.77 12.07,-61.29 20.51,-91.31 12.34,-44.15 23.22,-88.8 40.56,-131.45 4.39,-10.7 3.59,-23.3 12.15,-32.51 20.77,0.04 41.62,0.57 62.4,-0.08 10.2,-0.3 10.62,4.82 6.57,10.78 -8.44,12.49 -10.47,27.42 -15.27,41.01 -10.67,30.06 -20.9,60.35 -28.92,91.32 -9.2,35.52 -17.91,71.04 -26.28,106.74 -10.84,46.03 -13.37,91.82 -8.32,138.41 z"
   id="path61"
   inkscape:connector-curvature="0"
   style="fill:#2c2a2c;fill-rule:nonzero" />
  <path
   class="fil11"
   d="m 9140.64,11591.35 c -18.11,2.33 -35.68,-1.68 -53.13,-5.27 -9.27,-1.88 -16.07,-19.56 -10.88,-32.23 3.28,-8.02 4.08,-16.2 5.92,-24.25 10.58,-45.19 26.78,-88.42 43.35,-131.66 9.13,-23.78 17.91,-47.8 27.91,-71.22 12.8,-29.98 24.14,-60.72 39.92,-89.44 5.19,-9.48 4.97,-18.75 -4.55,-26.05 21.58,4.92 42.17,11.87 58.74,27.38 12.87,12.07 15.12,21.04 5.31,35.44 -7.6,11.2 -11.5,23.87 -16.38,35.75 -14.71,35.29 -30.52,70.09 -42.82,106.44 -10.85,32.12 -24.45,63.32 -33.99,96.06 -7.6,26.08 -18.36,51.32 -19.4,79.05 z"
   id="path63"
   inkscape:connector-curvature="0"
   style="fill:#2c2a2c;fill-rule:nonzero" />
  <path
   class="fil11"
   d="m 7653.9,11607.03 c -37.46,5.04 -69.13,-11.91 -68.13,-56.41 1.45,-65.04 2.4,-130.08 3.35,-195.11 0.47,-34.42 0.24,-68.87 -5.3,-102.94 -3.4,-20.97 -14.33,-38.92 -23.76,-57.44 25.55,-1.68 44.76,11.04 60,29.14 28.27,33.46 32.58,74.9 33.38,116.22 1.45,75.44 0.04,150.86 -4.7,226.17 -0.83,13.33 3.32,26.89 5.16,40.37 z"
   id="path65"
   inkscape:connector-curvature="0"
   style="fill:#2c2a2c;fill-rule:nonzero" />
  <path
   class="fil11"
   d="m 8342.02,11761.74 c 41.47,9.2 83.18,16.15 125.95,14.89 76.49,-2.29 150.55,-15.01 219.75,-49.46 6.2,-3.05 10.35,-1.18 15.7,1.19 68.82,30.66 140.09,39.6 213.83,22.23 33.42,-7.91 65.62,-19.72 95.17,-37.47 8.37,-5.05 14.75,-5.12 23.04,-0.23 15.61,9.25 31.88,17.38 47.89,25.93 -81.08,48.5 -167.43,63.55 -259.62,40.41 -18.6,-4.66 -36.82,-10.77 -53.97,-19.32 -8.94,-4.44 -16.04,-3.56 -25.02,0.8 -53.89,25.77 -111.21,38.6 -170.56,44.1 -57.82,5.35 -114.76,3.1 -170.44,-14.7 -21.66,-6.95 -42.89,-15.17 -61.72,-28.37 z"
   id="path67"
   inkscape:connector-curvature="0"
   style="fill:#2c2a2c;fill-rule:nonzero" />
  <path
   class="fil11"
   d="m 11701.21,11639.46 c -19.9,-4.01 -38.11,-13.03 -57.25,-19.29 -4.46,-1.49 -5.83,-4.08 -6.75,-7.86 -8.29,-34.99 -21.58,-68.14 -39.34,-99.19 -18.21,-31.93 -38.42,-62.67 -61,-91.85 -20.27,-26.31 -40.13,-52.89 -61.55,-78.33 -2.6,-3.13 -3.55,-6.56 -1.04,-10.35 23.91,-36.05 42.7,-75.31 68.17,-110.42 20.59,4.67 41.06,9.67 61.76,13.84 6.88,1.37 9.32,3.08 5.23,9.62 -16.88,26.88 -33.87,53.66 -50.41,80.78 -7.79,12.82 -13.74,26.77 -23.61,38.37 -1.37,1.68 -1.13,4.25 0.65,6.46 19.22,23.79 37.97,47.97 57.6,71.46 15.85,18.94 29.14,39.67 42.24,60.42 15.27,24.17 30.59,48.65 42.24,74.62 6.91,15.28 15.7,30.7 17.45,48.12 0.5,5.2 2.41,9.63 5.61,13.6 z"
   id="path69"
   inkscape:connector-curvature="0"
   style="fill:#2c2a2c;fill-rule:nonzero" />
  <path
   class="fil11"
   d="m 9779.27,11759 c 20.92,0.15 40.75,7.21 61.29,9.77 65.3,8.25 130.47,12.61 195.35,-3.89 70.28,-17.88 129.24,-54.65 179.85,-105.76 6.79,-6.88 12.14,-15.28 17.83,-23.21 4.12,-5.74 7.26,-7.57 12.91,-1.07 13.4,15.35 26.96,30.5 35.36,49.37 -32.08,36.67 -70.27,65.16 -114.07,86.35 -73.18,35.37 -150.4,41.67 -229.99,32.92 -44.49,-4.88 -88.53,-11.48 -130.13,-28.75 -9.88,-4.08 -21.26,-6.3 -28.4,-15.73 z"
   id="path71"
   inkscape:connector-curvature="0"
   style="fill:#2c2a2c;fill-rule:nonzero" />
  <path
   class="fil11"
   d="m 11284.06,11764.79 c 69.24,17.31 138.1,17.8 206.2,-5.34 22.72,-7.72 43.42,-19.56 61.29,-35.71 4.05,-3.67 6.61,-5.35 11.84,-2.03 30.48,18.95 65.5,25.17 99.38,34.22 13.1,3.48 22.18,-9.01 29.93,-17.52 16.47,-18.07 31.14,-37.7 46.64,-56.52 4.12,-5.02 8.75,-9.6 13.13,-14.37 20.44,6.87 40.76,14.05 61.34,20.47 5.65,1.75 8.1,3.67 3.52,8.06 -23.95,22.76 -41.21,51.18 -63.67,75.16 -11.42,12.18 -22.27,18.9 -40.17,12.6 -30.25,-10.65 -62.94,-14.4 -90.21,-33.18 -3.83,-2.6 -6.65,0.95 -8.1,2.4 -33.23,33.3 -76.08,44.88 -120.3,51.07 -65.01,9.05 -128.75,4 -188.9,-25.17 -7.9,-3.82 -16.46,-6.5 -21.92,-14.14 z"
   id="path73"
   inkscape:connector-curvature="0"
   style="fill:#2c2a2c;fill-rule:nonzero" />
  <path
   class="fil11"
   d="m 10391.89,11762.15 c 57.9,7.13 113.59,-1.84 167.77,-22.47 44.46,-16.92 85.02,-40.7 123.44,-68.39 3.4,-2.45 7.18,-4.51 10.2,-7.38 5.72,-5.6 8.7,-3.77 13.02,2.3 10.2,14.32 22.08,27.35 34.6,39.68 -35.1,25.47 -72.67,46.44 -112.97,62.36 -53.35,21.05 -108.31,32.16 -165.79,24.68 -26.19,-3.4 -50.82,-11.46 -70.27,-30.78 z"
   id="path75"
   inkscape:connector-curvature="0"
   style="fill:#2c2a2c;fill-rule:nonzero" />
  <path
   class="fil11"
   d="m 10824.82,11751.44 c 15.85,4.35 31.89,8.22 47.52,13.22 49.87,15.92 98.76,8.21 147.64,-4.85 51.07,-13.64 99.69,-33.54 146.96,-56.72 8.18,-4 12.99,-4.77 20.02,3.55 9.73,11.46 22.53,20.32 34.02,30.33 -25.35,14.93 -52.92,24.82 -80.35,35.02 -32.99,12.25 -66.79,21 -101.16,28.57 -50.77,11.11 -98.04,-3.25 -145.59,-16.88 -24.72,-7.07 -48.12,-17.07 -69.06,-32.24 z"
   id="path77"
   inkscape:connector-curvature="0"
   style="fill:#2c2a2c;fill-rule:nonzero" />
  <path
   class="fil11"
   d="m 10432.32,11067.35 c 32.62,1.84 65.04,2.03 94.71,-14.85 32.62,-18.52 51.1,-45.79 48.62,-84.02 -1.07,-17.12 -10.38,-32.09 -19.52,-46.49 32.77,3.64 56.49,20.02 72.92,48.77 25.85,45.22 -4.2,99.99 -47.67,116.61 -46.13,17.6 -91.58,18.13 -134.82,-9.44 -4.95,-3.16 -9.5,-7.03 -14.24,-10.58 z"
   id="path79"
   inkscape:connector-curvature="0"
   style="fill:#2c2a2c;fill-rule:nonzero" />
  <path
   class="fil11"
   d="m 9365.24,11741.61 c 27,1.8 52.1,12.6 78.79,16.38 78.94,11.27 154.1,2.72 222.96,-40.7 7.07,-4.48 13.37,-11.77 20.93,-13.41 9.47,-2.06 9.09,10.73 15.01,15.81 10.46,8.97 22.73,14.62 33.61,22.54 -23.42,19.47 -50.95,30.78 -79.71,38.83 -76.58,21.47 -151.92,13.64 -226.09,-11.65 -22.46,-7.67 -45.15,-15.08 -65.5,-27.8 z"
   id="path81"
   inkscape:connector-curvature="0"
   style="fill:#2c2a2c;fill-rule:nonzero" />
  <path
   class="fil11"
   d="m 6749.95,11214.41 c -18.57,6.42 -37.2,12.8 -55.72,19.28 -13.94,4.94 -14.44,4.55 -12.1,-9.73 4.7,-29.14 4.96,-58.51 -1.72,-87.16 -6.73,-28.79 -21.55,-53.8 -42.67,-74.88 -1.9,-1.87 -3.13,-4.52 -4.62,-6.8 23.04,2.63 41.44,15.12 58.48,29.21 24.05,19.94 40.25,44.96 49.98,75.39 5.85,18.25 7.42,36.2 8.37,54.69 z"
   id="path83"
   inkscape:connector-curvature="0"
   style="fill:#2c2a2c;fill-rule:nonzero" />
  <path
   class="fil11"
   d="m 9109.87,11750.54 c 21.77,0.15 42.39,8.45 64.27,8.4 42.17,-0.1 79.22,-11.87 107.82,-44.6 3.17,-3.63 7.17,-8.14 13.14,-5.42 19.43,8.85 38.8,17.95 58.2,26.96 -39.25,49.23 -91.24,61.56 -150.29,49.76 -32.72,-6.53 -64.04,-18.18 -93.14,-35.1 z"
   id="path85"
   inkscape:connector-curvature="0"
   style="fill:#2c2a2c;fill-rule:nonzero" />
  <path
   class="fil11"
   d="m 6331.41,11230.69 c 39.37,-30.14 80.47,-56.52 132.6,-56.29 24.59,0.11 42.89,12.25 49.49,30.93 -37.03,3.14 -68.09,21.12 -98.6,40.14 -9.44,5.85 -19.1,11.46 -26.62,19.82 -3.55,3.98 -6.68,3.9 -10.85,0.61 -15.2,-11.91 -30.67,-23.48 -46.02,-35.21 z"
   id="path87"
   inkscape:connector-curvature="0"
   style="fill:#2c2a2c;fill-rule:nonzero" />
  <path
   class="fil11"
   d="m 7495.62,11763.83 c 67.25,2.4 134.47,0.65 203.06,-3.71 -8.29,11.58 -6.95,25.66 -16.62,34.76 -43.84,0.72 -87.6,1.45 -131.45,-1.46 -23.52,-1.52 -43.54,-6.91 -54.99,-29.59 z"
   id="path89"
   inkscape:connector-curvature="0"
   style="fill:#2c2a2c;fill-rule:nonzero" />
  <path
   class="fil11"
   d="m 7271.73,11263.72 c -13.79,14.55 -27.58,29.06 -41.22,43.5 -1.6,-1.34 -2.25,-1.64 -2.25,-1.91 1.15,-41.9 -17.37,-74.7 -47.28,-102.23 22,-0.81 37.73,13.28 54.35,24.17 14.4,9.43 26.23,22.3 36.4,36.47 z"
   id="path91"
   inkscape:connector-curvature="0"
   style="fill:#2c2a2c;fill-rule:nonzero" />
  <path
   class="fil11"
   d="m 8573.63,10613.12 c -0.81,-0.76 -1.57,-1.56 -2.37,-2.33 1.25,0.3 3.32,-0.23 2.37,2.33 z"
   id="path93"
   inkscape:connector-curvature="0"
   style="fill:#2c2a2c;fill-rule:nonzero" />
  <path
   class="fil11"
   d="m 10556.37,10922.31 c -0.8,-0.73 -1.64,-1.41 -2.49,-2.1 1.34,0.12 2.98,-0.12 2.49,2.1 z"
   id="path95"
   inkscape:connector-curvature="0"
   style="fill:#2c2a2c;fill-rule:nonzero" />
  <path
   class="fil11"
   d="m 6633.48,11055.48 c -1.04,-0.88 -2.1,-1.72 -3.14,-2.6 1.52,0.3 3.94,-0.5 3.14,2.6 z"
   id="path97"
   inkscape:connector-curvature="0"
   style="fill:#2c2a2c;fill-rule:nonzero" />
  <path
   class="fil11"
   d="m 11032.98,11191.64 -3.25,-2.25 c 1.64,-0.08 3.48,-0.39 3.25,2.25 z"
   id="path99"
   inkscape:connector-curvature="0"
   style="fill:#2c2a2c;fill-rule:nonzero" />
  <path
   class="fil11"
   d="m 8408.77,11067.35 c -6.75,30.87 -17.72,60.31 -29.9,89.37 -4.82,11.5 -8.17,23.6 -12.87,35.25 -13.83,34.42 -26.39,69.32 -39.65,103.96 -2.1,5.38 -5.53,10.31 -10.95,15.43 -0.35,-7.6 -0.92,-15.16 -1,-22.76 -0.22,-41.56 0.88,-83.38 7.57,-124.24 8.28,-51.02 14.36,-102.51 26.81,-152.91 5.42,-22.12 9.51,-44.89 15.27,-66.88 10.5,-39.68 21.47,-79.33 40.72,-116.3 7.98,-15.3 16.95,-29.55 26.35,-43.84 4.39,-6.68 10.5,-10.84 16.72,-14.58 17.88,-10.66 31.35,-4.02 33.3,16.65 1.69,18.37 -0.87,36.7 -3.62,54.87 0.27,4.97 -5.58,4.05 -7.53,8.49 -12.14,27.18 -23.67,54.76 -32.12,83.06 -10.95,36.82 -18.1,74.78 -26.73,112.28 -1.67,7.26 -4.16,14.52 -2.37,22.15 z"
   id="path101"
   inkscape:connector-curvature="0"
   style="fill:#2c2a2c;fill-rule:nonzero" />
  <path
   class="fil11"
   d="m 7076.36,11361.04 c -61.44,-0.95 -117.89,19.33 -173.96,41.21 -15.2,5.92 -30.02,12.98 -45.48,18.07 -13.34,4.38 -19.59,13.44 -23.19,25.96 -11.34,39.87 -27.42,78.19 -39.57,117.83 -6.79,22.3 -17.06,43.61 -22.37,66.57 -21.16,-1.12 -42.13,-3.82 -63.13,-6.88 -6.54,-0.96 -7.49,-3.17 -5.47,-9.13 10.09,-29.25 19.07,-58.89 30.9,-87.57 4.93,-11.91 7.53,-24.71 12.15,-36.93 10.69,-28.22 19.32,-57.17 28.42,-86.01 1.52,-4.93 3.5,-7.79 8.55,-9.78 61.87,-24.63 122.74,-52.62 189.58,-61.75 28.57,-3.94 57.4,-5.73 83.9,9.73 8.02,4.67 16.09,9.37 19.67,18.68 z"
   id="path103"
   inkscape:connector-curvature="0"
   style="fill:#2c2a2c;fill-rule:nonzero" />
  <path
   class="fil11"
   d="m 9743.87,11353.63 c -49.5,1.62 -98.27,5.92 -143.3,29.84 -21.62,11.49 -36.81,29.9 -53.92,46.25 -22.65,21.57 -42.17,46.59 -52.25,75.65 -10.69,30.94 -13.56,64.09 5.88,94.41 -26.12,-2.9 -48.46,-13.22 -65.3,-33.92 -2.02,-2.43 -3.4,-5.6 -4.32,-8.67 -12.45,-41.08 -4.43,-78.2 18.18,-114.49 18.6,-29.78 42.32,-54.46 68.59,-76.2 32.85,-27.1 73.6,-36.69 115.22,-40.62 26.74,-2.49 53.7,-2.72 80.55,-3.95 2.37,-0.1 4.74,0.08 7.11,0.2 28.9,1.45 30.66,3.82 23.56,31.5 z"
   id="path105"
   inkscape:connector-curvature="0"
   style="fill:#2c2a2c;fill-rule:nonzero" />
  <path
   class="fil11"
   d="m 8836.94,11588.81 c -17.61,0.84 -34.87,0.54 -49.5,-11.54 -8.4,-6.95 -14.58,-15.04 -16.23,-26.23 -4.54,-30.36 4.7,-57.44 17.15,-84.71 15.2,-33.38 34.83,-63.09 62.52,-86.92 41.02,-35.22 87.12,-55.99 143.02,-46.9 9.32,1.48 10.62,4.28 7.99,12.53 -2.41,7.52 -4.7,14.97 -9.4,21.42 -51.64,14.7 -89.52,47.25 -119.31,90.9 -10.62,15.59 -20.02,31.51 -26.35,49.42 -9.47,26.69 -22.3,52.78 -9.89,82.03 z"
   id="path107"
   inkscape:connector-curvature="0"
   style="fill:#2c2a2c;fill-rule:nonzero" />
  <path
   class="fil11"
   d="m 11366.11,11634.35 c -21.77,-4.55 -41.78,-12.91 -59.38,-26.89 -6.69,-5.34 -6.54,-8.78 -1.5,-15.73 17.68,-24.72 34.1,-50.3 51.45,-75.24 14.97,-21.5 28.49,-44 44.19,-65.12 9.7,-13.02 10.57,-0.88 13.13,3.44 11.12,18.56 21.58,37.47 32.32,56.25 -9.7,5.39 -12.65,16.12 -18.8,24.25 -14.4,19.25 -28.87,38.58 -40.97,59.29 -7.42,12.75 -21.7,22.45 -20.44,39.75 z"
   id="path109"
   inkscape:connector-curvature="0"
   style="fill:#2c2a2c;fill-rule:nonzero" />
  <path
   class="fil11"
   d="m 10765.86,11443.02 c 3.6,-37.74 14.06,-70.73 30.4,-102.58 14.44,-28.08 33.08,-50.41 63.59,-60.65 12.03,-4.05 24.68,-6.83 36.13,2.75 6.07,5.12 8.1,8.29 2.07,16.73 -30.87,43.08 -67.46,80.85 -104.84,118.01 -8.37,8.29 -14.86,18.6 -27.35,25.74 z"
   id="path111"
   inkscape:connector-curvature="0"
   style="fill:#2c2a2c;fill-rule:nonzero" />
  <path
   class="fil5"
   d="m 8408.77,11067.35 c -1.79,-7.63 0.7,-14.89 2.37,-22.15 8.63,-37.5 15.78,-75.46 26.73,-112.28 8.45,-28.3 19.98,-55.88 32.12,-83.06 1.95,-4.44 7.8,-3.52 7.53,-8.49 -7.86,36.55 -16.27,72.87 -28.11,108.47 -5.39,16.24 -12.14,32.31 -15.16,49.27 -3.56,19.94 -13.56,37.81 -17.23,57.62 -0.91,4.74 -4.96,7.49 -8.25,10.62 z"
   id="path113"
   inkscape:connector-curvature="0"
   style="fill:#fefefe;fill-rule:nonzero" />
  <path
   class="fil11"
   d="m 8288.96,12569.59 c -46.82,0 -91.09,-6.29 -133.26,-18.87 -42.17,-12.35 -70.36,-26.57 -84.58,-42.17 -11.87,-13.75 -21.43,-32.86 -28.19,-57.79 -6.75,-24.92 -10.25,-52.64 -10.25,-83.64 0,-17.47 3.27,-30.52 9.56,-39.13 6.29,-8.39 16.54,-12.58 30.52,-12.58 17.47,0 34.48,12.8 51.26,38.2 5.82,8.62 10.24,14.91 13.74,19.34 19.33,24.93 39.84,43.8 61.97,56.62 21.91,12.81 44.96,19.1 68.97,19.1 17.93,0 32.38,-3.73 43.8,-10.95 11.18,-7.22 16.77,-16.31 16.77,-27.49 0,-15.15 -21.2,-29.83 -63.83,-44.51 -18.87,-6.51 -34.02,-12.11 -45.44,-16.54 -58.24,-22.59 -101.81,-50.55 -130.7,-84.1 -28.89,-33.55 -43.34,-72.93 -43.34,-118.12 0,-58.02 22.61,-106.01 68.03,-143.75 45.44,-37.75 103.45,-56.62 174.28,-56.62 26.33,0 52.65,2.79 78.97,8.62 26.33,5.82 39.62,8.62 40.31,8.62 6.77,0 15.85,-1.16 27.26,-3.73 11.18,-2.55 19.11,-3.72 23.53,-3.72 10.26,0 19.58,2.32 27.97,6.99 8.38,4.65 17.23,12.34 26.32,23.3 14.45,17.23 25.86,34.94 34.01,53.35 8.16,18.4 12.13,35.41 12.13,51.02 0,19.11 -5.6,34.48 -16.79,46.37 -11.41,11.87 -25.86,17.94 -43.33,17.94 -16.3,0 -37.51,-12.58 -63.6,-37.75 -8.16,-8.16 -14.68,-13.98 -19.58,-17.94 -11.87,-10.95 -25.39,-19.57 -40.53,-25.86 -15.14,-6.06 -30.76,-9.09 -46.6,-9.09 -15.62,0 -27.73,3.03 -36.35,9.09 -8.61,6.29 -13.04,14.91 -13.04,25.86 0,21.2 31.22,40.77 93.89,59.18 9.08,2.8 15.84,4.9 20.27,6.05 63.6,19.11 108.8,42.87 135.13,71.3 26.32,28.42 39.37,66.64 39.37,114.63 0,64.77 -25.63,117.42 -76.89,157.96 -51.25,40.54 -118.58,60.81 -201.76,60.81 z m 555.67,-187.55 c 0,-9.32 -1.17,-15.15 -3.25,-17.71 -2.34,-2.33 -8.39,-3.5 -17.95,-3.5 -13.51,0 -23.99,4.43 -31.22,13.51 -7.22,9.1 -10.95,22.14 -10.95,39.15 0,15.61 2.79,27.72 8.39,35.88 5.59,8.39 13.75,12.58 24.47,12.58 11.87,0 19.8,-4.66 24.22,-13.74 4.19,-9.1 6.29,-31 6.29,-66.17 z m 0.47,-82.95 c 0.23,-1.62 0.46,-3.96 0.69,-6.98 0.71,-15.61 1.17,-27.03 1.17,-34.02 0,-27.26 -2.79,-47.07 -8.39,-58.94 -5.58,-11.89 -14.91,-17.71 -27.72,-17.71 -14.21,0 -30.28,11.42 -48.46,34.48 -3.26,3.96 -5.6,6.99 -7.22,8.85 -12.58,15.15 -24.47,26.09 -35.88,32.85 -11.42,6.76 -23.77,10.02 -36.82,10.02 -14.44,0 -26.55,-5.13 -36.34,-15.14 -9.79,-10.02 -14.68,-22.6 -14.68,-38.21 0,-30.06 19.57,-55.22 58.48,-75.95 38.91,-20.51 87.83,-30.76 147.02,-30.76 65.46,0 115.33,12.58 149.1,37.51 33.79,24.94 50.8,61.5 50.8,109.73 0,12.58 -0.47,29.59 -1.17,50.8 -0.71,21.2 -1.17,36.11 -1.17,44.27 v 12.58 c 0,33.77 1.41,54.52 4.43,62.2 2.8,7.69 9.56,13.05 20.04,15.61 7.92,2.1 13.97,5.59 18.4,10.48 4.2,4.9 6.29,11.19 6.29,18.41 0,22.6 -13.98,43.8 -41.93,63.84 -27.96,20.04 -59.88,30.05 -95.99,30.05 -12.58,0 -23.07,-1.4 -31.22,-4.19 -8.39,-2.79 -15.84,-7.22 -22.13,-13.05 -3.5,-3.49 -8.16,-8.15 -13.75,-13.97 -8.86,-10.03 -15.15,-14.92 -19.11,-14.92 -3.96,0 -9.08,2.57 -15.37,7.69 -2.57,2.1 -4.67,3.49 -6.29,4.66 -15.85,11.41 -30.76,19.11 -44.51,23.53 -13.97,4.43 -30.28,6.76 -49.16,6.76 -43.8,0 -78.97,-11.88 -105.3,-35.65 -26.56,-23.53 -39.84,-54.75 -39.84,-93.19 0,-39.38 17.23,-72.45 51.95,-99.02 34.72,-26.56 77.58,-39.84 128.62,-39.84 8.61,0 18.16,0.47 29.12,1.64 10.71,1.15 22.83,3.02 36.34,5.58 z m 53.59,-240.9 c -16.78,0 -40.08,-5.59 -70.13,-16.54 -30.06,-10.95 -51.03,-16.31 -63.38,-16.31 -9.08,0 -16.54,2.1 -22.36,6.52 -5.83,4.43 -11.65,13.28 -17.48,26.33 -2.1,5.36 -4.42,8.85 -6.51,10.26 -2.34,1.39 -5.83,2.09 -10.72,2.09 -6.29,0 -11.89,-1.63 -16.54,-4.66 -4.67,-3.03 -7,-6.53 -7,-10.96 0,-5.82 2.1,-14.44 6.53,-25.62 4.42,-11.18 10.01,-22.37 17.01,-33.79 10.94,-16.77 22.13,-29.35 33.55,-37.5 11.41,-8.16 23.52,-12.11 36.34,-12.11 11.41,0 32.62,5.58 63.14,16.54 30.52,11.18 54.98,16.77 73.39,16.77 11.42,0 20.5,-2.1 26.79,-6.06 6.29,-3.96 11.89,-12.12 16.78,-24 1.86,-4.89 3.95,-8.15 6.52,-10.02 2.32,-1.62 5.59,-2.55 10.02,-2.55 9.55,0 16.07,1.15 19.1,3.25 3.03,2.33 4.67,6.76 4.67,13.29 0,25.16 -10.26,48.92 -30.53,71.29 -20.27,22.6 -43.33,33.78 -69.19,33.78 z m 401.89,224.36 c 0,17.47 1.86,36.82 5.82,58.02 3.96,21.19 9.08,41.7 15.84,61.27 6.29,19.34 13.75,34.02 21.9,43.8 8.16,9.79 17.01,14.68 27.03,14.68 11.41,0 20.27,-4.89 26.8,-14.92 6.51,-9.78 9.78,-23.29 9.78,-40.53 0,-51.49 -7.23,-95.99 -21.9,-133.5 -14.68,-37.52 -31.22,-56.15 -49.86,-56.15 -11.88,0 -20.73,5.59 -26.56,16.77 -5.82,11.19 -8.85,27.97 -8.85,50.56 z m -196.18,61.05 c 0,-34.26 7,-65.94 20.74,-94.83 13.74,-28.89 34.25,-54.52 61.51,-76.88 24.46,-20.75 52.41,-36.35 83.41,-47.3 30.98,-10.95 63.6,-16.31 97.84,-16.31 69.44,0 125.58,19.81 168.69,59.41 42.86,39.61 64.3,91.56 64.3,156.1 0,32.39 -6.29,63.14 -18.63,92.26 -12.58,29.13 -30.53,54.75 -53.83,76.89 -25.39,23.76 -53.82,41.7 -85.5,53.58 -31.69,12.12 -66.17,18.17 -103.44,18.17 -32.38,0 -61.98,-5.12 -89,-15.14 -27.03,-10.02 -51.03,-24.93 -72.23,-44.96 -23.99,-22.14 -42.17,-47.3 -54.75,-75.26 -12.82,-27.73 -19.11,-56.38 -19.11,-85.73 z m 1121.12,210.15 h -286.8 c -16.08,0 -28.89,-4.67 -37.98,-13.75 -9.09,-9.08 -13.74,-21.9 -13.74,-37.98 0,-16.07 9.54,-30.05 28.89,-42.16 8.62,-5.6 14.44,-10.03 17.94,-13.53 7.45,-8.37 12.81,-21.66 15.84,-39.83 3.03,-18.17 4.66,-56.61 4.66,-115.56 v -75.02 c 0,-58.01 -0.94,-96.69 -2.56,-116.03 -1.64,-19.33 -4.67,-31.22 -9.1,-36.11 -3.02,-3.03 -8.84,-6.05 -17.94,-8.86 -9.08,-2.55 -15.13,-4.65 -18.16,-6.29 -6.29,-4.65 -10.96,-9.78 -13.75,-15.14 -2.79,-5.36 -4.19,-12.34 -4.19,-20.73 0,-20.04 15.13,-35.65 45.66,-46.6 30.52,-10.95 74.09,-16.31 130.7,-16.31 55.68,0 97.86,4.89 126.28,14.68 28.19,10.02 42.4,24.69 42.4,44.26 0,17.48 -10.71,30.99 -32.15,41.01 -6.29,3.03 -11.41,5.59 -14.91,7.69 -7.22,4.89 -11.88,9.08 -13.97,12.58 -2.34,3.5 -4.2,9.56 -5.6,17.94 -1.4,11.42 -2.33,29.59 -3.03,54.52 -0.69,24.93 -0.93,61.27 -0.93,109.5 v 65.93 c 0,33.32 0.24,58.26 0.93,74.8 0.7,16.54 1.63,27.72 3.03,33.55 1.86,7.22 7.46,12.58 17.01,16.54 9.55,3.95 22.36,5.82 38.44,5.82 30.05,0 52.42,-3.96 67.56,-12.11 15.15,-7.93 27.04,-22.14 35.88,-42.41 1.87,-4.42 4.2,-10.49 6.76,-18.17 7.69,-22.6 19.1,-34.02 34.25,-34.02 15.61,0 29.12,6.29 40.08,19.11 10.94,12.81 16.54,28.88 16.54,48.23 0,18.17 -3.96,39.37 -12.11,63.83 -8.17,24.47 -17.95,44.97 -29.6,61.74 -6.76,10.02 -14.44,17.47 -22.83,22.83 -8.38,5.13 -17.24,7.7 -26.56,7.7 -0.93,0 -3.72,-0.47 -8.15,-1.41 -29.12,-6.75 -62.21,-10.24 -98.79,-10.24 z m 263.04,-156.1 v -113.47 c 0,-15.84 -1.4,-26.79 -4.2,-32.85 -2.8,-5.83 -8.15,-11.19 -15.84,-16.08 -1.64,-1.16 -3.5,-2.33 -5.6,-3.72 -15.6,-9.55 -23.29,-21.44 -23.29,-35.18 0,-10.95 3.96,-20.27 11.64,-27.72 7.7,-7.46 22.14,-15.15 43.34,-23.31 29.59,-11.41 60.34,-20.73 92.27,-27.49 31.91,-6.75 57.31,-10.25 76.41,-10.25 10.95,0 18.18,1.86 21.9,5.6 3.73,3.72 5.6,10.94 5.6,21.66 0,2.57 -1.64,28.43 -4.66,77.11 -3.27,48.94 -4.89,96.24 -4.89,142.13 0,33.32 3.72,56.62 10.94,69.89 7.22,13.28 19.34,19.81 36.35,19.81 21.2,0 35.88,-7.46 44.04,-22.37 8.15,-14.68 12.11,-42.4 12.11,-83.17 v -54.06 c 0,-16.31 -1.4,-27.26 -4.2,-33.08 -2.79,-5.82 -8.15,-11.18 -15.84,-16.31 -0.7,-0.47 -2.33,-1.4 -4.43,-2.8 -15.61,-9.55 -23.29,-21.43 -23.29,-35.64 0,-10.95 3.96,-20.27 11.64,-27.96 7.69,-7.69 21.68,-15.37 41.94,-23.07 28.89,-11.18 58.95,-20.27 90.4,-27.26 31.22,-6.98 55.92,-10.48 74.09,-10.48 11.41,0 18.87,2.1 22.13,6.29 3.03,4.43 4.67,18.41 4.67,42.17 0,29.82 -0.95,72.46 -2.81,127.91 -1.86,55.45 -2.79,95.75 -2.79,120.92 0,20.27 6.06,34.24 18.18,41.93 0.69,0.48 1.39,0.94 1.62,1.17 0.47,0.24 0.93,0.46 1.17,0.7 14.91,9.55 22.37,20.5 22.37,32.85 0,21.2 -19.58,39.15 -58.49,54.05 -39.13,14.91 -88.29,22.37 -147.7,22.37 -12.36,0 -19.81,-0.93 -22.37,-2.79 -2.79,-1.87 -4.67,-5.83 -5.36,-11.65 -0.24,-3.27 -0.7,-8.17 -1.17,-14.46 -0.69,-17.93 -5.82,-27.02 -15.37,-27.02 -5.36,0 -12.82,3.97 -22.37,12.12 -3.03,2.32 -5.13,3.96 -6.53,5.12 -18.4,14.21 -36.1,24.24 -53.11,30.06 -17.01,5.83 -35.89,8.62 -56.86,8.62 -48.21,0 -83.86,-13.05 -106.93,-39.15 -23.06,-26.09 -34.71,-66.39 -34.71,-121.14 z m 817.06,17.24 c 0,12.11 1.17,20.73 3.74,25.62 2.32,4.89 6.75,10.49 13.04,16.31 1.4,0.94 3.5,2.57 6.05,5.13 15.15,12.35 22.61,24.93 22.61,37.75 0,20.03 -12.12,35.17 -36.12,45.19 -24.23,10.26 -60.34,15.38 -108.09,15.38 -48.7,0 -86.21,-5.36 -112.54,-16.31 -26.33,-10.95 -39.61,-26.1 -39.61,-45.9 0,-13.75 8.39,-26.79 24.93,-39.37 h 0.47 c 1.17,-1.17 2.79,-2.33 4.66,-3.5 7.69,-6.29 12.34,-11.65 13.74,-16.54 2.1,-6.29 3.74,-17.24 4.43,-32.85 0.7,-15.61 1.17,-40.77 1.17,-75.49 v -18.17 c 0,-26.32 -1.64,-44.5 -4.67,-54.05 -3.26,-9.56 -9.55,-17.48 -18.63,-23.3 -0.7,-0.47 -2.33,-1.4 -4.67,-2.8 -16.3,-9.55 -24.45,-21.43 -24.45,-35.64 0,-10.95 3.95,-20.27 12.11,-27.72 7.92,-7.46 22.37,-15.15 43.57,-23.31 30.05,-11.41 61.04,-20.73 93.42,-27.49 32.16,-6.75 58.02,-10.25 77.58,-10.25 10.96,0 18.18,1.64 21.9,4.66 3.5,3.27 5.36,11.18 5.36,23.53 v 24.47 z m -131.63,-348.32 c -5.36,1.4 -10.48,2.34 -15.37,3.03 -4.9,0.71 -9.1,0.94 -13.05,0.94 -9.56,0 -17.24,-4.19 -22.83,-12.35 -5.84,-8.16 -8.63,-19.1 -8.63,-32.85 0,-5.59 2.33,-10.26 7,-14.22 4.42,-3.72 15.83,-8.84 34.01,-15.61 l 137.23,-48.92 c 0.69,-0.23 2.09,-0.69 3.96,-1.64 10.48,-3.48 18.41,-5.12 24.23,-5.12 7.91,0 15.61,6.76 22.83,20.51 7.22,13.75 10.72,28.88 10.72,45.2 0,6.99 -1.86,12.11 -5.83,15.37 -3.96,3.5 -11.64,6.53 -23.07,9.32 z m 585.02,352.51 c 0,42.17 -16.08,76.88 -48.46,103.67 -32.39,26.8 -74.55,40.31 -126.51,40.31 -19.33,0 -38.91,-2.56 -58.71,-7.45 -19.81,-4.89 -30.51,-7.46 -31.92,-7.46 -3.95,0 -10.25,1.64 -18.87,4.9 -8.62,3.25 -15.15,4.89 -19.57,4.89 -16.55,0 -34.02,-12.58 -52.19,-37.98 -18.17,-25.4 -27.26,-51.72 -27.26,-78.98 0,-16.55 3.04,-28.89 8.86,-37.28 5.82,-8.15 14.44,-12.35 26.32,-12.35 15.61,0 32.85,10.02 51.72,30.06 2.57,2.56 4.43,4.66 5.83,6.06 13.04,13.74 24.93,24 35.65,30.75 10.72,6.76 20.5,10.25 29.35,10.25 6.06,0 11.18,-1.86 15.61,-5.59 4.2,-3.49 6.29,-7.69 6.29,-12.58 0,-14.21 -13.51,-27.26 -40.53,-39.38 -9.33,-3.96 -16.55,-7.45 -21.9,-10.01 -35.19,-17.47 -61.75,-38.44 -80.15,-63.38 -18.4,-24.93 -27.5,-52.19 -27.5,-81.77 0,-39.61 16.55,-73.62 49.63,-102.28 32.86,-28.43 72.46,-42.64 118.82,-42.64 11.41,0 25.16,1.86 41.24,5.36 16.08,3.5 26.56,5.36 30.98,5.36 5.83,0 13.99,-2.33 24,-6.76 10.02,-4.43 17.24,-6.52 21.44,-6.52 17.01,0 34.48,11.88 52.42,35.64 17.94,24 27.02,48.23 27.02,72.93 0,14.45 -4.42,25.86 -13.04,34.48 -8.62,8.63 -20.03,13.05 -34.25,13.05 -8.15,0 -15.61,-1.63 -22.83,-4.66 -7.22,-3.03 -14.92,-7.93 -22.6,-14.91 -3.73,-3.5 -8.86,-8.39 -15.61,-15.15 -17.7,-18.4 -33.09,-27.48 -46.13,-27.48 -6.76,0 -12.34,2.09 -17.24,6.52 -4.89,4.42 -7.23,9.54 -7.23,15.61 0,11.42 16.31,24.93 48.93,40.54 10.02,4.43 17.7,8.15 23.3,11.18 41.94,21.2 71.53,42.86 89,64.76 17.47,21.9 26.09,48 26.09,78.29 z"
   id="path115"
   inkscape:connector-curvature="0"
   style="fill:#2c2a2c;fill-rule:nonzero" />
  <path
   class="fil10"
   d="m 8234.71,12553.97 c -46.82,0 -91.09,-6.29 -133.26,-18.87 -42.17,-12.36 -70.36,-26.57 -84.58,-42.17 -11.87,-13.75 -21.43,-32.86 -28.19,-57.79 -6.75,-24.92 -10.25,-52.65 -10.25,-83.64 0,-17.47 3.27,-30.52 9.56,-39.14 6.29,-8.39 16.54,-12.58 30.52,-12.58 17.47,0 34.48,12.81 51.26,38.21 5.82,8.62 10.24,14.91 13.74,19.33 19.33,24.94 39.84,43.81 61.98,56.62 21.9,12.82 44.96,19.11 68.96,19.11 17.94,0 32.38,-3.73 43.8,-10.95 11.18,-7.23 16.77,-16.31 16.77,-27.49 0,-15.15 -21.2,-29.83 -63.83,-44.51 -18.87,-6.51 -34.02,-12.11 -45.44,-16.54 -58.24,-22.59 -101.8,-50.56 -130.7,-84.11 -28.89,-33.54 -43.33,-72.92 -43.33,-118.12 0,-58.01 22.6,-106 68.03,-143.74 45.43,-37.75 103.44,-56.62 174.27,-56.62 26.33,0 52.65,2.79 78.98,8.61 26.32,5.83 39.61,8.63 40.3,8.63 6.77,0 15.85,-1.17 27.26,-3.73 11.18,-2.56 19.11,-3.73 23.54,-3.73 10.25,0 19.57,2.33 27.96,7 8.38,4.65 17.23,12.34 26.32,23.29 14.45,17.24 25.86,34.95 34.01,53.36 8.16,18.4 12.13,35.41 12.13,51.02 0,19.11 -5.6,34.48 -16.78,46.36 -11.41,11.88 -25.87,17.94 -43.34,17.94 -16.3,0 -37.51,-12.58 -63.6,-37.75 -8.15,-8.15 -14.68,-13.97 -19.58,-17.94 -11.87,-10.94 -25.39,-19.56 -40.53,-25.85 -15.14,-6.06 -30.75,-9.09 -46.6,-9.09 -15.61,0 -27.73,3.03 -36.35,9.09 -8.61,6.29 -13.04,14.91 -13.04,25.85 0,21.21 31.22,40.78 93.89,59.19 9.09,2.79 15.84,4.89 20.27,6.05 63.6,19.11 108.8,42.87 135.13,71.3 26.33,28.42 39.37,66.63 39.37,114.63 0,64.77 -25.62,117.41 -76.88,157.96 -51.25,40.54 -118.59,60.81 -201.77,60.81 z m 555.68,-187.55 c 0,-9.32 -1.17,-15.15 -3.26,-17.71 -2.34,-2.33 -8.39,-3.5 -17.95,-3.5 -13.51,0 -23.99,4.43 -31.21,13.51 -7.22,9.09 -10.96,22.14 -10.96,39.15 0,15.61 2.79,27.72 8.39,35.87 5.59,8.39 13.75,12.58 24.47,12.58 11.87,0 19.8,-4.65 24.23,-13.73 4.19,-9.1 6.29,-31 6.29,-66.17 z m 0.46,-82.95 c 0.23,-1.62 0.47,-3.96 0.69,-6.98 0.71,-15.61 1.17,-27.04 1.17,-34.02 0,-27.26 -2.79,-47.07 -8.39,-58.95 -5.58,-11.88 -14.9,-17.71 -27.72,-17.71 -14.21,0 -30.28,11.43 -48.46,34.48 -3.26,3.97 -5.6,7 -7.22,8.86 -12.58,15.15 -24.47,26.09 -35.88,32.85 -11.42,6.76 -23.77,10.02 -36.82,10.02 -14.44,0 -26.55,-5.13 -36.34,-15.14 -9.79,-10.02 -14.68,-22.6 -14.68,-38.21 0,-30.06 19.57,-55.22 58.48,-75.95 38.91,-20.51 87.83,-30.76 147.02,-30.76 65.46,0 115.33,12.58 149.1,37.51 33.79,24.93 50.8,61.5 50.8,109.73 0,12.58 -0.47,29.59 -1.17,50.8 -0.7,21.19 -1.17,36.11 -1.17,44.26 v 12.58 c 0,33.78 1.41,54.52 4.43,62.21 2.8,7.69 9.56,13.05 20.04,15.61 7.92,2.1 13.97,5.59 18.4,10.48 4.2,4.89 6.29,11.18 6.29,18.4 0,22.61 -13.97,43.81 -41.93,63.85 -27.96,20.03 -59.88,30.05 -95.99,30.05 -12.58,0 -23.07,-1.4 -31.22,-4.19 -8.39,-2.79 -15.84,-7.22 -22.13,-13.05 -3.5,-3.49 -8.16,-8.15 -13.75,-13.97 -8.86,-10.03 -15.15,-14.92 -19.11,-14.92 -3.96,0 -9.08,2.56 -15.37,7.68 -2.57,2.11 -4.67,3.5 -6.29,4.67 -15.85,11.41 -30.76,19.11 -44.51,23.53 -13.97,4.42 -30.28,6.76 -49.16,6.76 -43.8,0 -78.97,-11.89 -105.3,-35.65 -26.56,-23.53 -39.84,-54.76 -39.84,-93.19 0,-39.38 17.24,-72.46 51.95,-99.02 34.72,-26.56 77.58,-39.84 128.62,-39.84 8.61,0 18.16,0.46 29.12,1.63 10.72,1.16 22.83,3.02 36.34,5.59 z m 53.59,-240.9 c -16.78,0 -40.08,-5.6 -70.13,-16.54 -30.05,-10.96 -51.02,-16.31 -63.38,-16.31 -9.08,0 -16.54,2.1 -22.36,6.52 -5.83,4.43 -11.65,13.28 -17.48,26.33 -2.1,5.36 -4.42,8.85 -6.51,10.25 -2.34,1.4 -5.83,2.09 -10.72,2.09 -6.29,0 -11.89,-1.62 -16.54,-4.65 -4.67,-3.03 -7,-6.53 -7,-10.96 0,-5.82 2.1,-14.44 6.53,-25.62 4.42,-11.19 10.02,-22.37 17.01,-33.79 10.94,-16.77 22.13,-29.35 33.55,-37.5 11.41,-8.16 23.52,-12.12 36.34,-12.12 11.41,0 32.62,5.59 63.14,16.55 30.52,11.18 54.98,16.77 73.39,16.77 11.42,0 20.5,-2.1 26.79,-6.07 6.29,-3.95 11.89,-12.11 16.78,-23.99 1.86,-4.89 3.95,-8.15 6.52,-10.02 2.33,-1.63 5.6,-2.56 10.02,-2.56 9.55,0 16.07,1.16 19.1,3.26 3.03,2.33 4.67,6.76 4.67,13.29 0,25.15 -10.26,48.92 -30.53,71.28 -20.27,22.61 -43.33,33.79 -69.19,33.79 z m 401.89,224.36 c 0,17.47 1.86,36.82 5.82,58.01 3.97,21.2 9.09,41.71 15.84,61.28 6.29,19.33 13.75,34.01 21.9,43.8 8.17,9.79 17.01,14.68 27.03,14.68 11.42,0 20.27,-4.89 26.8,-14.92 6.52,-9.78 9.79,-23.3 9.79,-40.53 0,-51.49 -7.24,-95.99 -21.91,-133.51 -14.68,-37.51 -31.22,-56.14 -49.86,-56.14 -11.88,0 -20.73,5.59 -26.56,16.77 -5.82,11.18 -8.85,27.96 -8.85,50.56 z m -196.18,61.05 c 0,-34.26 7,-65.95 20.75,-94.83 13.73,-28.89 34.24,-54.52 61.5,-76.88 24.46,-20.75 52.42,-36.35 83.41,-47.3 30.98,-10.95 63.6,-16.31 97.85,-16.31 69.43,0 125.58,19.8 168.68,59.4 42.86,39.62 64.3,91.57 64.3,156.1 0,32.39 -6.29,63.15 -18.63,92.27 -12.58,29.12 -30.53,54.75 -53.83,76.89 -25.38,23.76 -53.81,41.7 -85.5,53.58 -31.69,12.12 -66.17,18.17 -103.44,18.17 -32.38,0 -61.98,-5.12 -89,-15.14 -27.02,-10.02 -51.02,-24.94 -72.23,-44.96 -23.99,-22.14 -42.17,-47.3 -54.75,-75.26 -12.82,-27.73 -19.11,-56.39 -19.11,-85.73 z m 1121.12,210.15 h -286.8 c -16.07,0 -28.89,-4.67 -37.97,-13.75 -9.1,-9.08 -13.75,-21.9 -13.75,-37.98 0,-16.08 9.55,-30.05 28.89,-42.17 8.62,-5.59 14.44,-10.02 17.94,-13.52 7.45,-8.38 12.81,-21.66 15.84,-39.84 3.03,-18.16 4.66,-56.61 4.66,-115.55 v -75.03 c 0,-58 -0.94,-96.68 -2.56,-116.02 -1.64,-19.33 -4.67,-31.22 -9.1,-36.11 -3.02,-3.03 -8.84,-6.05 -17.93,-8.86 -9.09,-2.55 -15.14,-4.65 -18.17,-6.29 -6.29,-4.65 -10.96,-9.78 -13.75,-15.14 -2.79,-5.36 -4.19,-12.34 -4.19,-20.73 0,-20.04 15.14,-35.65 45.67,-46.6 30.51,-10.96 74.08,-16.31 130.7,-16.31 55.67,0 97.85,4.89 126.27,14.68 28.19,10.02 42.4,24.69 42.4,44.26 0,17.48 -10.71,30.99 -32.15,41.01 -6.29,3.03 -11.41,5.59 -14.91,7.69 -7.22,4.89 -11.88,9.08 -13.97,12.58 -2.34,3.49 -4.2,9.56 -5.6,17.94 -1.4,11.42 -2.33,29.58 -3.03,54.52 -0.69,24.93 -0.93,61.27 -0.93,109.5 v 65.93 c 0,33.32 0.24,58.25 0.93,74.8 0.7,16.54 1.63,27.72 3.03,33.54 1.86,7.23 7.46,12.58 17.01,16.55 9.55,3.95 22.36,5.82 38.44,5.82 30.05,0 52.42,-3.96 67.57,-12.11 15.14,-7.93 27.03,-22.14 35.87,-42.41 1.88,-4.43 4.2,-10.49 6.76,-18.17 7.7,-22.6 19.11,-34.02 34.25,-34.02 15.61,0 29.12,6.29 40.08,19.11 10.94,12.81 16.54,28.88 16.54,48.23 0,18.16 -3.96,39.37 -12.11,63.83 -8.17,24.46 -17.95,44.97 -29.6,61.74 -6.76,10.02 -14.44,17.47 -22.83,22.83 -8.38,5.13 -17.24,7.7 -26.56,7.7 -0.93,0 -3.72,-0.47 -8.15,-1.41 -29.12,-6.76 -62.21,-10.24 -98.79,-10.24 z m 263.04,-156.1 v -113.47 c 0,-15.85 -1.4,-26.79 -4.2,-32.85 -2.79,-5.83 -8.15,-11.19 -15.84,-16.08 -1.63,-1.16 -3.5,-2.33 -5.6,-3.72 -15.6,-9.55 -23.29,-21.44 -23.29,-35.18 0,-10.95 3.96,-20.28 11.65,-27.72 7.69,-7.46 22.13,-15.15 43.33,-23.31 29.59,-11.41 60.34,-20.73 92.27,-27.49 31.92,-6.75 57.31,-10.25 76.41,-10.25 10.96,0 18.18,1.86 21.9,5.6 3.74,3.72 5.6,10.94 5.6,21.66 0,2.56 -1.64,28.43 -4.66,77.11 -3.27,48.94 -4.89,96.23 -4.89,142.12 0,33.33 3.72,56.62 10.94,69.9 7.22,13.28 19.34,19.81 36.35,19.81 21.2,0 35.88,-7.46 44.04,-22.37 8.15,-14.68 12.11,-42.4 12.11,-83.17 v -54.06 c 0,-16.31 -1.4,-27.26 -4.2,-33.08 -2.79,-5.83 -8.15,-11.18 -15.84,-16.32 -0.7,-0.46 -2.33,-1.39 -4.43,-2.79 -15.61,-9.55 -23.29,-21.43 -23.29,-35.64 0,-10.95 3.96,-20.28 11.65,-27.96 7.68,-7.69 21.67,-15.37 41.93,-23.07 28.89,-11.18 58.95,-20.27 90.4,-27.26 31.22,-6.98 55.92,-10.48 74.09,-10.48 11.41,0 18.87,2.1 22.13,6.29 3.03,4.43 4.67,18.4 4.67,42.17 0,29.82 -0.94,72.45 -2.81,127.9 -1.86,55.45 -2.79,95.76 -2.79,120.93 0,20.27 6.06,34.24 18.18,41.93 0.69,0.47 1.39,0.94 1.62,1.17 0.47,0.24 0.93,0.46 1.17,0.7 14.91,9.55 22.37,20.49 22.37,32.85 0,21.19 -19.58,39.14 -58.48,54.05 -39.14,14.91 -88.3,22.37 -147.71,22.37 -12.36,0 -19.8,-0.93 -22.37,-2.8 -2.79,-1.86 -4.67,-5.82 -5.36,-11.64 -0.24,-3.27 -0.7,-8.17 -1.17,-14.46 -0.69,-17.94 -5.82,-27.02 -15.37,-27.02 -5.36,0 -12.82,3.96 -22.37,12.12 -3.03,2.32 -5.13,3.96 -6.52,5.12 -18.41,14.21 -36.11,24.24 -53.12,30.06 -17,5.82 -35.88,8.62 -56.85,8.62 -48.22,0 -83.87,-13.05 -106.94,-39.15 -23.06,-26.09 -34.71,-66.39 -34.71,-121.14 z m 817.06,17.23 c 0,12.12 1.17,20.74 3.74,25.63 2.33,4.89 6.75,10.49 13.04,16.31 1.4,0.93 3.5,2.57 6.05,5.12 15.15,12.36 22.61,24.94 22.61,37.75 0,20.04 -12.11,35.18 -36.12,45.2 -24.22,10.25 -60.34,15.37 -108.09,15.37 -48.7,0 -86.21,-5.35 -112.54,-16.3 -26.33,-10.95 -39.61,-26.1 -39.61,-45.9 0,-13.75 8.39,-26.8 24.93,-39.37 h 0.47 c 1.17,-1.17 2.79,-2.33 4.66,-3.5 7.69,-6.29 12.35,-11.65 13.74,-16.54 2.1,-6.29 3.74,-17.24 4.43,-32.85 0.7,-15.61 1.17,-40.77 1.17,-75.49 v -18.18 c 0,-26.31 -1.64,-44.49 -4.67,-54.04 -3.26,-9.56 -9.55,-17.48 -18.63,-23.31 -0.7,-0.46 -2.33,-1.39 -4.66,-2.79 -16.31,-9.55 -24.46,-21.43 -24.46,-35.64 0,-10.95 3.95,-20.28 12.11,-27.72 7.92,-7.46 22.37,-15.15 43.57,-23.31 30.05,-11.41 61.04,-20.73 93.43,-27.49 32.15,-6.75 58.01,-10.25 77.57,-10.25 10.96,0 18.18,1.63 21.9,4.65 3.5,3.27 5.36,11.19 5.36,23.54 v 24.47 z m -131.63,-348.31 c -5.36,1.4 -10.48,2.34 -15.37,3.03 -4.9,0.71 -9.1,0.93 -13.05,0.93 -9.56,0 -17.24,-4.19 -22.83,-12.34 -5.83,-8.16 -8.63,-19.11 -8.63,-32.85 0,-5.59 2.33,-10.26 7,-14.22 4.42,-3.72 15.83,-8.84 34.01,-15.61 l 137.23,-48.92 c 0.69,-0.23 2.09,-0.7 3.96,-1.64 10.48,-3.48 18.41,-5.12 24.23,-5.12 7.91,0 15.61,6.76 22.83,20.51 7.22,13.75 10.72,28.88 10.72,45.19 0,7 -1.86,12.12 -5.82,15.38 -3.97,3.49 -11.65,6.53 -23.07,9.32 z m 585.02,352.5 c 0,42.18 -16.07,76.89 -48.45,103.68 -32.4,26.8 -74.56,40.31 -126.52,40.31 -19.33,0 -38.9,-2.56 -58.71,-7.45 -19.81,-4.89 -30.51,-7.46 -31.92,-7.46 -3.95,0 -10.25,1.64 -18.87,4.89 -8.62,3.26 -15.15,4.9 -19.57,4.9 -16.55,0 -34.02,-12.58 -52.18,-37.98 -18.18,-25.4 -27.26,-51.73 -27.26,-78.99 0,-16.54 3.03,-28.88 8.85,-37.27 5.83,-8.15 14.44,-12.35 26.32,-12.35 15.61,0 32.86,10.02 51.73,30.06 2.56,2.56 4.42,4.66 5.82,6.05 13.05,13.75 24.93,24 35.65,30.76 10.72,6.76 20.5,10.25 29.35,10.25 6.06,0 11.18,-1.86 15.61,-5.6 4.2,-3.48 6.29,-7.68 6.29,-12.57 0,-14.21 -13.51,-27.26 -40.53,-39.38 -9.32,-3.96 -16.54,-7.45 -21.9,-10.01 -35.19,-17.48 -61.74,-38.45 -80.15,-63.38 -18.4,-24.93 -27.5,-52.19 -27.5,-81.78 0,-39.6 16.55,-73.61 49.63,-102.27 32.86,-28.43 72.46,-42.64 118.83,-42.64 11.41,0 25.15,1.86 41.23,5.36 16.08,3.49 26.56,5.36 30.99,5.36 5.82,0 13.98,-2.33 24,-6.76 10.01,-4.43 17.23,-6.52 21.43,-6.52 17.01,0 34.48,11.88 52.42,35.64 17.94,24 27.02,48.23 27.02,72.93 0,14.45 -4.42,25.86 -13.04,34.48 -8.62,8.62 -20.03,13.05 -34.25,13.05 -8.15,0 -15.61,-1.63 -22.83,-4.66 -7.22,-3.04 -14.92,-7.93 -22.6,-14.91 -3.73,-3.5 -8.86,-8.39 -15.61,-15.15 -17.7,-18.4 -33.09,-27.48 -46.13,-27.48 -6.76,0 -12.34,2.09 -17.24,6.51 -4.89,4.43 -7.23,9.55 -7.23,15.61 0,11.43 16.32,24.94 48.93,40.55 10.02,4.43 17.7,8.15 23.3,11.18 41.94,21.2 71.53,42.86 89,64.76 17.47,21.9 26.09,48 26.09,78.28 z"
   id="path117"
   inkscape:connector-curvature="0"
   style="fill:#f9023c;fill-rule:nonzero" />
 </g>
</svg>