<?xml version="1.0" encoding="UTF-8" standalone="no"?>
<!-- Created with Inkscape (http://www.inkscape.org/) -->

<svg
   xmlns:dc="http://purl.org/dc/elements/1.1/"
   xmlns:cc="http://creativecommons.org/ns#"
   xmlns:rdf="http://www.w3.org/1999/02/22-rdf-syntax-ns#"
   xmlns:svg="http://www.w3.org/2000/svg"
   xmlns="http://www.w3.org/2000/svg"
   xmlns:xlink="http://www.w3.org/1999/xlink"
   xmlns:sodipodi="http://sodipodi.sourceforge.net/DTD/sodipodi-0.dtd"
   xmlns:inkscape="http://www.inkscape.org/namespaces/inkscape"
   version="1.0"
   width="620pt"
   height="180pt"
   id="svg2"
   sodipodi:version="0.32"
   inkscape:version="0.91 r13725"
   sodipodi:docname="python-logo-generic.svg"
   inkscape:export-filename="/Users/taniaa/Desktop/logo_apyb/apyb-logo.png"
   inkscape:export-xdpi="90"
   inkscape:export-ydpi="90">
  <metadata
     id="metadata2193">
    <rdf:RDF>
      <cc:Work
         rdf:about="">
        <dc:format>image/svg+xml</dc:format>
        <dc:type
           rdf:resource="http://purl.org/dc/dcmitype/StillImage" />
        <dc:title></dc:title>
      </cc:Work>
    </rdf:RDF>
  </metadata>
  <sodipodi:namedview
     inkscape:window-height="756"
     inkscape:window-width="1280"
     inkscape:pageshadow="2"
     inkscape:pageopacity="0.0"
     borderopacity="1.0"
     bordercolor="#666666"
     pagecolor="#ffffff"
     id="base"
     inkscape:zoom="1.4735484"
     inkscape:cx="387.5"
     inkscape:cy="112.5"
     inkscape:window-x="-7"
     inkscape:window-y="0"
     inkscape:current-layer="svg2"
     showgrid="false"
     inkscape:window-maximized="0" />
  <defs
     id="defs4">
    <linearGradient
       id="linearGradient2795">
      <stop
         style="stop-color:#b8b8b8;stop-opacity:0.49803922"
         offset="0"
         id="stop2797" />
      <stop
         style="stop-color:#7f7f7f;stop-opacity:0"
         offset="1"
         id="stop2799" />
    </linearGradient>
    <linearGradient
       id="linearGradient2787">
      <stop
         style="stop-color:#7f7f7f;stop-opacity:0.5"
         offset="0"
         id="stop2789" />
      <stop
         style="stop-color:#7f7f7f;stop-opacity:0"
         offset="1"
         id="stop2791" />
    </linearGradient>
    <linearGradient
       id="linearGradient3676">
      <stop
         style="stop-color:#b2b2b2;stop-opacity:0.5"
         offset="0"
         id="stop3678" />
      <stop
         style="stop-color:#b3b3b3;stop-opacity:0"
         offset="1"
         id="stop3680" />
    </linearGradient>
    <linearGradient
       id="linearGradient3236">
      <stop
         style="stop-color:#f4f4f4;stop-opacity:1"
         offset="0"
         id="stop3244" />
      <stop
         style="stop-color:#ffffff;stop-opacity:1"
         offset="1"
         id="stop3240" />
    </linearGradient>
    <linearGradient
       id="linearGradient4671">
      <stop
         style="stop-color:#ffd43b;stop-opacity:1"
         offset="0"
         id="stop4673" />
      <stop
         style="stop-color:#ffe873;stop-opacity:1"
         offset="1"
         id="stop4675" />
    </linearGradient>
    <linearGradient
       id="linearGradient4689">
      <stop
         style="stop-color:#5a9fd4;stop-opacity:1"
         offset="0"
         id="stop4691" />
      <stop
         style="stop-color:#306998;stop-opacity:1"
         offset="1"
         id="stop4693" />
    </linearGradient>
    <linearGradient
       x1="224.23996"
       y1="144.75717"
       x2="-65.308502"
       y2="144.75717"
       id="linearGradient2987"
       xlink:href="#linearGradient4671"
       gradientUnits="userSpaceOnUse"
       gradientTransform="translate(100.2702,99.61116)" />
    <linearGradient
       x1="172.94208"
       y1="77.475983"
       x2="26.670298"
       y2="76.313133"
       id="linearGradient2990"
       xlink:href="#linearGradient4689"
       gradientUnits="userSpaceOnUse"
       gradientTransform="translate(100.2702,99.61116)" />
    <linearGradient
       x1="172.94208"
       y1="77.475983"
       x2="26.670298"
       y2="76.313133"
       id="linearGradient2587"
       xlink:href="#linearGradient4689"
       gradientUnits="userSpaceOnUse"
       gradientTransform="translate(100.2702,99.61116)" />
    <linearGradient
       x1="224.23996"
       y1="144.75717"
       x2="-65.308502"
       y2="144.75717"
       id="linearGradient2589"
       xlink:href="#linearGradient4671"
       gradientUnits="userSpaceOnUse"
       gradientTransform="translate(100.2702,99.61116)" />
    <linearGradient
       x1="172.94208"
       y1="77.475983"
       x2="26.670298"
       y2="76.313133"
       id="linearGradient2248"
       xlink:href="#linearGradient4689"
       gradientUnits="userSpaceOnUse"
       gradientTransform="translate(100.2702,99.61116)" />
    <linearGradient
       x1="224.23996"
       y1="144.75717"
       x2="-65.308502"
       y2="144.75717"
       id="linearGradient2250"
       xlink:href="#linearGradient4671"
       gradientUnits="userSpaceOnUse"
       gradientTransform="translate(100.2702,99.61116)" />
    <linearGradient
       x1="224.23996"
       y1="144.75717"
       x2="-65.308502"
       y2="144.75717"
       id="linearGradient2255"
       xlink:href="#linearGradient4671"
       gradientUnits="userSpaceOnUse"
       gradientTransform="matrix(0.562541,0,0,0.567972,-11.5974,-7.60954)" />
    <linearGradient
       x1="172.94208"
       y1="76.176224"
       x2="26.670298"
       y2="76.313133"
       id="linearGradient2258"
       xlink:href="#linearGradient4689"
       gradientUnits="userSpaceOnUse"
       gradientTransform="matrix(0.562541,0,0,0.567972,-11.5974,-7.60954)" />
    <radialGradient
       cx="61.518883"
       cy="132.28575"
       r="29.036913"
       fx="61.518883"
       fy="132.28575"
       id="radialGradient2801"
       xlink:href="#linearGradient2795"
       gradientUnits="userSpaceOnUse"
       gradientTransform="matrix(1,0,0,0.177966,0,108.7434)" />
    <linearGradient
       x1="150.96111"
       y1="192.35176"
       x2="112.03144"
       y2="137.27299"
       id="linearGradient1475"
       xlink:href="#linearGradient4671"
       gradientUnits="userSpaceOnUse"
       gradientTransform="matrix(0.562541,0,0,0.567972,-3.399749,13.91968)" />
    <linearGradient
       x1="26.648937"
       y1="20.603781"
       x2="135.66525"
       y2="114.39767"
       id="linearGradient1478"
       xlink:href="#linearGradient4689"
       gradientUnits="userSpaceOnUse"
       gradientTransform="matrix(0.562541,0,0,0.567972,-3.399749,13.91968)" />
    <radialGradient
       cx="61.518883"
       cy="132.28575"
       r="29.036913"
       fx="61.518883"
       fy="132.28575"
       id="radialGradient1480"
       xlink:href="#linearGradient2795"
       gradientUnits="userSpaceOnUse"
       gradientTransform="matrix(1.7490565e-8,-0.23994696,1.054668,3.7915457e-7,-72.109429,168.08406)" />
  </defs>
  <path
     inkscape:connector-curvature="0"
     d="m 190.61344,81.15436 c 0,-14.56215 -4.15226,-22.03817 -12.45678,-22.44755 -3.30427,-0.15595 -6.53055,0.37039 -9.66912,1.58878 -2.505,0.89673 -4.19124,1.78372 -5.07823,2.68045 l 0,34.75812 c 5.31216,3.33351 10.02976,4.88329 14.14303,4.63962 8.70415,-0.57508 13.0611,-7.64172 13.0611,-21.21942 z m 10.24419,0.60432 c 0,7.39804 -1.73498,13.53871 -5.22444,18.422 -3.88909,5.5266 -9.27923,8.37275 -16.17042,8.52871 -5.1952,0.1657 -10.54635,-1.46207 -16.05346,-4.87355 l 0,31.59032 -8.90884,-3.17755 0,-70.12057 c 1.46206,-1.79346 3.34325,-3.3335 5.62407,-4.63961 5.30242,-3.08983 11.74524,-4.67861 19.32848,-4.75658 l 0.12671,0.12671 c 6.93018,-0.0877 12.27159,2.75843 16.02422,8.5287 3.4992,5.29267 5.25368,12.07665 5.25368,20.37142 z"
     style="fill:#646464;fill-opacity:1"
     id="path46" />
  <path
     inkscape:connector-curvature="0"
     d="m 255.30487,102.49074 c 0,9.92254 -0.9942,16.79424 -2.9826,20.6151 -1.99816,3.82086 -5.79952,6.8717 -11.41385,9.14277 -4.55189,1.79346 -9.47417,2.76817 -14.75709,2.93387 l -1.47181,-5.61432 c 5.37064,-0.73103 9.15252,-1.46207 11.34561,-2.1931 4.31796,-1.46206 7.28108,-3.70389 8.90884,-6.706 1.30611,-2.44652 1.94942,-7.11537 1.94942,-14.02606 l 0,-2.3198 c -6.09193,2.76817 -12.47628,4.14251 -19.15303,4.14251 -4.38619,0 -8.25579,-1.37434 -11.58929,-4.14251 -3.74289,-3.01186 -5.61433,-6.83272 -5.61433,-11.46258 l 0,-37.07793 8.90884,-3.05084 0,37.3216 c 0,3.98656 1.28662,7.0569 3.85985,9.21101 2.57323,2.1541 5.90674,3.18729 9.99077,3.10932 4.08403,-0.0877 8.46047,-1.66676 13.10983,-4.75658 l 0,-43.54025 8.90884,0 0,48.41379 z"
     style="fill:#646464;fill-opacity:1"
     id="path48" />
  <path
     inkscape:connector-curvature="0"
     d="m 290.08249,108.22203 c -1.06243,0.0877 -2.03714,0.12671 -2.93387,0.12671 -5.03925,0 -8.96733,-1.19889 -11.77449,-3.60642 -2.79742,-2.40753 -4.20099,-5.73129 -4.20099,-9.97127 l 0,-35.08953 -6.10168,0 0,-5.60457 6.10168,0 0,-14.88381 8.89909,-3.16781 0,18.05162 10.01026,0 0,5.60457 -10.01026,0 0,34.84585 c 0,3.34325 0.89673,5.71179 2.6902,7.09588 1.54004,1.14041 3.98656,1.79347 7.32006,1.95917 l 0,4.63961 z"
     style="fill:#646464;fill-opacity:1"
     id="path50" />
  <path
     inkscape:connector-curvature="0"
     d="m 344.02288,107.491 -8.90884,0 0,-34.38773 c 0,-3.49921 -0.81876,-6.51106 -2.44651,-9.02581 -1.88119,-2.84615 -4.49342,-4.26923 -7.84641,-4.26923 -4.08404,0 -9.19152,2.15411 -15.32242,6.46233 l 0,41.22044 -8.90885,0 0,-82.19721 8.90885,-2.80716 0,37.43857 c 5.6923,-4.14251 11.91093,-6.21864 18.66566,-6.21864 4.7176,0 8.53846,1.58877 11.46258,4.75658 2.93388,3.1678 4.39594,7.11537 4.39594,11.83296 l 0,37.1949 0,0 z"
     style="fill:#646464;fill-opacity:1"
     id="path52" />
  <path
     inkscape:connector-curvature="0"
     d="m 391.37424,79.75078 c 0,-5.59483 -1.06242,-10.21495 -3.17755,-13.87011 -2.51474,-4.45442 -6.42332,-6.80347 -11.70625,-7.04715 -9.76658,0.56534 -14.64012,7.56375 -14.64012,20.97574 0,6.15042 1.01369,11.28713 3.06057,15.41015 2.61223,5.25368 6.53056,7.84641 11.755,7.75869 9.80557,-0.078 14.70835,-7.81717 14.70835,-23.22732 z m 9.75685,0.0585 c 0,7.96338 -2.03714,14.5914 -6.10168,19.88407 -4.47391,5.92623 -10.65357,8.89909 -18.53897,8.89909 -7.81716,0 -13.90909,-2.97286 -18.30503,-8.89909 -3.98656,-5.29267 -5.97497,-11.92069 -5.97497,-19.88407 0,-7.48576 2.15411,-13.78238 6.46232,-18.90935 4.5519,-5.43888 10.53661,-8.16806 17.93464,-8.16806 7.39805,0 13.42174,2.72918 18.06137,8.16806 4.3082,5.12697 6.46232,11.42359 6.46232,18.90935 z"
     style="fill:#646464;fill-opacity:1"
     id="path54" />
  <path
     inkscape:connector-curvature="0"
     d="m 452.20583,107.491 -8.90884,0 0,-36.33715 c 0,-3.98656 -1.19889,-7.09588 -3.59667,-9.33772 -2.39779,-2.23208 -5.59483,-3.31401 -9.58139,-3.22628 -4.23023,0.078 -8.25579,1.46206 -12.07664,4.14251 l 0,44.75864 -8.90884,0 0,-45.86006 c 5.12697,-3.73313 9.84456,-6.16991 14.15276,-7.31032 4.06455,-1.06243 7.65148,-1.58877 10.74131,-1.58877 2.11512,0 4.10352,0.20469 5.97496,0.61406 3.49921,0.80901 6.34535,2.31006 8.53845,4.51291 2.44651,2.43677 3.6649,5.3609 3.6649,8.78212 l 0,40.85006 z"
     style="fill:#646464;fill-opacity:1"
     id="path56" />
  <path
     inkscape:connector-curvature="0"
     d="m 66.510156,25.62297 c -4.583653,0.0213 -8.960939,0.41222 -12.8125,1.09375 -11.346216,2.00451 -13.406249,6.20011 -13.40625,13.9375 l 0,10.21875 26.8125,0 0,3.40625 -26.8125,0 -10.0625,0 c -7.792459,0 -14.615759,4.68372 -16.75,13.59375 -2.46182,10.21297 -2.571015,16.58603 0,27.25 1.905928,7.93786 6.457543,13.59375 14.25,13.59375 l 9.21875,0 0,-12.25 c 0,-8.8499 7.657144,-16.65625 16.75,-16.65625 l 26.78125,0 c 7.454951,0 13.406253,-6.13816 13.40625,-13.625 l 0,-25.53125 c 0,-7.26634 -6.12998,-12.72477 -13.40625,-13.9375 C 75.872919,25.95 71.093809,25.60167 66.510156,25.62297 Z m -14.5,8.21875 c 2.769547,0 5.03125,2.29865 5.03125,5.125 -2e-6,2.81634 -2.261703,5.09375 -5.03125,5.09375 -2.779476,0 -5.03125,-2.27741 -5.03125,-5.09375 -1e-6,-2.82635 2.251774,-5.125 5.03125,-5.125 z"
     style="fill:url(#linearGradient1478);fill-opacity:1"
     id="path1948" />
  <path
     inkscape:connector-curvature="0"
     d="m 97.228906,54.27922 0,11.90625 c 0,9.23076 -7.825895,17 -16.75,17 l -26.78125,0 c -7.335833,0 -13.406249,6.27849 -13.40625,13.625 l 0,25.53125 c 0,7.26634 6.318588,11.54032 13.40625,13.625 8.487331,2.49561 16.626237,2.94663 26.78125,0 6.750155,-1.95439 13.406253,-5.88761 13.40625,-13.625 l 0,-10.21875 -26.78125,0 0,-3.40625 26.78125,0 13.406254,0 c 7.79246,0 10.69625,-5.4354 13.40624,-13.59375 2.79933,-8.39888 2.68022,-16.47577 0,-27.25 -1.92578,-7.75744 -5.60387,-13.59375 -13.40624,-13.59375 l -10.062504,0 z m -15.0625,64.65625 c 2.779478,1e-5 5.03125,2.27742 5.03125,5.09375 -2e-6,2.82635 -2.251775,5.125 -5.03125,5.125 -2.76955,0 -5.03125,-2.29865 -5.03125,-5.125 2e-6,-2.81633 2.261697,-5.09375 5.03125,-5.09375 z"
     style="fill:url(#linearGradient1475);fill-opacity:1"
     id="path1950" />
  <path
     inkscape:connector-curvature="0"
     d="m 469.5544,46.13438 1.56195,0 0,-9.79624 3.70013,0 0,-1.16766 -8.96221,0 0,1.16766 3.70013,0 0,9.79624 m 6.64702,0 1.33447,0 0,-8.94703 2.89641,8.94591 1.48569,0 3.01816,-8.91558 0,8.9167 1.45579,0 0,-10.9639 -1.92589,0 -3.29831,9.39286 -2.81297,-9.39286 -2.15335,0 0,10.9639"
     style="font-style:normal;font-weight:normal;font-size:15.16445827px;line-height:125%;font-family:'Bitstream Vera Sans';fill:#646464;fill-opacity:1;stroke:none;stroke-width:1px;stroke-linecap:butt;stroke-linejoin:miter;stroke-opacity:1"
     id="text3004" />
  <path
     inkscape:connector-curvature="0"
     d="m 103.33911,153.32284 a 35.930979,6.9673131 0 0 1 -71.861956,0 35.930979,6.9673131 0 1 1 71.861956,0 z"
     style="opacity:0.44382019;fill:url(#radialGradient1480);fill-opacity:1;fill-rule:nonzero;stroke:none;stroke-width:20;stroke-miterlimit:4;stroke-dasharray:none;stroke-opacity:1"
     id="path1894" />
  <g
     style="font-style:normal;font-weight:normal;font-size:119.44598389px;line-height:125%;font-family:Sans;letter-spacing:0px;word-spacing:0px;fill:#b3b3b3;fill-opacity:1;stroke:none;stroke-width:1px;stroke-linecap:butt;stroke-linejoin:miter;stroke-opacity:1"
     id="text3555">
    <path
       d="m 486.43707,100.81854 q 0,2.50837 -1.79169,4.30006 -1.79169,1.79169 -4.18061,1.79169 l 0.11945,0 q -2.62781,0 -4.53895,-1.79169 -1.79169,-1.79169 -1.79169,-4.30006 0,-2.627809 1.67225,-4.419499 1.79169,-1.911136 4.30005,-1.911136 2.62781,0 4.4195,1.911136 1.79169,1.79169 1.79169,4.419499 z"
       style="font-style:normal;font-variant:normal;font-weight:normal;font-stretch:normal;font-size:119.44598389px;line-height:125%;font-family:FluxRegular;-inkscape-font-specification:'FluxRegular, Normal';text-align:start;writing-mode:lr-tb;text-anchor:start;fill:#b3b3b3"
       id="path3382" />
    <path
       d="m 545.16344,78.721035 q 0,11.705707 -5.9723,19.469696 -6.56953,8.719559 -18.15579,8.719559 -11.46682,0 -17.9169,-8.719559 -5.85285,-7.763989 -5.85285,-19.469696 0,-10.98903 6.33063,-18.514127 6.68898,-8.002881 17.55856,-8.002881 10.86959,0 17.67801,8.002881 6.33064,7.525097 6.33064,18.514127 z m -9.55568,0 q 0,-8.241772 -3.1056,-13.616842 -3.70282,-6.569529 -11.46681,-6.927867 -14.33352,0.836122 -14.33352,20.544709 l 0.11944,0 q 0,9.077895 2.98615,15.16964 3.82228,7.763985 11.46682,7.644545 14.33352,-0.11945 14.33352,-22.814185 z"
       style="font-style:normal;font-variant:normal;font-weight:normal;font-stretch:normal;font-size:119.44598389px;line-height:125%;font-family:FluxRegular;-inkscape-font-specification:'FluxRegular, Normal';text-align:start;writing-mode:lr-tb;text-anchor:start;fill:#b3b3b3"
       id="path3384" />
    <path
       d="m 585.65376,52.442919 q -1.19446,2.38892 -3.46393,7.047313 -3.34449,-0.716676 -4.89729,-0.716676 l -0.11945,0 q -7.16676,0 -12.78072,4.777839 l 0,42.283875 -8.71955,0 0,-43.478334 q 4.89728,-5.494516 12.42238,-8.122327 6.56953,-2.38892 11.70571,-2.38892 2.8667,0 5.85285,0.59723 z"
       style="font-style:normal;font-variant:normal;font-weight:normal;font-stretch:normal;font-size:119.44598389px;line-height:125%;font-family:FluxRegular;-inkscape-font-specification:'FluxRegular, Normal';text-align:start;writing-mode:lr-tb;text-anchor:start;fill:#b3b3b3"
       id="path3386" />
    <path
       d="M 638.69711,61.879152 638.57766,102.013 q 0,13.37795 -3.10559,18.99191 -2.98615,5.73341 -11.10848,8.95845 -6.80842,2.74726 -14.45297,2.98615 l -1.3139,-5.49451 q 7.88343,-1.07502 11.10848,-2.15003 6.33063,-2.15003 8.71955,-6.56953 1.91114,-3.58338 1.91114,-13.73629 0,-3.70282 0,-3.70282 -8.36122,5.49451 -16.96133,5.49451 -10.03346,0 -15.64743,-8.839001 -5.01673,-7.525097 -5.01673,-18.15579 0,-10.152908 5.13618,-18.155789 5.85285,-9.316787 15.40853,-9.316787 14.45297,0 25.442,9.555679 z m -8.71956,33.683767 0,-32.608753 q -7.5251,-4.658394 -13.4974,-4.658394 -7.40565,0 -11.22792,7.644543 -2.98615,5.852853 -2.98615,14.094626 0,7.763989 2.86671,13.616842 3.70282,7.286207 10.75013,7.286207 5.25563,0 14.09463,-5.375071 z"
       style="font-style:normal;font-variant:normal;font-weight:normal;font-stretch:normal;font-size:119.44598389px;line-height:125%;font-family:FluxRegular;-inkscape-font-specification:'FluxRegular, Normal';text-align:start;writing-mode:lr-tb;text-anchor:start;fill:#b3b3b3"
       id="path3388" />
    <path
       d="m 663.97299,100.81854 q 0,2.50837 -1.79169,4.30006 -1.79169,1.79169 -4.18061,1.79169 l 0.11945,0 q -2.62781,0 -4.53895,-1.79169 -1.79169,-1.79169 -1.79169,-4.30006 0,-2.627809 1.67224,-4.419499 1.79169,-1.911136 4.30006,-1.911136 2.62781,0 4.4195,1.911136 1.79169,1.79169 1.79169,4.419499 z"
       style="font-style:normal;font-variant:normal;font-weight:normal;font-stretch:normal;font-size:119.44598389px;line-height:125%;font-family:FluxRegular;-inkscape-font-specification:'FluxRegular, Normal';text-align:start;writing-mode:lr-tb;text-anchor:start;fill:#b3b3b3"
       id="path3390" />
    <path
       d="m 723.65493,78.482143 q 0,12.064045 -5.49452,20.066926 -5.85285,8.600111 -15.52798,8.361221 l 0,-0.11945 q -15.88631,-0.59723 -24.24753,-9.077893 l 0,-72.26482 8.48066,-2.866704 0,34.280997 q 8.00288,-4.897285 15.76687,-4.658393 10.15291,0.358338 15.88632,8.361219 5.13618,7.166759 5.13618,17.916897 z m -9.67513,0.358338 q 0,-19.828033 -13.13906,-20.664155 -6.45008,-0.358338 -13.97518,3.941718 l 0.11945,34.519889 q 1.07501,1.433352 4.77784,2.747258 4.77784,1.791689 9.55568,1.552799 6.80842,-0.35834 10.15291,-8.002883 2.50836,-5.852853 2.50836,-14.094626 z"
       style="font-style:normal;font-variant:normal;font-weight:normal;font-stretch:normal;font-size:119.44598389px;line-height:125%;font-family:FluxRegular;-inkscape-font-specification:'FluxRegular, Normal';text-align:start;writing-mode:lr-tb;text-anchor:start;fill:#b3b3b3"
       id="path3392" />
    <path
       d="m 764.35614,52.442919 q -1.19446,2.38892 -3.46394,7.047313 -3.34449,-0.716676 -4.89728,-0.716676 l -0.11945,0 q -7.16676,0 -12.78072,4.777839 l 0,42.283875 -8.71956,0 0,-43.478334 q 4.89729,-5.494516 12.42239,-8.122327 6.56953,-2.38892 11.7057,-2.38892 2.86671,0 5.85286,0.59723 z"
       style="font-style:normal;font-variant:normal;font-weight:normal;font-stretch:normal;font-size:119.44598389px;line-height:125%;font-family:FluxRegular;-inkscape-font-specification:'FluxRegular, Normal';text-align:start;writing-mode:lr-tb;text-anchor:start;fill:#b3b3b3"
       id="path3394" />
  </g>
  <g
     style="font-style:normal;font-weight:normal;font-size:45px;line-height:125%;font-family:Sans;letter-spacing:0px;word-spacing:0px;fill:#999999;fill-opacity:1;stroke:none;stroke-width:1px;stroke-linecap:butt;stroke-linejoin:miter;stroke-opacity:1"
     id="text3559">
    <path
       d="m 177.30643,186.0825 q -5.005,5.005 -12.805,4.875 -3.9,-0.065 -6.63,-2.795 -2.665,-2.73 -2.6,-6.63 0.065,-4.03 2.86,-6.435 2.795,-2.405 6.955,-2.405 0,0 7.735,0 l 0,-2.795 q 0,-2.34 -1.885,-3.9 -1.82,-1.56 -4.29,-1.56 -3.575,0 -7.475,2.015 l -1.17,-2.73 q 4.615,-2.47 9.88,-2.47 3.77,0 6.5,2.21 2.925,2.405 2.925,6.175 l 0,16.445 z m -4.615,-0.65 0,-9.75 q -0.26,0 -6.24,0.065 -2.795,0 -4.615,1.56 -1.755,1.495 -1.755,4.095 0,2.535 1.885,4.485 1.885,1.885 4.615,1.885 3.9,0.065 6.11,-2.34 z"
       style="font-style:normal;font-variant:normal;font-weight:normal;font-stretch:normal;font-size:65px;line-height:125%;font-family:FluxRegular;-inkscape-font-specification:'FluxRegular, Normal';text-align:start;writing-mode:lr-tb;text-anchor:start;fill:#999999;fill-opacity:1"
       id="path3400" />
    <path
       d="m 203.4994,182.2475 q 0,4.29 -3.64,6.76 -3.185,2.21 -7.67,2.21 -4.94,0 -9.1,-3.185 l 1.69,-2.73 q 3.25,2.47 7.345,2.535 2.665,0 4.55,-1.17 2.21,-1.365 2.145,-3.835 -0.065,-1.82 -1.625,-2.99 -0.78,-0.585 -3.12,-1.495 -2.015,-0.715 -3.965,-1.495 -2.34,-0.91 -3.77,-1.95 -2.73,-2.015 -2.73,-5.395 0,-3.9 3.055,-6.305 2.86,-2.145 6.89,-2.145 3.9,0 8.255,2.405 l -1.755,2.795 q -3.185,-1.82 -6.24,-1.885 -2.275,0 -3.9,1.105 -1.885,1.235 -1.885,3.38 0,2.08 2.47,3.185 1.495,0.65 5.2,2.145 1.82,0.65 5.07,2.535 2.73,2.145 2.73,5.525 z"
       style="font-style:normal;font-variant:normal;font-weight:normal;font-stretch:normal;font-size:65px;line-height:125%;font-family:FluxRegular;-inkscape-font-specification:'FluxRegular, Normal';text-align:start;writing-mode:lr-tb;text-anchor:start;fill:#999999;fill-opacity:1"
       id="path3402" />
    <path
       d="m 229.14393,182.2475 q 0,4.29 -3.64,6.76 -3.185,2.21 -7.67,2.21 -4.94,0 -9.1,-3.185 l 1.69,-2.73 q 3.25,2.47 7.345,2.535 2.665,0 4.55,-1.17 2.21,-1.365 2.145,-3.835 -0.065,-1.82 -1.625,-2.99 -0.78,-0.585 -3.12,-1.495 -2.015,-0.715 -3.965,-1.495 -2.34,-0.91 -3.77,-1.95 -2.73,-2.015 -2.73,-5.395 0,-3.9 3.055,-6.305 2.86,-2.145 6.89,-2.145 3.9,0 8.255,2.405 l -1.755,2.795 q -3.185,-1.82 -6.24,-1.885 -2.275,0 -3.9,1.105 -1.885,1.235 -1.885,3.38 0,2.08 2.47,3.185 1.495,0.65 5.2,2.145 1.82,0.65 5.07,2.535 2.73,2.145 2.73,5.525 z"
       style="font-style:normal;font-variant:normal;font-weight:normal;font-stretch:normal;font-size:65px;line-height:125%;font-family:FluxRegular;-inkscape-font-specification:'FluxRegular, Normal';text-align:start;writing-mode:lr-tb;text-anchor:start;fill:#999999;fill-opacity:1"
       id="path3404" />
    <path
       d="m 259.79346,175.6825 q 0,6.37 -3.25,10.595 -3.575,4.745 -9.88,4.745 -6.24,0 -9.75,-4.745 -3.185,-4.225 -3.185,-10.595 0,-5.98 3.445,-10.075 3.64,-4.355 9.555,-4.355 5.915,0 9.62,4.355 3.445,4.095 3.445,10.075 z m -5.2,0 q 0,-4.485 -1.69,-7.41 -2.015,-3.575 -6.24,-3.77 -7.8,0.455 -7.8,11.18 l 0.065,0 q 0,4.94 1.625,8.255 2.08,4.225 6.24,4.16 7.8,-0.065 7.8,-12.415 z"
       style="font-style:normal;font-variant:normal;font-weight:normal;font-stretch:normal;font-size:65px;line-height:125%;font-family:FluxRegular;-inkscape-font-specification:'FluxRegular, Normal';text-align:start;writing-mode:lr-tb;text-anchor:start;fill:#999999;fill-opacity:1"
       id="path3406" />
    <path
       d="m 285.59744,188.0325 q -4.615,3.055 -10.465,2.99 -5.2,0 -8.515,-4.55 -3.055,-4.225 -3.055,-9.945 0,-4.095 1.625,-7.67 1.625,-3.64 4.485,-5.59 2.86,-2.015 6.825,-2.015 4.225,0 7.735,2.21 l -1.365,2.535 q -3.705,-1.755 -6.825,-1.56 -3.575,0.195 -5.785,4.095 -1.885,3.51 -1.885,7.995 0,4.29 2.015,7.54 2.34,3.705 6.11,3.77 2.99,0.065 7.865,-2.275 l 1.235,2.47 z"
       style="font-style:normal;font-variant:normal;font-weight:normal;font-stretch:normal;font-size:65px;line-height:125%;font-family:FluxRegular;-inkscape-font-specification:'FluxRegular, Normal';text-align:start;writing-mode:lr-tb;text-anchor:start;fill:#999999;fill-opacity:1"
       id="path3408" />
    <path
       d="m 297.58588,152.0875 q 0,1.3 -0.91,2.21 -0.91,0.845 -2.21,0.845 -1.235,0 -2.145,-0.91 -0.91,-0.91 -0.91,-2.145 l 0,-0.065 q 0,-1.3 0.91,-2.145 0.91,-0.91 2.21,-0.91 1.3,0 2.145,0.91 0.91,0.91 0.91,2.21 z m -0.715,38.35 -4.68,0 0,-27.625 4.68,-1.56 0,29.185 z"
       style="font-style:normal;font-variant:normal;font-weight:normal;font-stretch:normal;font-size:65px;line-height:125%;font-family:FluxRegular;-inkscape-font-specification:'FluxRegular, Normal';text-align:start;writing-mode:lr-tb;text-anchor:start;fill:#999999;fill-opacity:1"
       id="path3410" />
    <path
       d="m 325.58768,186.0825 q -5.005,5.005 -12.805,4.875 -3.9,-0.065 -6.63,-2.795 -2.665,-2.73 -2.6,-6.63 0.065,-4.03 2.86,-6.435 2.795,-2.405 6.955,-2.405 0,0 7.735,0 l 0,-2.795 q 0,-2.34 -1.885,-3.9 -1.82,-1.56 -4.29,-1.56 -3.575,0 -7.475,2.015 l -1.17,-2.73 q 4.615,-2.47 9.88,-2.47 3.77,0 6.5,2.21 2.925,2.405 2.925,6.175 l 0,16.445 z m -4.615,-0.65 0,-9.75 q -0.26,0 -6.24,0.065 -2.795,0 -4.615,1.56 -1.755,1.495 -1.755,4.095 0,2.535 1.885,4.485 1.885,1.885 4.615,1.885 3.9,0.065 6.11,-2.34 z"
       style="font-style:normal;font-variant:normal;font-weight:normal;font-stretch:normal;font-size:65px;line-height:125%;font-family:FluxRegular;-inkscape-font-specification:'FluxRegular, Normal';text-align:start;writing-mode:lr-tb;text-anchor:start;fill:#999999;fill-opacity:1"
       id="path3412" />
    <path
       d="m 352.75565,188.0975 0,-0.065 q -4.03,2.665 -9.1,2.925 l -0.065,1.17 q 1.3,0.195 1.43,0.325 4.16,0.585 4.16,4.745 0,2.015 -1.625,3.575 -1.82,1.755 -4.745,1.755 -2.21,0 -5.07,-1.365 l 1.04,-2.34 q 2.21,0.975 4.03,1.04 1.17,0 2.08,-0.78 0.975,-0.78 0.975,-2.015 0,-2.405 -3.25,-2.405 l -2.015,0 0,-3.835 q -4.485,-0.78 -7.28,-5.07 -2.6,-4.03 -2.6,-9.23 0,-4.095 1.625,-7.67 1.625,-3.64 4.485,-5.59 2.86,-2.015 6.825,-2.015 4.225,0 7.735,2.21 l -1.365,2.535 q -3.705,-1.755 -6.825,-1.56 -3.575,0.195 -5.785,4.095 -1.885,3.51 -1.885,7.995 0,4.29 2.015,7.54 2.34,3.705 6.11,3.77 2.99,0.065 7.865,-2.275 l 1.235,2.535 z"
       style="font-style:normal;font-variant:normal;font-weight:normal;font-stretch:normal;font-size:65px;line-height:125%;font-family:FluxRegular;-inkscape-font-specification:'FluxRegular, Normal';text-align:start;writing-mode:lr-tb;text-anchor:start;fill:#999999;fill-opacity:1"
       id="path3414" />
    <path
       d="m 379.10908,154.2975 q -3.185,3.185 -7.215,3.185 -1.495,0 -3.64,-1.04 -2.145,-1.105 -3.51,-1.105 -1.82,0 -4.29,1.885 l -1.755,-2.405 q 3.185,-3.185 7.28,-3.185 1.495,0 3.64,1.105 2.145,1.04 3.51,1.04 1.82,0 4.29,-1.885 l 1.69,2.405 z m 0.195,31.785 q -5.005,5.005 -12.805,4.875 -3.9,-0.065 -6.63,-2.795 -2.665,-2.73 -2.6,-6.63 0.065,-4.03 2.86,-6.435 2.795,-2.405 6.955,-2.405 0,0 7.735,0 l 0,-2.795 q 0,-2.34 -1.885,-3.9 -1.82,-1.56 -4.29,-1.56 -3.575,0 -7.475,2.015 l -1.17,-2.73 q 4.615,-2.47 9.88,-2.47 3.77,0 6.5,2.21 2.925,2.405 2.925,6.175 l 0,16.445 z m -4.615,-0.65 0,-9.685 -6.24,0 q -2.795,0 -4.615,1.56 -1.755,1.495 -1.755,4.095 0,2.535 1.885,4.485 1.885,1.885 4.615,1.885 3.9,0.065 6.11,-2.34 z"
       style="font-style:normal;font-variant:normal;font-weight:normal;font-stretch:normal;font-size:65px;line-height:125%;font-family:FluxRegular;-inkscape-font-specification:'FluxRegular, Normal';text-align:start;writing-mode:lr-tb;text-anchor:start;fill:#999999;fill-opacity:1"
       id="path3416" />
    <path
       d="m 410.48682,175.6825 q 0,6.37 -3.25,10.595 -3.575,4.745 -9.88,4.745 -6.24,0 -9.75,-4.745 -3.185,-4.225 -3.185,-10.595 0,-5.98 3.445,-10.075 3.64,-4.355 9.555,-4.355 5.915,0 9.62,4.355 3.445,4.095 3.445,10.075 z m -5.2,0 q 0,-4.485 -1.69,-7.41 -2.015,-3.575 -6.24,-3.77 -7.8,0.455 -7.8,11.18 l 0.065,0 q 0,4.94 1.625,8.255 2.08,4.225 6.24,4.16 7.8,-0.065 7.8,-12.415 z"
       style="font-style:normal;font-variant:normal;font-weight:normal;font-stretch:normal;font-size:65px;line-height:125%;font-family:FluxRegular;-inkscape-font-specification:'FluxRegular, Normal';text-align:start;writing-mode:lr-tb;text-anchor:start;fill:#999999;fill-opacity:1"
       id="path3418" />
    <path
       d="m 460.20268,176.7225 q 0,5.915 -2.795,9.815 -3.12,4.42 -8.645,4.55 -4.16,0.13 -8.58,-2.6 l 0,16.835 -4.68,-1.69 0.065,-37.375 q 1.17,-1.43 2.99,-2.47 4.225,-2.47 10.27,-2.535 l 0.065,0.065 q 5.525,-0.065 8.515,4.55 2.795,4.225 2.795,10.855 z m -5.46,-0.325 q 0,-11.635 -6.695,-11.96 -2.665,-0.13 -5.2,0.845 -2.015,0.715 -2.73,1.43 l 0,18.525 q 4.29,2.665 7.605,2.47 7.02,-0.455 7.02,-11.31 z"
       style="font-style:normal;font-variant:normal;font-weight:normal;font-stretch:normal;font-size:65px;line-height:125%;font-family:FluxRegular;-inkscape-font-specification:'FluxRegular, Normal';text-align:start;writing-mode:lr-tb;text-anchor:start;fill:#999999;fill-opacity:1"
       id="path3420" />
    <path
       d="m 489.30338,187.7725 q 0,7.93 -1.625,10.985 -1.56,3.055 -6.045,4.875 -3.64,1.43 -7.865,1.56 l -0.78,-2.99 q 4.29,-0.585 6.045,-1.17 3.445,-1.17 4.745,-3.575 1.04,-1.95 1.04,-7.475 0,-1.235 0,-1.235 -4.875,2.21 -10.205,2.21 -3.51,0 -6.175,-2.21 -2.99,-2.405 -2.99,-6.11 l 0,-19.76 4.81,-1.625 0,19.89 q 0,3.185 2.015,4.94 2.08,1.69 5.33,1.625 3.25,-0.065 6.955,-2.535 l 0,-23.205 4.745,0 0,25.805 z"
       style="font-style:normal;font-variant:normal;font-weight:normal;font-stretch:normal;font-size:65px;line-height:125%;font-family:FluxRegular;-inkscape-font-specification:'FluxRegular, Normal';text-align:start;writing-mode:lr-tb;text-anchor:start;fill:#999999;fill-opacity:1"
       id="path3422" />
    <path
       d="m 507.94213,190.8275 q -0.845,0.065 -1.56,0.065 -4.03,0 -6.305,-1.885 -2.21,-1.95 -2.21,-5.33 l 0,-18.655 -3.25,0 0,-3.055 3.25,0 0,-7.93 4.745,-1.69 0,9.62 5.33,0 0,3.055 -5.33,0 0,18.525 q 0,2.665 1.43,3.77 1.235,0.91 3.9,1.04 l 0,2.47 z"
       style="font-style:normal;font-variant:normal;font-weight:normal;font-stretch:normal;font-size:65px;line-height:125%;font-family:FluxRegular;-inkscape-font-specification:'FluxRegular, Normal';text-align:start;writing-mode:lr-tb;text-anchor:start;fill:#999999;fill-opacity:1"
       id="path3424" />
    <path
       d="m 537.60752,190.4375 -4.81,0 0,-18.33 q 0,-2.795 -1.3,-4.81 -1.495,-2.275 -4.16,-2.275 -3.25,0 -8.125,3.445 l 0,21.97 -4.745,0 0,-43.81 4.745,-1.495 0,19.955 q 4.55,-3.315 9.945,-3.315 3.77,0 6.11,2.535 2.34,2.535 2.34,6.305 l 0,19.825 z"
       style="font-style:normal;font-variant:normal;font-weight:normal;font-stretch:normal;font-size:65px;line-height:125%;font-family:FluxRegular;-inkscape-font-specification:'FluxRegular, Normal';text-align:start;writing-mode:lr-tb;text-anchor:start;fill:#999999;fill-opacity:1"
       id="path3426" />
    <path
       d="m 568.92432,175.6825 q 0,6.37 -3.25,10.595 -3.575,4.745 -9.88,4.745 -6.24,0 -9.75,-4.745 -3.185,-4.225 -3.185,-10.595 0,-5.98 3.445,-10.075 3.64,-4.355 9.555,-4.355 5.915,0 9.62,4.355 3.445,4.095 3.445,10.075 z m -5.2,0 q 0,-4.485 -1.69,-7.41 -2.015,-3.575 -6.24,-3.77 -7.8,0.455 -7.8,11.18 l 0.065,0 q 0,4.94 1.625,8.255 2.08,4.225 6.24,4.16 7.8,-0.065 7.8,-12.415 z"
       style="font-style:normal;font-variant:normal;font-weight:normal;font-stretch:normal;font-size:65px;line-height:125%;font-family:FluxRegular;-inkscape-font-specification:'FluxRegular, Normal';text-align:start;writing-mode:lr-tb;text-anchor:start;fill:#999999;fill-opacity:1"
       id="path3428" />
    <path
       d="m 596.9383,190.4375 -4.745,0 0,-19.37 q 0,-3.185 -1.95,-4.94 -1.885,-1.82 -5.07,-1.755 -3.38,0.065 -6.435,2.21 l 0,23.855 -4.745,0 0,-24.44 q 4.095,-2.99 7.54,-3.9 3.25,-0.845 5.72,-0.845 1.69,0 3.185,0.325 2.795,0.65 4.55,2.405 1.95,1.95 1.95,4.68 l 0,21.775 z"
       style="font-style:normal;font-variant:normal;font-weight:normal;font-stretch:normal;font-size:65px;line-height:125%;font-family:FluxRegular;-inkscape-font-specification:'FluxRegular, Normal';text-align:start;writing-mode:lr-tb;text-anchor:start;fill:#999999;fill-opacity:1"
       id="path3430" />
    <path
       d="m 648.15525,175.5525 q 0,6.565 -2.99,10.92 -3.185,4.68 -8.45,4.55 l 0,-0.065 q -8.645,-0.325 -13.195,-4.94 l 0,-39.325 4.615,-1.56 0,18.655 q 4.355,-2.665 8.58,-2.535 5.525,0.195 8.645,4.55 2.795,3.9 2.795,9.75 z m -5.265,0.195 q 0,-10.79 -7.15,-11.245 -3.51,-0.195 -7.605,2.145 l 0.065,18.785 q 0.585,0.78 2.6,1.495 2.6,0.975 5.2,0.845 3.705,-0.195 5.525,-4.355 1.365,-3.185 1.365,-7.67 z"
       style="font-style:normal;font-variant:normal;font-weight:normal;font-stretch:normal;font-size:65px;line-height:125%;font-family:FluxRegular;-inkscape-font-specification:'FluxRegular, Normal';text-align:start;writing-mode:lr-tb;text-anchor:start;fill:#999999;fill-opacity:1"
       id="path3432" />
    <path
       d="m 670.304,161.3825 q -0.65,1.3 -1.885,3.835 -1.82,-0.39 -2.665,-0.39 l -0.065,0 q -3.9,0 -6.955,2.6 l 0,23.01 -4.745,0 0,-23.66 q 2.665,-2.99 6.76,-4.42 3.575,-1.3 6.37,-1.3 1.56,0 3.185,0.325 z"
       style="font-style:normal;font-variant:normal;font-weight:normal;font-stretch:normal;font-size:65px;line-height:125%;font-family:FluxRegular;-inkscape-font-specification:'FluxRegular, Normal';text-align:start;writing-mode:lr-tb;text-anchor:start;fill:#999999;fill-opacity:1"
       id="path3434" />
    <path
       d="m 695.52908,186.0825 q -5.005,5.005 -12.805,4.875 -3.9,-0.065 -6.63,-2.795 -2.665,-2.73 -2.6,-6.63 0.065,-4.03 2.86,-6.435 2.795,-2.405 6.955,-2.405 0,0 7.735,0 l 0,-2.795 q 0,-2.34 -1.885,-3.9 -1.82,-1.56 -4.29,-1.56 -3.575,0 -7.475,2.015 l -1.17,-2.73 q 4.615,-2.47 9.88,-2.47 3.77,0 6.5,2.21 2.925,2.405 2.925,6.175 l 0,16.445 z m -4.615,-0.65 0,-9.75 q -0.26,0 -6.24,0.065 -2.795,0 -4.615,1.56 -1.755,1.495 -1.755,4.095 0,2.535 1.885,4.485 1.885,1.885 4.615,1.885 3.9,0.065 6.11,-2.34 z"
       style="font-style:normal;font-variant:normal;font-weight:normal;font-stretch:normal;font-size:65px;line-height:125%;font-family:FluxRegular;-inkscape-font-specification:'FluxRegular, Normal';text-align:start;writing-mode:lr-tb;text-anchor:start;fill:#999999;fill-opacity:1"
       id="path3436" />
    <path
       d="m 721.72205,182.2475 q 0,4.29 -3.64,6.76 -3.185,2.21 -7.67,2.21 -4.94,0 -9.1,-3.185 l 1.69,-2.73 q 3.25,2.47 7.345,2.535 2.665,0 4.55,-1.17 2.21,-1.365 2.145,-3.835 -0.065,-1.82 -1.625,-2.99 -0.78,-0.585 -3.12,-1.495 -2.015,-0.715 -3.965,-1.495 -2.34,-0.91 -3.77,-1.95 -2.73,-2.015 -2.73,-5.395 0,-3.9 3.055,-6.305 2.86,-2.145 6.89,-2.145 3.9,0 8.255,2.405 l -1.755,2.795 q -3.185,-1.82 -6.24,-1.885 -2.275,0 -3.9,1.105 -1.885,1.235 -1.885,3.38 0,2.08 2.47,3.185 1.495,0.65 5.2,2.145 1.82,0.65 5.07,2.535 2.73,2.145 2.73,5.525 z"
       style="font-style:normal;font-variant:normal;font-weight:normal;font-stretch:normal;font-size:65px;line-height:125%;font-family:FluxRegular;-inkscape-font-specification:'FluxRegular, Normal';text-align:start;writing-mode:lr-tb;text-anchor:start;fill:#999999;fill-opacity:1"
       id="path3438" />
    <path
       d="m 734.43158,152.0875 q 0,1.3 -0.91,2.21 -0.91,0.845 -2.21,0.845 -1.235,0 -2.145,-0.91 -0.91,-0.91 -0.91,-2.145 l 0,-0.065 q 0,-1.3 0.91,-2.145 0.91,-0.91 2.21,-0.91 1.3,0 2.145,0.91 0.91,0.91 0.91,2.21 z m -0.715,38.35 -4.68,0 0,-27.625 4.68,-1.56 0,29.185 z"
       style="font-style:normal;font-variant:normal;font-weight:normal;font-stretch:normal;font-size:65px;line-height:125%;font-family:FluxRegular;-inkscape-font-specification:'FluxRegular, Normal';text-align:start;writing-mode:lr-tb;text-anchor:start;fill:#999999;fill-opacity:1"
       id="path3440" />
    <path
       d="m 752.29338,190.8925 q -0.78,0.065 -1.56,0.065 -3.965,0 -6.175,-1.885 -2.21,-1.95 -2.21,-5.33 l 0,-37.115 4.615,-1.495 0,38.48 q 0,2.665 1.43,3.77 1.235,0.91 3.9,1.04 l 0,2.47 z"
       style="font-style:normal;font-variant:normal;font-weight:normal;font-stretch:normal;font-size:65px;line-height:125%;font-family:FluxRegular;-inkscape-font-specification:'FluxRegular, Normal';text-align:start;writing-mode:lr-tb;text-anchor:start;fill:#999999;fill-opacity:1"
       id="path3442" />
  </g>
</svg>
